SplineFontDB: 3.2
FontName: Samaano-Thin-Slanted
FullName: Samaano Thin Slanted
FamilyName: Samaano
Weight: Thin
Copyright: Copyright 2025 The Samaano Project Authors (https://github.com/mitradranirban/samaano-fonts)
UComments: "2024-8-27: Created with FontForge (http://fontforge.org)"
Version: 2.500
ItalicAngle: -20
UnderlinePosition: 0
UnderlineWidth: 102
Ascent: 1638
Descent: 410
InvalidEm: 0
UFOAscent: 1638
UFODescent: -410
LayerCount: 2
Layer: 0 0 "Back" 1
Layer: 1 0 "public.default" 0 "glyphs"
StyleMap: 0x0001
FSType: 256
OS2Version: 0
OS2_WeightWidthSlopeOnly: 0
OS2_UseTypoMetrics: 0
CreationTime: 1758187942
ModificationTime: 1758187942
PfmFamily: 16
TTFWeight: 700
TTFWidth: 5
LineGap: 0
VLineGap: 0
Panose: 2 7 8 9 2 2 5 2 4 4
OS2TypoAscent: 2457
OS2TypoAOffset: 0
OS2TypoDescent: -615
OS2TypoDOffset: 0
OS2TypoLinegap: 0
OS2WinAscent: 3225
OS2WinAOffset: 0
OS2WinDescent: 1040
OS2WinDOffset: 0
HheadAscent: 2457
HheadAOffset: 0
HheadDescent: -615
HheadDOffset: 0
OS2CapHeight: 1548
OS2XHeight: 1023
OS2FamilyClass: 1031
OS2Vendor: 'anir'
Lookup: 1 0 0 "loclLocalizedFormsinLatinlookup10" { "loclLocalizedFormsinLatinlookup10 subtable"  } ['locl' ('latn' <'MOL ' 'ROM ' > ) ]
Lookup: 6 0 0 "loclLocalizedFormsinLatinlookup11" { "loclLocalizedFormsinLatinlookup11 contextual 0"  "loclLocalizedFormsinLatinlookup11 contextual 1"  } ['locl' ('latn' <'CAT ' > ) ]
Lookup: 4 0 0 "Ligature Substitution lookup 2" { "Ligature Substitution lookup 2 subtable"  } []
Lookup: 4 0 0 "Ligature Substitution lookup 3" { "Ligature Substitution lookup 3 subtable"  } []
Lookup: 6 16 0 "ccmp_soft_dotted" { "ccmp_soft_dotted subtable"  } ['ccmp' ('latn' <'dflt' > 'DFLT' <'dflt' > ) ]
Lookup: 1 16 0 "Single Substitution lookup 5" { "Single Substitution lookup 5 subtable"  } []
Lookup: 4 0 0 "dligDiscretionaryLigatureslookup0" { "dligDiscretionaryLigatureslookup0 subtable"  } ['dlig' ('latn' <'dflt' > 'DFLT' <'dflt' > ) ]

StartChar: uni0000
Encoding: 0 0 0
GlifName: _notdef
Width: 1024
VWidth: 0
Flags: W
LayerCount: 2
Fore
SplineSet
-285 -100 m 257
 713 -100 l 257
 1309 1540 l 257
 311 1540 l 257
 -285 -100 l 257
-182 -20 m 257
 357 1462 l 257
 488 743 l 257
 -182 -20 l 257
-90 -20 m 257
 498 666 l 257
 590 -20 l 257
 -90 -20 l 257
481 1474 m 257
 1112 1474 l 257
 558 825 l 257
 481 1474 l 257
568 748 m 257
 1209 1475 l 257
 665 -20 l 257
 568 748 l 257
EndSplineSet
EndChar

StartChar: A
Encoding: 1 65 1
GlifName: A_
Width: 1024
VWidth: 0
GlyphClass: 2
Flags: W
AnchorPoint: "top" 1022.03 1629 basechar 0
AnchorPoint: "base" 568.033 -44 basechar 0
LayerCount: 2
Fore
SplineSet
108.033 16 m 257
 167.033 16 l 257
 726.033 1553 l 257
 667.033 1553 l 257
 108.033 16 l 257
704.033 1492 m 257
 1421.03 1492 l 257
 1443.03 1553 l 257
 726.033 1553 l 257
 704.033 1492 l 257
508.033 970 m 257
 487.033 911 l 257
 1210.03 911 l 257
 1231.03 970 l 257
 508.033 970 l 257
864.033 5 m 257
 924.033 5 l 257
 1487.03 1553 l 257
 1427.03 1553 l 257
 864.033 5 l 257
EndSplineSet
EndChar

StartChar: AE
Encoding: 3 198 3
GlifName: A_E_
Width: 1024
VWidth: 0
GlyphClass: 2
Flags: W
AnchorPoint: "top" 1178 1805 basechar 0
AnchorPoint: "base" 528 -10 basechar 0
LayerCount: 2
Fore
SplineSet
582 62 m 257
 560 0 l 257
 980 0 l 257
 1002 62 l 257
 582 62 l 257
108 0 m 257
 170 0 l 257
 734 1550 l 257
 672 1550 l 257
 108 0 l 257
694 1489 m 257
 1500 1489 l 257
 1522 1550 l 257
 716 1550 l 257
 694 1489 l 257
528 1023 m 257
 507 964 l 257
 1257 964 l 257
 1278 1023 l 257
 528 1023 l 257
534 0 m 257
 594 0 l 257
 1158 1550 l 257
 1098 1550 l 257
 534 0 l 257
EndSplineSet
EndChar

StartChar: uni2C6D
Encoding: 12 11373 12
GlifName: A_lpha_latin
Width: 1024
VWidth: 0
GlyphClass: 2
Flags: W
AnchorPoint: "top" 939 1525 basechar 0
AnchorPoint: "base" 521.171 -50 basechar 0
LayerCount: 2
Fore
SplineSet
475 1452 m 257
 103.171 0 l 257
 162.171 0 l 257
 534 1452 l 257
 475 1452 l 257
1232 1545 m 257
 860 -127 l 257
 921 -127 l 257
 1293 1545 l 257
 1232 1545 l 257
536 1452 m 257
 516 1396 l 257
 1217 1396 l 257
 1237 1452 l 257
 536 1452 l 257
167 62 m 257
 144 0 l 257
 913 0 l 257
 937 62 l 257
 167 62 l 257
EndSplineSet
EndChar

StartChar: B
Encoding: 22 66 22
GlifName: B_
Width: 1024
VWidth: 0
GlyphClass: 2
Flags: W
HStem: 811 59<397.877 397.877 397.877 440.877 440.877 440.877 440.877 440.877>
AnchorPoint: "top" 708.877 1645 basechar 0
AnchorPoint: "base" 68.877 -99 basechar 0
LayerCount: 2
Fore
SplineSet
26.877 0 m 257
 83.877 0 l 257
 648.877 1553 l 257
 591.877 1553 l 257
 26.877 0 l 257
666.877 1494 m 257
 1333.88 1023 l 257
 1354.88 1081 l 257
 686.877 1550 l 257
 666.877 1494 l 257
440.877 811 m 257
 1333.88 1023 l 257
 1354.88 1079 l 257
 462.877 870 l 257
 440.877 811 l 257
150.877 62 m 257
 127.877 0 l 257
 1153.88 434 l 257
 1177.88 500 l 257
 150.877 62 l 257
412.877 746 m 257
 1153.88 430 l 257
 1178.88 501 l 257
 434.877 808 l 257
 412.877 746 l 257
397.877 870 m 257
 375.877 811 l 257
 440.877 811 l 257
 462.877 870 l 257
 397.877 870 l 257
374.877 808 m 257
 352.877 748 l 257
 412.877 748 l 257
 434.877 808 l 257
 374.877 808 l 257
90.877 62 m 257
 67.877 0 l 257
 127.877 0 l 257
 150.877 62 l 257
 90.877 62 l 257
627.877 1553 m 257
 606.877 1494 l 257
 666.877 1494 l 257
 687.877 1553 l 257
 627.877 1553 l 257
EndSplineSet
PickledDataWithLists: "(dp0
Vcom.fontlab.hintData
p1
(dp2
Vhhints
p3
(lp4
(dp5
Vposition
p6
I811
sVwidth
p7
I59
sass."
EndChar

StartChar: uni0411
Encoding: 24 1041 24
GlifName: B_e-cy
Width: 1024
VWidth: 0
Flags: W
AnchorPoint: "base" 469.02 -72 basechar 0
AnchorPoint: "top" 746.02 1622 basechar 0
LayerCount: 2
Fore
SplineSet
606 1536 m 257
 47 0 l 257
 107 0 l 257
 666 1536 l 257
 606 1536 l 257
370 808 m 257
 345 747 l 257
 1235 747 l 257
 1260 808 l 257
 370 808 l 257
1247 808 m 257
 871 0 l 257
 931 0 l 257
 1307 808 l 257
 1247 808 l 257
104 60 m 257
 82 0 l 257
 909 0 l 257
 931 60 l 257
 104 60 l 257
618 1537 m 257
 593 1476 l 257
 1483 1476 l 257
 1508 1537 l 257
 618 1537 l 257
EndSplineSet
EndChar

StartChar: uniA7B4
Encoding: 26 42932 26
GlifName: B_eta_latin
Width: 1024
VWidth: 0
GlyphClass: 2
Flags: W
AnchorPoint: "top" 708.877 1645 basechar 0
AnchorPoint: "base" 68.877 -99 basechar 0
LayerCount: 2
Fore
SplineSet
-124 -412 m 257
 -67 -412 l 257
 648.877 1553 l 257
 591.877 1553 l 257
 -124 -412 l 257
666.877 1494 m 257
 1333.88 1023 l 257
 1354.88 1081 l 257
 686.877 1550 l 257
 666.877 1494 l 257
440.877 811 m 257
 1333.88 1023 l 257
 1354.88 1079 l 257
 462.877 870 l 257
 440.877 811 l 257
150.877 62 m 257
 127.877 0 l 257
 1153.88 434 l 257
 1177.88 500 l 257
 150.877 62 l 257
412.877 746 m 257
 1153.88 430 l 257
 1178.88 501 l 257
 434.877 808 l 257
 412.877 746 l 257
397.877 870 m 257
 375.877 811 l 257
 440.877 811 l 257
 462.877 870 l 257
 397.877 870 l 257
374.877 808 m 257
 352.877 748 l 257
 412.877 748 l 257
 434.877 808 l 257
 374.877 808 l 257
90.877 62 m 257
 67.877 0 l 257
 127.877 0 l 257
 150.877 62 l 257
 90.877 62 l 257
627.877 1553 m 257
 606.877 1494 l 257
 666.877 1494 l 257
 687.877 1553 l 257
 627.877 1553 l 257
EndSplineSet
EndChar

StartChar: uni0182
Encoding: 30 386 30
GlifName: B_topbar
Width: 1024
VWidth: 0
GlyphClass: 2
Flags: W
AnchorPoint: "top" 708.877 1645 basechar 0
AnchorPoint: "base" 68.877 -99 basechar 0
LayerCount: 2
Fore
SplineSet
26.877 0 m 257
 83.877 0 l 257
 648.877 1553 l 257
 591.877 1553 l 257
 26.877 0 l 257
150.877 62 m 257
 127.877 0 l 257
 1153.88 434 l 257
 1177.88 500 l 257
 150.877 62 l 257
412.877 746 m 257
 1153.88 430 l 257
 1178.88 501 l 257
 434.877 808 l 257
 412.877 746 l 257
374.877 808 m 257
 352.877 748 l 257
 412.877 748 l 257
 434.877 808 l 257
 374.877 808 l 257
90.877 62 m 257
 67.877 0 l 257
 127.877 0 l 257
 150.877 62 l 257
 90.877 62 l 257
627.877 1553 m 257
 606.877 1494 l 257
 1329 1494 l 257
 1350 1553 l 257
 627.877 1553 l 257
EndSplineSet
EndChar

StartChar: C
Encoding: 31 67 31
GlifName: C_
Width: 1024
VWidth: 0
GlyphClass: 2
Flags: W
AnchorPoint: "top" 1008.19 1625 basechar 0
AnchorPoint: "base" 541.191 -39 basechar 0
LayerCount: 2
Fore
SplineSet
636.191 1553 m 257
 71.1914 0 l 257
 131.191 0 l 257
 696.191 1553 l 257
 636.191 1553 l 257
665.191 1553 m 257
 644.191 1495 l 257
 1497.19 1495 l 257
 1518.19 1553 l 257
 665.191 1553 l 257
126.191 58 m 257
 105.191 0 l 257
 951.191 0 l 257
 972.191 58 l 257
 126.191 58 l 257
EndSplineSet
EndChar

StartChar: uni0427
Encoding: 37 1063 37
GlifName: C_he-cy
Width: 1024
VWidth: 0
Flags: W
LayerCount: 2
Fore
SplineSet
1392 1554 m 257
 826 -1 l 257
 886 -1 l 257
 1452 1554 l 257
 1392 1554 l 257
656 1554 m 257
 302 582 l 257
 362 582 l 257
 716 1554 l 257
 656 1554 l 257
371 635 m 257
 362 581 l 257
 1102 704 l 257
 1112 758 l 257
 371 635 l 257
EndSplineSet
EndChar

StartChar: D
Encoding: 40 68 40
GlifName: D_
Width: 1024
VWidth: 0
GlyphClass: 2
Flags: W
AnchorPoint: "base" 165 -99 basechar 0
AnchorPoint: "top" 752.294 1641 basechar 0
LayerCount: 2
Fore
SplineSet
661.294 1553 m 257
 96.2939 0 l 257
 156.294 0 l 257
 721.294 1553 l 257
 661.294 1553 l 257
800.294 1550 m 257
 779.294 1493 l 257
 1276.29 961 l 257
 1298.29 1023 l 257
 800.294 1550 l 257
257.294 58 m 257
 236.294 0 l 257
 1277.29 960 l 257
 1300.29 1023 l 257
 257.294 58 l 257
721.294 1553 m 257
 699.294 1493 l 257
 779.294 1493 l 257
 801.294 1553 l 257
 721.294 1553 l 257
179.294 58 m 257
 158.294 0 l 257
 236.294 0 l 257
 257.294 58 l 257
 179.294 58 l 257
EndSplineSet
EndChar

StartChar: Dcroat
Encoding: 44 272 44
GlifName: D_croat
Width: 1024
VWidth: 0
GlyphClass: 2
Flags: W
AnchorPoint: "top" 773 1662 basechar 0
AnchorPoint: "base" 300 -152 basechar 0
LayerCount: 2
Fore
SplineSet
157 935 m 257
 136 876 l 257
 612 876 l 257
 633 935 l 257
 157 935 l 257
487 1550 m 257
 -77 0 l 257
 -15 0 l 257
 549 1550 l 257
 487 1550 l 257
813 1550 m 257
 790 1488 l 257
 1059 906 l 257
 1101 1023 l 257
 813 1550 l 257
279 61 m 257
 257 0 l 257
 1062 915 l 257
 1101 1023 l 257
 279 61 l 257
533 1550 m 257
 510 1488 l 257
 790 1488 l 257
 813 1550 l 257
 533 1550 l 257
-13 61 m 257
 -35 0 l 257
 257 0 l 257
 279 61 l 257
 -13 61 l 257
EndSplineSet
EndChar

StartChar: uni0414
Encoding: 45 1044 45
GlifName: D_e-cy
Width: 1024
VWidth: 0
Flags: W
LayerCount: 2
Fore
SplineSet
92 203 m 257
 19 143 l 257
 993 143 l 257
 1066 203 l 257
 92 203 l 257
76 159 m 257
 -127 -405 l 257
 -67 -405 l 257
 136 159 l 257
 76 159 l 257
990 159 m 257
 782 -412 l 257
 842 -412 l 257
 1050 159 l 257
 990 159 l 257
1367 1516 m 257
 892 162 l 257
 952 162 l 257
 1427 1516 l 257
 1367 1516 l 257
988 1538 m 257
 915 1478 l 257
 1391 1478 l 257
 1464 1538 l 257
 988 1538 l 257
968 1539 m 257
 174 185 l 257
 234 185 l 257
 1028 1539 l 257
 968 1539 l 257
EndSplineSet
EndChar

StartChar: uni0402
Encoding: 47 1026 47
GlifName: D_je-cy
Width: 1024
VWidth: 0
Flags: W
LayerCount: 2
Fore
SplineSet
586 1548 m 257
 560 1488 l 257
 1348 1488 l 257
 1374 1548 l 257
 586 1548 l 257
839 1544 m 257
 277 -1 l 257
 337 -1 l 257
 899 1544 l 257
 839 1544 l 257
652 994 m 257
 622 934 l 257
 1235 934 l 257
 1265 994 l 257
 652 994 l 257
1203 989 m 257
 857 37 l 257
 917 37 l 257
 1263 989 l 257
 1203 989 l 257
602 60 m 257
 582 0 l 257
 905 0 l 257
 925 60 l 257
 602 60 l 257
EndSplineSet
EndChar

StartChar: uni040F
Encoding: 51 1039 51
GlifName: D_zhe-cy
Width: 1024
VWidth: 0
Flags: W
LayerCount: 2
Fore
SplineSet
589 1466 m 257
 62 18 l 257
 122 18 l 257
 649 1466 l 257
 589 1466 l 257
1430 1470 m 257
 896 3 l 257
 956 3 l 257
 1490 1470 l 257
 1430 1470 l 257
128 60 m 257
 55 0 l 257
 955 0 l 257
 1028 60 l 257
 128 60 l 257
504 25 m 257
 328 -405 l 257
 388 -405 l 257
 564 25 l 257
 504 25 l 257
EndSplineSet
EndChar

StartChar: E
Encoding: 52 69 52
GlifName: E_
Width: 1024
VWidth: 0
GlyphClass: 2
Flags: W
AnchorPoint: "top" 1007 1633 basechar 0
AnchorPoint: "base" 564.996 -80 basechar 0
LayerCount: 2
Fore
SplineSet
669.996 1550 m 257
 105.996 0 l 257
 164.996 0 l 257
 728.996 1550 l 257
 669.996 1550 l 257
706.996 1553 m 257
 690.996 1490 l 257
 1445 1490 l 257
 1468 1553 l 257
 706.996 1553 l 257
170.996 60 m 257
 148.996 0 l 257
 917.996 0 l 257
 939.996 60 l 257
 170.996 60 l 257
460.996 859 m 257
 437.996 798 l 257
 961.996 798 l 257
 984.996 859 l 257
 460.996 859 l 257
EndSplineSet
EndChar

StartChar: uni0404
Encoding: 53 1028 53
GlifName: E_-cy
Width: 1024
VWidth: 0
Flags: W
LayerCount: 2
Fore
SplineSet
1008 1550 m 257
 965 1490 l 257
 1456 1490 l 257
 1499 1550 l 257
 1008 1550 l 257
414 836 m 257
 341 776 l 257
 1126 776 l 257
 1199 836 l 257
 414 836 l 257
464 67 m 257
 419 9 l 257
 933 9 l 257
 978 67 l 257
 464 67 l 257
1008 1549 m 257
 333 814 l 257
 393 814 l 257
 1068 1549 l 257
 1008 1549 l 257
335 814 m 257
 419 8 l 257
 479 8 l 257
 395 814 l 257
 335 814 l 257
EndSplineSet
EndChar

StartChar: uni041B
Encoding: 63 1051 63
GlifName: E_l-cy
Width: 1024
VWidth: 0
Flags: W
LayerCount: 2
Fore
SplineSet
1502 1548 m 257
 939 14 l 257
 999 14 l 257
 1562 1548 l 257
 1502 1548 l 257
962 1548 m 257
 934 1488 l 257
 1522 1488 l 257
 1550 1548 l 257
 962 1548 l 257
961 1548 m 257
 216 0 l 257
 276 0 l 257
 1021 1548 l 257
 961 1548 l 257
48 61 m 257
 20 1 l 257
 276 1 l 257
 304 61 l 257
 48 61 l 257
EndSplineSet
EndChar

StartChar: Eng
Encoding: 65 330 65
GlifName: E_ng
Width: 1024
VWidth: 0
GlyphClass: 2
Flags: W
AnchorPoint: "top" 885 1630 basechar 0
AnchorPoint: "base" 149 -442 basechar 0
LayerCount: 2
Fore
SplineSet
109 -374 m 257
 94 -408 l 257
 481 -408 l 257
 496 -374 l 257
 109 -374 l 257
373 1490 m 257
 -170 0 l 257
 -126 0 l 257
 417 1490 l 257
 373 1490 l 257
1112 1476 m 257
 426 -408 l 257
 482 -408 l 257
 1168 1476 l 257
 1112 1476 l 257
395 1550 m 257
 372 1478 l 257
 1171 1478 l 257
 1194 1550 l 257
 395 1550 l 257
EndSplineSet
EndChar

StartChar: uni0190
Encoding: 67 400 67
GlifName: E_open
Width: 1024
VWidth: 0
GlyphClass: 2
Flags: W
AnchorPoint: "base" 504 -125 basechar 0
AnchorPoint: "top" 938 1613 basechar 0
LayerCount: 2
Fore
SplineSet
518 1542 m 257
 449 860 l 257
 509 859 l 257
 578 1541 l 257
 518 1542 l 257
561 1541 m 257
 506 1481 l 257
 1260 1481 l 257
 1315 1541 l 257
 561 1541 l 257
175 56 m 257
 157 0 l 257
 916 0 l 257
 921 56 l 257
 175 56 l 257
512 861 m 257
 439 801 l 257
 840 801 l 257
 913 861 l 257
 512 861 l 257
379 804 m 257
 97 2 l 257
 156 1 l 257
 439 803 l 257
 379 804 l 257
EndSplineSet
EndChar

StartChar: uni042D
Encoding: 71 1069 71
GlifName: E_reversed-cy
Width: 1024
VWidth: 0
Flags: W
LayerCount: 2
Fore
SplineSet
1068 1550 m 257
 577 1550 l 257
 540 1490 l 257
 1031 1490 l 257
 1068 1550 l 257
1193 836 m 257
 408 836 l 257
 376 776 l 257
 1161 776 l 257
 1193 836 l 257
580 69 m 257
 66 69 l 257
 21 9 l 257
 535 9 l 257
 580 69 l 257
1067 1549 m 257
 1007 1549 l 257
 1147 814 l 257
 1207 814 l 257
 1067 1549 l 257
1205 814 m 257
 1145 814 l 257
 474 8 l 257
 534 8 l 257
 1205 814 l 257
EndSplineSet
EndChar

StartChar: uni01A9
Encoding: 72 425 72
GlifName: E_sh
Width: 1024
VWidth: 0
GlyphClass: 2
Flags: W
LayerCount: 2
Fore
SplineSet
1041.76 928 m 257
 133.294 64 l 257
 104.904 -14 l 257
 1011.19 844 l 257
 1041.76 928 l 257
1041.22 921 m 257
 688.15 1539 l 257
 666.948 1478 l 257
 1012.1 841 l 257
 1041.22 921 l 257
1387.58 1477 m 257
 1409.42 1537 l 257
 687.422 1537 l 257
 665.584 1477 l 257
 1387.58 1477 l 257
788 0 m 257
 809.838 60 l 257
 146.838 60 l 257
 125 0 l 257
 788 0 l 257
EndSplineSet
EndChar

StartChar: Eth
Encoding: 76 208 76
GlifName: E_th
Width: 1024
VWidth: 0
GlyphClass: 2
Flags: W
AnchorPoint: "top" 680 1630 basechar 0
AnchorPoint: "base" 122 -122 basechar 0
LayerCount: 2
Fore
SplineSet
156 935 m 257
 133 873 l 257
 440 873 l 257
 463 935 l 257
 156 935 l 257
488 1553 m 257
 -78 0 l 257
 -17 0 l 257
 549 1553 l 257
 488 1553 l 257
814 1553 m 257
 788 1484 l 257
 1080 964 l 257
 1102 1023 l 257
 814 1553 l 257
278 60 m 257
 256 0 l 257
 1080 964 l 257
 1102 1023 l 257
 278 60 l 257
528 1553 m 257
 502 1484 l 257
 788 1484 l 257
 814 1553 l 257
 528 1553 l 257
-8 60 m 257
 -30 0 l 257
 256 0 l 257
 278 60 l 257
 -8 60 l 257
EndSplineSet
EndChar

StartChar: Euro
Encoding: 78 8364 78
GlifName: E_uro
Width: 1024
VWidth: 0
GlyphClass: 2
Flags: W
LayerCount: 2
Fore
SplineSet
21 520 m 257
 -4 451 l 257
 633 451 l 257
 658 520 l 257
 21 520 l 257
156 856 m 257
 131 788 l 257
 740 788 l 257
 765 856 l 257
 156 856 l 257
472 1023 m 257
 165 179 l 257
 245 179 l 257
 552 1023 l 257
 472 1023 l 257
1012 1633 m 257
 472 1023 l 257
 552 1023 l 257
 1028 1607 l 257
 1012 1633 l 257
165 179 m 257
 296 -406 l 257
 356 -406 l 257
 245 179 l 257
 165 179 l 257
EndSplineSet
EndChar

StartChar: uni01B7
Encoding: 79 439 79
GlifName: E_zh
Width: 1024
VWidth: 0
GlyphClass: 2
Flags: W
LayerCount: 2
Fore
SplineSet
810 0 m 257
 882 60 l 257
 186 60 l 257
 114 0 l 257
 810 0 l 257
882 60 m 257
 1186 889 l 257
 1125 889 l 257
 818 59 l 257
 882 60 l 257
1098 829 m 257
 1172 889 l 257
 498 889 l 257
 424 829 l 257
 1098 829 l 257
683 1544 m 257
 611 1484 l 257
 1439 1484 l 257
 1511 1544 l 257
 683 1544 l 257
1367 1484 m 257
 498 889 l 257
 606 889 l 257
 1439 1484 l 257
 1367 1484 l 257
EndSplineSet
EndChar

StartChar: uni01B8
Encoding: 81 440 81
GlifName: E_zhreversed
Width: 1024
VWidth: 0
GlyphClass: 2
Flags: W
LayerCount: 2
Fore
SplineSet
210 0 m 257
 906 0 l 257
 978 60 l 257
 282 60 l 257
 210 0 l 257
226 39 m 257
 287 39 l 257
 593 889 l 257
 532 889 l 257
 226 39 l 257
507 829 m 257
 1146 829 l 257
 1220 889 l 257
 581 889 l 257
 507 829 l 257
1511 1544 m 257
 683 1544 l 257
 611 1484 l 257
 1439 1484 l 257
 1511 1544 l 257
683 1484 m 257
 611 1484 l 257
 1117 889 l 257
 1225 889 l 257
 683 1484 l 257
EndSplineSet
EndChar

StartChar: F
Encoding: 82 70 82
GlifName: F_
Width: 1024
VWidth: 0
GlyphClass: 2
Flags: W
AnchorPoint: "top" 1003.05 1652 basechar 0
AnchorPoint: "base" 266.055 -71 basechar 0
LayerCount: 2
Fore
SplineSet
671.055 1553 m 257
 106.055 0 l 257
 164.055 0 l 257
 729.055 1553 l 257
 671.055 1553 l 257
729.055 1553 m 257
 709.055 1497 l 257
 1463.05 1497 l 257
 1483.05 1553 l 257
 729.055 1553 l 257
470.055 864 m 257
 449.055 806 l 257
 1039.05 806 l 257
 1060.05 864 l 257
 470.055 864 l 257
EndSplineSet
EndChar

StartChar: G
Encoding: 85 71 85
GlifName: G_
Width: 1024
VWidth: 0
GlyphClass: 2
Flags: W
AnchorPoint: "top" 1013.78 1653 basechar 0
AnchorPoint: "base" 555.775 -50 basechar 0
LayerCount: 2
Fore
SplineSet
671.775 1529 m 257
 114.775 0 l 257
 173.775 0 l 257
 730.775 1529 l 257
 671.775 1529 l 257
724.775 1529 m 257
 702.775 1469 l 257
 1407.78 1469 l 257
 1429.78 1529 l 257
 724.775 1529 l 257
167.775 60 m 257
 145.775 0 l 257
 908.775 0 l 257
 930.775 60 l 257
 167.775 60 l 257
1051.78 561 m 257
 854.775 18 l 257
 915.775 18 l 257
 1112.78 561 l 257
 1051.78 561 l 257
EndSplineSet
EndChar

StartChar: Gamma
Encoding: 86 915 86
GlifName: G_amma
Width: 1024
VWidth: 0
GlyphClass: 2
Flags: W
LayerCount: 2
Fore
SplineSet
688.426 1548 m 257
 666.588 1488 l 257
 1440.59 1488 l 257
 1462.43 1548 l 257
 688.426 1548 l 257
681.871 1519 m 257
 131.184 6 l 257
 191.184 6 l 257
 741.871 1519 l 257
 681.871 1519 l 257
EndSplineSet
EndChar

StartChar: uni0194
Encoding: 87 404 87
GlifName: G_amma_latin
Width: 1024
VWidth: 0
GlyphClass: 2
Flags: W
LayerCount: 2
Fore
SplineSet
880 1543 m 257
 770 -158 l 257
 830 -158 l 257
 940 1543 l 257
 880 1543 l 257
1400 1543 m 257
 292 -158 l 257
 352 -158 l 257
 1461 1543 l 257
 1400 1543 l 257
219 -217 m 257
 757 -218 l 257
 831 -158 l 257
 293 -158 l 257
 219 -217 l 257
EndSplineSet
EndChar

StartChar: uni0490
Encoding: 92 1168 92
GlifName: G_eupturn-cy
Width: 1024
VWidth: 0
Flags: W
LayerCount: 2
Fore
SplineSet
688.426 1548 m 257
 666.588 1488 l 257
 1440.59 1488 l 257
 1462.43 1548 l 257
 688.426 1548 l 257
681.871 1519 m 257
 131.184 6 l 257
 191.184 6 l 257
 741.871 1519 l 257
 681.871 1519 l 257
1560.81326486 1819.68441902 m 257
 1400.2806575 1490.2043497 l 257
 1435.15498255 1490.2043497 l 257
 1595.68758991 1819.68441902 l 257
 1560.81326486 1819.68441902 l 257
EndSplineSet
EndChar

StartChar: H
Encoding: 96 72 96
GlifName: H_
Width: 1024
VWidth: 0
GlyphClass: 2
Flags: W
AnchorPoint: "top" 1005.12 1626 basechar 0
AnchorPoint: "base" 551.123 -54 basechar 0
LayerCount: 2
Fore
SplineSet
679.123 1553 m 257
 114.123 0 l 257
 173.123 0 l 257
 738.123 1553 l 257
 679.123 1553 l 257
1414.12 1553 m 257
 849.123 0 l 257
 910.123 0 l 257
 1475.12 1553 l 257
 1414.12 1553 l 257
492.123 923 m 257
 470.123 864 l 257
 1187.12 864 l 257
 1209.12 923 l 257
 492.123 923 l 257
EndSplineSet
EndChar

StartChar: uni042A
Encoding: 97 1066 97
GlifName: H_ardsign-cy
Width: 1024
VWidth: 0
Flags: W
AnchorPoint: "base" 469.02 -72 basechar 0
AnchorPoint: "top" 746.02 1622 basechar 0
LayerCount: 2
Fore
SplineSet
1002 1545 m 257
 441 0 l 257
 501 0 l 257
 1062 1545 l 257
 1002 1545 l 257
738 808 m 257
 724 747 l 257
 1245 747 l 257
 1260 808 l 257
 738 808 l 257
1247 808 m 257
 871 0 l 257
 931 0 l 257
 1307 808 l 257
 1247 808 l 257
465 60 m 257
 453 0 l 257
 919 0 l 257
 931 60 l 257
 465 60 l 257
596 1545 m 257
 583 1486 l 257
 1037 1486 l 257
 1050 1545 l 257
 596 1545 l 257
EndSplineSet
EndChar

StartChar: Hbar
Encoding: 98 294 98
GlifName: H_bar
Width: 1024
VWidth: 0
GlyphClass: 2
Flags: W
LayerCount: 2
Fore
SplineSet
380 1540 m 257
 -181 0 l 257
 -121 0 l 257
 440 1540 l 257
 380 1540 l 257
1116 1540 m 257
 555 0 l 257
 615 0 l 257
 1176 1540 l 257
 1116 1540 l 257
231 1023 m 257
 208 959 l 257
 920 959 l 257
 943 1023 l 257
 231 1023 l 257
281 1434 m 257
 259 1374 l 257
 1183 1374 l 257
 1205 1434 l 257
 281 1434 l 257
EndSplineSet
EndChar

StartChar: uniA78D
Encoding: 103 42893 103
GlifName: H_turned
Width: 1024
VWidth: 0
GlyphClass: 2
Flags: W
AnchorPoint: "top" 778.092 1631 basechar 0
AnchorPoint: "base" 842 -60 basechar 0
LayerCount: 2
Fore
SplineSet
671 0 m 257
 1224 1519 l 257
 1165 1519 l 257
 612 0 l 257
 671 0 l 257
812 497 m 257
 834 557 l 257
 245 557 l 257
 223 497 l 257
 812 497 l 257
235 497 m 257
 609 1525 l 257
 550 1525 l 257
 176 497 l 257
 235 497 l 257
EndSplineSet
EndChar

StartChar: I
Encoding: 104 73 104
GlifName: I_
Width: 1024
VWidth: 0
GlyphClass: 2
Flags: W
AnchorPoint: "top" 1042.1 1653 basechar 0
AnchorPoint: "base" 496.104 -82 basechar 0
LayerCount: 2
Fore
SplineSet
718.104 1550 m 257
 696.104 1489 l 257
 1397.1 1489 l 257
 1419.1 1550 l 257
 718.104 1550 l 257
1029.1 1515 m 257
 490.104 34 l 257
 549.104 34 l 257
 1088.1 1515 l 257
 1029.1 1515 l 257
158.104 66 m 257
 136.104 6 l 257
 892.104 6 l 257
 914.104 66 l 257
 158.104 66 l 257
EndSplineSet
EndChar

StartChar: uniA7AE
Encoding: 108 42926 108
GlifName: I_capitalsmall
Width: 1024
VWidth: 0
GlyphClass: 2
Flags: W
AnchorPoint: "top" 1069 1631 basechar 0
AnchorPoint: "base" 504 -66 basechar 0
LayerCount: 2
Fore
SplineSet
636 1537 m 257
 621 1477 l 257
 1484 1477 l 257
 1499 1537 l 257
 636 1537 l 257
1014 1506 m 257
 511 33 l 257
 571 33 l 257
 1074 1506 l 257
 1014 1506 l 257
105 60 m 257
 74 0 l 257
 933 0 l 257
 964 60 l 257
 105 60 l 257
109 0 m 257
 249 373 l 257
 188 373 l 257
 52 0 l 257
 109 0 l 257
960 0 m 257
 1100 373 l 257
 1039 373 l 257
 903 0 l 257
 960 0 l 257
538 1165 m 257
 678 1538 l 257
 615 1538 l 257
 479 1165 l 257
 538 1165 l 257
1387 1164 m 257
 1526 1537 l 257
 1463 1537 l 257
 1328 1164 l 257
 1387 1164 l 257
EndSplineSet
EndChar

StartChar: uni0418
Encoding: 114 1048 114
GlifName: I_i-cy
Width: 1024
VWidth: 0
Flags: W
LayerCount: 2
Fore
SplineSet
599 1552 m 257
 34 0 l 257
 94 0 l 257
 659 1552 l 257
 599 1552 l 257
1494 1552 m 257
 929 0 l 257
 989 0 l 257
 1554 1552 l 257
 1494 1552 l 257
1494 1552 m 257
 34 0 l 257
 94 0 l 257
 1555 1552 l 257
 1494 1552 l 257
EndSplineSet
EndChar

StartChar: uni0196
Encoding: 120 406 120
GlifName: I_ota_latin
Width: 1024
VWidth: 0
GlyphClass: 2
Flags: W
AnchorPoint: "top" 718 1659 basechar 0
AnchorPoint: "base" 496.104 -82 basechar 0
LayerCount: 2
Fore
SplineSet
664 1543 m 257
 333 107 l 257
 393 107 l 257
 724 1543 l 257
 664 1543 l 257
356 172 m 257
 332 106 l 257
 792 6 l 257
 816 72 l 257
 356 172 l 257
EndSplineSet
EndChar

StartChar: uni0474
Encoding: 126 1140 126
GlifName: I_zhitsa-cy
Width: 1024
VWidth: 0
Flags: W
AnchorPoint: "top" 983.246 1642 basechar 0
AnchorPoint: "base" 531.246 -78 basechar 0
LayerCount: 2
Fore
SplineSet
671.246 1553 m 257
 514.246 0 l 257
 574.246 0 l 257
 735.246 1553 l 257
 671.246 1553 l 257
1413.25 1553 m 257
 514.246 0 l 257
 574.246 0 l 257
 1483.25 1553 l 257
 1413.25 1553 l 257
1413 1553 m 257
 1557 1550 l 257
 1571 1613 l 257
 1435 1611 l 257
 1413 1553 l 257
EndSplineSet
EndChar

StartChar: J
Encoding: 127 74 127
GlifName: J_
Width: 1024
VWidth: 0
GlyphClass: 2
Flags: W
AnchorPoint: "base" 492.93 -72 basechar 0
AnchorPoint: "top" 1479.93 1625 basechar 0
LayerCount: 2
Fore
SplineSet
1395.93 1527 m 257
 839.93 0 l 257
 899.93 0 l 257
 1455.93 1527 l 257
 1395.93 1527 l 257
145.93 60 m 257
 123.93 0 l 257
 865.93 0 l 257
 887.93 60 l 257
 145.93 60 l 257
306.93 503 m 257
 133.93 27 l 257
 193.93 27 l 257
 366.93 503 l 257
 306.93 503 l 257
EndSplineSet
EndChar

StartChar: K
Encoding: 131 75 131
GlifName: K_
Width: 1024
VWidth: 0
GlyphClass: 2
Flags: W
AnchorPoint: "base" 417.123 -60 basechar 0
AnchorPoint: "top" 1025.12 1642 basechar 0
LayerCount: 2
Fore
SplineSet
737.123 1553 m 257
 174.123 5 l 257
 234.123 5 l 257
 797.123 1553 l 257
 737.123 1553 l 257
599.123 1015 m 257
 574.123 944 l 257
 1382.12 1550 l 257
 1312.12 1550 l 257
 599.123 1015 l 257
570.123 934 m 257
 517.123 844 l 257
 802.123 0 l 257
 852.123 0 l 257
 570.123 934 l 257
EndSplineSet
EndChar

StartChar: uni03CF
Encoding: 132 975 132
GlifName: K_aiS_ymbol
Width: 1024
VWidth: 0
GlyphClass: 2
Flags: W
LayerCount: 2
Fore
SplineSet
463 -351 m 257
 521 -379 l 257
 856 0 l 257
 798 28 l 257
 463 -351 l 257
EndSplineSet
Refer: 131 75 N 1 0 0 1 0 0 2
EndChar

StartChar: uni0198
Encoding: 134 408 134
GlifName: K_hook
Width: 1024
VWidth: 0
GlyphClass: 2
Flags: W
LayerCount: 2
Fore
SplineSet
731 1553 m 257
 174 5 l 257
 234 5 l 257
 791 1553 l 257
 731 1553 l 257
594 1015 m 257
 534 944 l 257
 1375 1550 l 257
 1305 1550 l 257
 594 1015 l 257
520 934 m 257
 444 844 l 257
 802 0 l 257
 852 0 l 257
 520 934 l 257
1717 1694 m 257
 1728 1813 l 257
 1487 1698 l 257
 1478 1579 l 257
 1717 1694 l 257
1573 1728 m 257
 1486 1698 l 257
 1302 1550 l 257
 1375 1550 l 257
 1573 1728 l 257
EndSplineSet
EndChar

StartChar: L
Encoding: 136 76 136
GlifName: L_
Width: 1024
VWidth: 0
GlyphClass: 2
Flags: W
AnchorPoint: "base" 493.123 -80 basechar 0
AnchorPoint: "top" 755.123 1622 basechar 0
LayerCount: 2
Fore
SplineSet
697.123 1553 m 257
 132.123 0 l 257
 192.123 0 l 257
 757.123 1553 l 257
 697.123 1553 l 257
169.123 61 m 257
 147.123 0 l 257
 892.123 0 l 257
 914.123 61 l 257
 169.123 61 l 257
EndSplineSet
EndChar

StartChar: Lambda
Encoding: 139 923 139
GlifName: L_ambda
Width: 1024
VWidth: 0
GlyphClass: 2
Flags: W
LayerCount: 2
Fore
SplineSet
793 0 m 257
 1096.43 1548 l 257
 1023.43 1548 l 257
 740 0 l 257
 793 0 l 257
307 0 m 257
 1095.43 1548 l 257
 1024.43 1548 l 257
 258 0 l 257
 307 0 l 257
EndSplineSet
EndChar

StartChar: Lcaron
Encoding: 140 317 140
GlifName: L_caron
Width: 1024
VWidth: 0
GlyphClass: 2
Flags: W
LayerCount: 2
Fore
SplineSet
584 1542 m 257
 23 0 l 257
 85 0 l 257
 646 1542 l 257
 584 1542 l 257
73 62 m 257
 51 0 l 257
 859 0 l 257
 881 62 l 257
 73 62 l 257
961 1496 m 257
 877 1264 l 257
 917 1264 l 257
 1001 1496 l 257
 961 1496 l 257
EndSplineSet
EndChar

StartChar: uni0409
Encoding: 143 1033 143
GlifName: L_je-cy
Width: 1024
VWidth: 0
Flags: W
LayerCount: 2
Fore
SplineSet
1231 1548 m 257
 663 0 l 257
 723 0 l 257
 1291 1548 l 257
 1231 1548 l 257
847 1548 m 257
 819 1488 l 257
 1251 1488 l 257
 1279 1548 l 257
 847 1548 l 257
846 1548 m 257
 101 0 l 257
 161 0 l 257
 906 1548 l 257
 846 1548 l 257
48 61 m 257
 20 1 l 257
 161 1 l 257
 189 61 l 257
 48 61 l 257
744 60 m 257
 720 0 l 257
 964 0 l 257
 984 60 l 257
 744 60 l 257
1007 780 m 257
 972 720 l 257
 1210 720 l 257
 1245 780 l 257
 1007 780 l 257
903 28 m 257
 963 0 l 257
 1245 780 l 257
 1170 780 l 257
 903 28 l 257
EndSplineSet
EndChar

StartChar: Lslash
Encoding: 145 321 145
GlifName: L_slash
Width: 1024
VWidth: 0
GlyphClass: 2
Flags: W
LayerCount: 2
Fore
SplineSet
644 1542 m 257
 83 0 l 257
 143 0 l 257
 704 1542 l 257
 644 1542 l 257
130 64 m 257
 107 0 l 257
 918 0 l 257
 941 64 l 257
 130 64 l 257
256 902 m 257
 323 866 l 257
 831 1068 l 257
 764 1104 l 257
 256 902 l 257
EndSplineSet
EndChar

StartChar: M
Encoding: 146 77 146
GlifName: M_
Width: 1024
VWidth: 0
GlyphClass: 2
Flags: W
AnchorPoint: "base" 505.123 -48 basechar 0
AnchorPoint: "top" 1015.12 1630 basechar 0
LayerCount: 2
Fore
SplineSet
665.123 1553 m 257
 100.123 0 l 257
 160.123 0 l 257
 725.123 1553 l 257
 665.123 1553 l 257
1427 1564 m 257
 862.123 0 l 257
 924.123 0 l 257
 1489 1564 l 257
 1427 1564 l 257
665.123 1553 m 257
 852.123 1033 l 257
 920.123 1033 l 257
 725.123 1553 l 257
 665.123 1553 l 257
1427 1564 m 257
 852.123 1033 l 257
 920.123 1033 l 257
 1489 1564 l 257
 1427 1564 l 257
EndSplineSet
EndChar

StartChar: uni019C
Encoding: 147 412 147
GlifName: M_turned
Width: 1024
VWidth: 0
GlyphClass: 2
Flags: W
AnchorPoint: "base" 530.298 -108 basechar 0
AnchorPoint: "top" 938.298 1116 basechar 0
LayerCount: 2
Fore
SplineSet
975 30 m 257
 1336 1546 l 257
 1276 1546 l 257
 915 30 l 257
 975 30 l 257
598 51 m 257
 952 1546 l 257
 892 1546 l 257
 538 51 l 257
 598 51 l 257
211 47 m 257
 566 1546 l 257
 506 1546 l 257
 151 47 l 257
 211 47 l 257
1038 0 m 257
 1059 57 l 257
 155 57 l 257
 134 0 l 257
 1038 0 l 257
EndSplineSet
EndChar

StartChar: N
Encoding: 149 78 149
GlifName: N_
Width: 1024
VWidth: 0
GlyphClass: 2
Flags: W
AnchorPoint: "top" 1013.12 1642 basechar 0
AnchorPoint: "base" 541.123 -48 basechar 0
LayerCount: 2
Fore
SplineSet
663.123 1553 m 257
 98.123 0 l 257
 158.123 0 l 257
 723.123 1553 l 257
 663.123 1553 l 257
1431.12 1553 m 257
 866.123 0 l 257
 926.123 0 l 257
 1491.12 1553 l 257
 1431.12 1553 l 257
663.123 1553 m 257
 866.123 0 l 257
 926.123 0 l 257
 723.123 1553 l 257
 663.123 1553 l 257
EndSplineSet
EndChar

StartChar: uni040A
Encoding: 154 1034 154
GlifName: N_je-cy
Width: 1024
VWidth: 0
Flags: W
LayerCount: 2
Fore
SplineSet
596 1545 m 257
 34 0 l 257
 94 0 l 257
 656 1545 l 257
 596 1545 l 257
1043 1545 m 257
 481 0 l 257
 541 0 l 257
 1103 1545 l 257
 1043 1545 l 257
392 828 m 257
 353 764 l 257
 1252 764 l 257
 1291 828 l 257
 392 828 l 257
1265 828 m 257
 929 1 l 257
 989 0 l 257
 1325 827 l 257
 1265 828 l 257
554 66 m 257
 532 0 l 257
 990 0 l 257
 1012 66 l 257
 554 66 l 257
EndSplineSet
EndChar

StartChar: O
Encoding: 158 79 158
GlifName: O_
Width: 1024
VWidth: 0
GlyphClass: 2
Flags: W
AnchorPoint: "top" 1022.12 1658 basechar 0
AnchorPoint: "base" 527 -126 basechar 0
LayerCount: 2
Fore
SplineSet
677.123 1553 m 257
 112.123 0 l 257
 171.123 0 l 257
 736.123 1553 l 257
 677.123 1553 l 257
1418.12 1553 m 257
 853.123 0 l 257
 912.123 0 l 257
 1477.12 1553 l 257
 1418.12 1553 l 257
715.123 1553 m 257
 693.123 1493 l 257
 1425.12 1493 l 257
 1447.12 1553 l 257
 715.123 1553 l 257
174.123 61 m 257
 152.123 0 l 257
 890.123 0 l 257
 912.123 61 l 257
 174.123 61 l 257
EndSplineSet
EndChar

StartChar: OE
Encoding: 159 338 159
GlifName: O_E_
Width: 1024
VWidth: 0
GlyphClass: 2
Flags: W
AnchorPoint: "top" 731 1646 basechar 0
AnchorPoint: "base" 150 -71 basechar 0
LayerCount: 2
Fore
SplineSet
410 1553 m 257
 -156 0 l 257
 -97 0 l 257
 469 1553 l 257
 410 1553 l 257
874 1553 m 257
 308 0 l 257
 367 0 l 257
 933 1553 l 257
 874 1553 l 257
448 1553 m 257
 426 1493 l 257
 1158 1493 l 257
 1180 1553 l 257
 448 1553 l 257
-93 61 m 257
 -116 0 l 257
 622 0 l 257
 645 61 l 257
 -93 61 l 257
653 859 m 257
 631 798 l 257
 854 798 l 257
 876 859 l 257
 653 859 l 257
EndSplineSet
EndChar

StartChar: uni019F
Encoding: 161 415 161
GlifName: O_barred
Width: 1024
VWidth: 0
GlyphClass: 2
Flags: W
AnchorPoint: "top" 1105 1710 basechar 0
AnchorPoint: "base" 527 -126 basechar 0
LayerCount: 2
Fore
SplineSet
677.123 1553 m 257
 112.123 0 l 257
 171.123 0 l 257
 736.123 1553 l 257
 677.123 1553 l 257
1418.12 1553 m 257
 853.123 0 l 257
 912.123 0 l 257
 1477.12 1553 l 257
 1418.12 1553 l 257
715.123 1553 m 257
 693.123 1493 l 257
 1425.12 1493 l 257
 1447.12 1553 l 257
 715.123 1553 l 257
174.123 61 m 257
 152.123 0 l 257
 890.123 0 l 257
 912.123 61 l 257
 174.123 61 l 257
419.822518 797 m 257
 386.030974 737 l 257
 1161.359178 737 l 257
 1195.150722 797 l 257
 419.822518 797 l 257
EndSplineSet
EndChar

StartChar: uniA7B6
Encoding: 171 42934 171
GlifName: O_mega_latin
Width: 1024
VWidth: 0
GlyphClass: 2
Flags: W
AnchorPoint: "base" 487.996 -136 basechar 0
AnchorPoint: "top" 1091 1583 basechar 0
LayerCount: 2
Fore
SplineSet
645 1548 m 257
 82 0 l 257
 142 0 l 257
 705 1548 l 257
 645 1548 l 257
1480 1548 m 257
 917 0 l 257
 977 0 l 257
 1543 1549 l 257
 1480 1548 l 257
742 669 m 257
 552 146 l 257
 612 146 l 257
 802 669 l 257
 742 669 l 257
164 60 m 257
 142 0 l 257
 552 146 l 257
 574 206 l 257
 164 60 l 257
633 206 m 257
 612 146 l 257
 917 1 l 257
 938 61 l 257
 633 206 l 257
676 1548 m 257
 648 1488 l 257
 948 1488 l 257
 976 1548 l 257
 676 1548 l 257
1200 1548 m 257
 1150 1488 l 257
 1492 1488 l 257
 1542 1548 l 257
 1200 1548 l 257
EndSplineSet
EndChar

StartChar: Oslash
Encoding: 177 216 177
GlifName: O_slash
Width: 1024
VWidth: 0
GlyphClass: 2
Flags: W
AnchorPoint: "top" 1085 1662 basechar 0
AnchorPoint: "base" 501 -64 basechar 0
LayerCount: 2
Fore
SplineSet
1503 1636 m 257
 62 -42 l 257
 92 -69 l 257
 1544 1594 l 257
 1503 1636 l 257
678 1546 m 257
 118 6 l 257
 178 6 l 257
 738 1546 l 257
 678 1546 l 257
1418 1543 m 257
 859 6 l 257
 918 6 l 257
 1477 1543 l 257
 1418 1543 l 257
708 1544 m 257
 686 1484 l 257
 1426 1484 l 257
 1448 1544 l 257
 708 1544 l 257
185 81 m 257
 158 6 l 257
 859 6 l 257
 886 81 l 257
 185 81 l 257
EndSplineSet
EndChar

StartChar: P
Encoding: 180 80 180
GlifName: P_
Width: 1024
VWidth: 0
GlyphClass: 2
Flags: W
AnchorPoint: "base" 148.959 -80 basechar 0
AnchorPoint: "top" 1016.96 1634 basechar 0
LayerCount: 2
Fore
SplineSet
690.959 1535 m 257
 131.959 0 l 257
 190.959 0 l 257
 749.959 1535 l 257
 690.959 1535 l 257
695.959 1550 m 257
 667.959 1472 l 257
 1427.96 1472 l 257
 1455.96 1550 l 257
 695.959 1550 l 257
1389.96 1536 m 257
 1147.96 872 l 257
 1208.96 872 l 257
 1450.96 1536 l 257
 1389.96 1536 l 257
515.959 931 m 257
 493.959 871 l 257
 1180.96 871 l 257
 1202.96 931 l 257
 515.959 931 l 257
EndSplineSet
EndChar

StartChar: Phi
Encoding: 182 934 182
GlifName: P_hi
Width: 1024
VWidth: 0
GlyphClass: 2
Flags: W
LayerCount: 2
Fore
SplineSet
1054.88 1541 m 257
 498.731 13 l 257
 558.731 13 l 257
 1114.88 1541 l 257
 1054.88 1541 l 257
609.731 1373 m 257
 169.327 163 l 257
 230.327 163 l 257
 670.731 1373 l 257
 609.731 1373 l 257
1349.73 1373 m 257
 909.327 163 l 257
 969.327 163 l 257
 1409.73 1373 l 257
 1349.73 1373 l 257
645.731 1373 m 257
 623.893 1313 l 257
 1359.89 1313 l 257
 1381.73 1373 l 257
 645.731 1373 l 257
231.165 223 m 257
 209.327 163 l 257
 929.327 163 l 257
 951.165 223 l 257
 231.165 223 l 257
EndSplineSet
EndChar

StartChar: uni01A4
Encoding: 183 420 183
GlifName: P_hook
Width: 1024
VWidth: 0
GlyphClass: 2
Flags: W
AnchorPoint: "base" 289.959 -80 basechar 0
AnchorPoint: "top" 1157.96 1634 basechar 0
LayerCount: 2
Fore
SplineSet
831.959 1535 m 257
 272.959 0 l 257
 331.959 0 l 257
 890.959 1535 l 257
 831.959 1535 l 257
836.959 1550 m 257
 808.959 1472 l 257
 1568.96 1472 l 257
 1596.96 1550 l 257
 836.959 1550 l 257
1530.96 1536 m 257
 1288.96 872 l 257
 1349.96 872 l 257
 1591.96 1536 l 257
 1530.96 1536 l 257
656.959 931 m 257
 634.959 871 l 257
 1321.96 871 l 257
 1343.96 931 l 257
 656.959 931 l 257
605.2 1425.84 m 257
 771.698 1442.91 l 257
 711.808 1565.01 l 257
 545.31 1547.95 l 257
 605.2 1425.84 l 257
616.987 1504.6 m 257
 883.444 1492.72 l 257
 912.905 1543.93 l 257
 710.446 1561.58 l 257
 616.987 1504.6 l 257
EndSplineSet
EndChar

StartChar: Pi
Encoding: 184 928 184
GlifName: P_i
Width: 1024
VWidth: 0
GlyphClass: 2
Flags: W
LayerCount: 2
Fore
SplineSet
669.422 1537 m 257
 110 0 l 257
 170 0 l 257
 729.422 1537 l 257
 669.422 1537 l 257
1407.69 1535 m 257
 848.272 -2 l 257
 910 0 l 257
 1469.42 1537 l 257
 1407.69 1535 l 257
669.422 1537 m 257
 647.584 1477 l 257
 1446.58 1477 l 257
 1468.42 1537 l 257
 669.422 1537 l 257
EndSplineSet
EndChar

StartChar: Psi
Encoding: 185 936 185
GlifName: P_si
Width: 1024
VWidth: 0
GlyphClass: 2
Flags: W
LayerCount: 2
Fore
SplineSet
943.786 1266 m 257
 483 0 l 257
 543 0 l 257
 1003.79 1266 l 257
 943.786 1266 l 257
723.426 1548 m 257
 453.36 806 l 257
 513.36 806 l 257
 783.426 1548 l 257
 723.426 1548 l 257
1366.7 1546 m 257
 1096.63 804 l 257
 1157.36 806 l 257
 1427.43 1548 l 257
 1366.7 1546 l 257
491.198 866 m 257
 469.36 806 l 257
 1143.36 806 l 257
 1165.2 866 l 257
 491.198 866 l 257
EndSplineSet
EndChar

StartChar: Q
Encoding: 187 81 187
GlifName: Q_
Width: 1024
VWidth: 0
GlyphClass: 2
Flags: W
VStem: 648 76
AnchorPoint: "base" 499.123 -41 basechar 0
AnchorPoint: "top" 1066.12 1652 basechar 0
LayerCount: 2
Fore
SplineSet
677.123 1553 m 257
 112.123 0 l 257
 170.123 0 l 257
 735.123 1553 l 257
 677.123 1553 l 257
1419.12 1553 m 257
 854.123 0 l 257
 912.123 0 l 257
 1477.12 1553 l 257
 1419.12 1553 l 257
717.123 1553 m 257
 696.123 1496 l 257
 1406.12 1496 l 257
 1427.12 1553 l 257
 717.123 1553 l 257
175.123 62 m 257
 152.123 0 l 257
 864.123 0 l 257
 887.123 62 l 257
 175.123 62 l 257
621.123 13 m 257
 648.123 -204 l 257
 724.123 -165 l 257
 683.123 52 l 257
 621.123 13 l 257
EndSplineSet
PickledDataWithLists: "(dp0
Vcom.fontlab.hintData
p1
(dp2
Vvhints
p3
(lp4
(dp5
Vposition
p6
I648
sVwidth
p7
I76
sass."
EndChar

StartChar: R
Encoding: 188 82 188
GlifName: R_
Width: 1024
VWidth: 0
GlyphClass: 2
Flags: W
HStem: 868 7<732.077 732.077 732.077 790.077>
VStem: 846 56
AnchorPoint: "base" 469.077 -36 basechar 0
AnchorPoint: "top" 1024.08 1634 basechar 0
LayerCount: 2
Fore
SplineSet
686.077 1550 m 257
 122.077 0 l 257
 182.077 0 l 257
 746.077 1550 l 257
 686.077 1550 l 257
728.077 1550 m 257
 707.077 1491 l 257
 1399.08 1491 l 257
 1420.08 1550 l 257
 728.077 1550 l 257
1386.08 1550 m 257
 1139.08 872 l 257
 1201.08 872 l 257
 1448.08 1550 l 257
 1386.08 1550 l 257
490.077 929 m 257
 468.077 868 l 257
 1188.08 868 l 257
 1210.08 929 l 257
 490.077 929 l 257
732.077 875 m 257
 846.077 0 l 257
 902.077 0 l 257
 790.077 875 l 257
 732.077 875 l 257
EndSplineSet
PickledDataWithLists: "(dp0
Vcom.fontlab.hintData
p1
(dp2
Vhhints
p3
(lp4
(dp5
Vposition
p6
I868
sVwidth
p7
I7
sasVvhints
p8
(lp9
(dp10
g6
I846
sg7
I56
sass."
EndChar

StartChar: S
Encoding: 196 83 196
GlifName: S_
Width: 1024
VWidth: 0
GlyphClass: 2
Flags: W
AnchorPoint: "top" 994.123 1638 basechar 0
AnchorPoint: "base" 546.123 -54 basechar 0
LayerCount: 2
Fore
SplineSet
691.123 1553 m 257
 670.123 1494 l 257
 1268.12 1494 l 257
 1289.12 1553 l 257
 691.123 1553 l 257
687.123 1542 m 257
 500.123 1028 l 257
 559.123 1028 l 257
 746.123 1542 l 257
 687.123 1542 l 257
176.123 60 m 257
 154.123 0 l 257
 862.123 0 l 257
 884.123 60 l 257
 176.123 60 l 257
839.123 0 m 257
 898.123 0 l 257
 1027.12 355 l 257
 968.123 355 l 257
 839.123 0 l 257
500.123 1028 m 257
 968.123 355 l 257
 1027.12 355 l 257
 559.123 1028 l 257
 500.123 1028 l 257
EndSplineSet
EndChar

StartChar: uniA78B
Encoding: 198 42891 198
GlifName: S_altillo
Width: 1024
VWidth: 0
GlyphClass: 2
Flags: W
LayerCount: 2
Fore
SplineSet
781 1458 m 257
 500 454 l 257
 553 449 l 257
 1004 1458 l 257
 781 1458 l 257
EndSplineSet
EndChar

StartChar: uni0428
Encoding: 202 1064 202
GlifName: S_ha-cy
Width: 1024
VWidth: 0
Flags: W
LayerCount: 2
Fore
SplineSet
696 1548 m 257
 134 -1 l 257
 194 -1 l 257
 756 1548 l 257
 696 1548 l 257
1409 1553 m 257
 843 0 l 257
 903 0 l 257
 1469 1553 l 257
 1409 1553 l 257
214 60 m 257
 183 0 l 257
 945 0 l 257
 976 60 l 257
 214 60 l 257
1033 1545 m 257
 471 2 l 257
 531 2 l 257
 1093 1545 l 257
 1033 1545 l 257
EndSplineSet
EndChar

StartChar: uni0429
Encoding: 203 1065 203
GlifName: S_hcha-cy
Width: 1024
VWidth: 0
Flags: W
LayerCount: 2
Fore
SplineSet
599 1548 m 257
 37 -1 l 257
 97 -1 l 257
 659 1548 l 257
 599 1548 l 257
1312 1553 m 257
 746 0 l 257
 806 0 l 257
 1372 1553 l 257
 1312 1553 l 257
117 60 m 257
 86 0 l 257
 848 0 l 257
 879 60 l 257
 117 60 l 257
874 67 m 257
 656 -401 l 257
 716 -401 l 257
 934 67 l 257
 874 67 l 257
936 1545 m 257
 374 2 l 257
 434 2 l 257
 996 1545 l 257
 936 1545 l 257
EndSplineSet
EndChar

StartChar: Sigma
Encoding: 204 931 204
GlifName: S_igma
Width: 1024
VWidth: 0
GlyphClass: 2
Flags: W
LayerCount: 2
Fore
SplineSet
1041.76 928 m 257
 133.294 64 l 257
 104.904 -14 l 257
 1011.19 844 l 257
 1041.76 928 l 257
1041.22 921 m 257
 688.15 1539 l 257
 666.948 1478 l 257
 1012.1 841 l 257
 1041.22 921 l 257
1387.58 1477 m 257
 1409.42 1537 l 257
 687.422 1537 l 257
 665.584 1477 l 257
 1387.58 1477 l 257
788 0 m 257
 809.838 60 l 257
 146.838 60 l 257
 125 0 l 257
 788 0 l 257
EndSplineSet
EndChar

StartChar: uni042C
Encoding: 205 1068 205
GlifName: S_oftsign-cy
Width: 1024
VWidth: 0
Flags: W
AnchorPoint: "base" 469.02 -72 basechar 0
AnchorPoint: "top" 746.02 1622 basechar 0
LayerCount: 2
Fore
SplineSet
606 1536 m 257
 47 0 l 257
 107 0 l 257
 666 1536 l 257
 606 1536 l 257
370 808 m 257
 345 747 l 257
 1235 747 l 257
 1260 808 l 257
 370 808 l 257
1247 808 m 257
 871 0 l 257
 931 0 l 257
 1307 808 l 257
 1247 808 l 257
104 60 m 257
 82 0 l 257
 909 0 l 257
 931 60 l 257
 104 60 l 257
EndSplineSet
EndChar

StartChar: T
Encoding: 206 84 206
GlifName: T_
Width: 1024
VWidth: 0
GlyphClass: 2
Flags: W
AnchorPoint: "top" 1067.01 1634 basechar 0
AnchorPoint: "base" 491.009 -70 basechar 0
LayerCount: 2
Fore
SplineSet
685.009 1553 m 257
 664.009 1494 l 257
 1448.01 1494 l 257
 1469.01 1553 l 257
 685.009 1553 l 257
1034.01 1512 m 257
 488.009 12 l 257
 546.009 12 l 257
 1092.01 1512 l 257
 1034.01 1512 l 257
EndSplineSet
EndChar

StartChar: Theta
Encoding: 211 920 211
GlifName: T_heta
Width: 1024
VWidth: 0
GlyphClass: 2
Flags: W
LayerCount: 2
Fore
SplineSet
703.386 883 m 257
 681.548 823 l 257
 969.548 823 l 257
 991.386 883 l 257
 703.386 883 l 257
669.422 1537 m 257
 110 0 l 257
 170 0 l 257
 729.422 1537 l 257
 669.422 1537 l 257
1409.42 1537 m 257
 850 0 l 257
 910 0 l 257
 1469.42 1537 l 257
 1409.42 1537 l 257
709.422 1537 m 257
 687.584 1477 l 257
 1412.58 1477 l 257
 1434.42 1537 l 257
 709.422 1537 l 257
171.838 60 m 257
 150 0 l 257
 889 0 l 257
 910.838 60 l 257
 171.838 60 l 257
EndSplineSet
EndChar

StartChar: uni01AC
Encoding: 212 428 212
GlifName: T_hook
Width: 1024
VWidth: 0
GlyphClass: 2
Flags: W
AnchorPoint: "top" 1175.01 1634 basechar 0
AnchorPoint: "base" 599.009 -70 basechar 0
LayerCount: 2
Fore
SplineSet
793.009 1553 m 257
 772.009 1494 l 257
 1556.01 1494 l 257
 1577.01 1553 l 257
 793.009 1553 l 257
1142.01 1512 m 257
 596.009 12 l 257
 654.009 12 l 257
 1200.01 1512 l 257
 1142.01 1512 l 257
959.853 1548.58 m 257
 494.352 1557.47 l 257
 519.058 1503.89 l 257
 982.742 1494.16 l 257
 959.853 1548.58 l 257
494.352 1557.47 m 257
 618.299 1288.67 l 257
 703.353 1247.5 l 257
 579.406 1516.3 l 257
 494.352 1557.47 l 257
EndSplineSet
EndChar

StartChar: Thorn
Encoding: 213 222 213
GlifName: T_horn
Width: 1024
VWidth: 0
GlyphClass: 2
Flags: W
AnchorPoint: "base" 132 -72 basechar 0
AnchorPoint: "top" 772 1678 basechar 0
LayerCount: 2
Fore
SplineSet
697 1542 m 257
 139 9 l 257
 199 9 l 257
 757 1542 l 257
 697 1542 l 257
635 1240 m 257
 615 1187 l 257
 1303 1187 l 257
 1323 1240 l 257
 635 1240 l 257
1283 1242 m 257
 1025 531 l 257
 1085 531 l 257
 1343 1242 l 257
 1283 1242 l 257
401 544 m 257
 379 484 l 257
 1065 484 l 257
 1087 544 l 257
 401 544 l 257
EndSplineSet
EndChar

StartChar: uni01AE
Encoding: 215 430 215
GlifName: T_retroflexhook
Width: 1024
VWidth: 0
GlyphClass: 2
Flags: W
AnchorPoint: "top" 1067.01 1634 basechar 0
AnchorPoint: "base" 491.009 -70 basechar 0
LayerCount: 2
Fore
SplineSet
685.009 1553 m 257
 664.009 1494 l 257
 1448.01 1494 l 257
 1469.01 1553 l 257
 685.009 1553 l 257
1034.01 1512 m 257
 488.009 12 l 257
 546.009 12 l 257
 1092.01 1512 l 257
 1034.01 1512 l 257
562 219 m 257
 359 -200 l 257
 418 -200 l 257
 621 217 l 257
 562 219 l 257
359 -200 m 257
 655 -200 l 257
 728 -140 l 257
 432 -140 l 257
 359 -200 l 257
EndSplineSet
EndChar

StartChar: uni0426
Encoding: 216 1062 216
GlifName: T_se-cy
Width: 1024
VWidth: 0
Flags: W
LayerCount: 2
Fore
SplineSet
599 1548 m 257
 36 3 l 257
 96 3 l 257
 659 1548 l 257
 599 1548 l 257
1312 1553 m 257
 746 0 l 257
 806 0 l 257
 1372 1553 l 257
 1312 1553 l 257
117 60 m 257
 86 0 l 257
 848 0 l 257
 879 60 l 257
 117 60 l 257
874 67 m 257
 656 -401 l 257
 716 -401 l 257
 934 67 l 257
 874 67 l 257
EndSplineSet
EndChar

StartChar: uni040B
Encoding: 217 1035 217
GlifName: T_she-cy
Width: 1024
VWidth: 0
Flags: W
LayerCount: 2
Fore
SplineSet
616 1548 m 257
 573 1488 l 257
 1361 1488 l 257
 1404 1548 l 257
 616 1548 l 257
869 1544 m 257
 307 -1 l 257
 367 -1 l 257
 929 1544 l 257
 869 1544 l 257
682 994 m 257
 658 934 l 257
 1271 934 l 257
 1295 994 l 257
 682 994 l 257
1233 989 m 257
 873 0 l 257
 933 0 l 257
 1293 989 l 257
 1233 989 l 257
EndSplineSet
EndChar

StartChar: U
Encoding: 218 85 218
GlifName: U_
Width: 1024
VWidth: 0
GlyphClass: 2
Flags: W
AnchorPoint: "top" 1043.12 1626 basechar 0
AnchorPoint: "base" 519.123 -122 basechar 0
LayerCount: 2
Fore
SplineSet
722.123 1553 m 257
 157.123 0 l 257
 219.123 0 l 257
 784.123 1553 l 257
 722.123 1553 l 257
1372.12 1553 m 257
 807.123 0 l 257
 867.123 0 l 257
 1432.12 1553 l 257
 1372.12 1553 l 257
226.123 61 m 257
 204.123 0 l 257
 824.123 0 l 257
 846.123 61 l 257
 226.123 61 l 257
EndSplineSet
EndChar

StartChar: uni0423
Encoding: 219 1059 219
GlifName: U_-cy
Width: 1024
VWidth: 0
Flags: W
AnchorPoint: "top" 898.285 1091 basechar 0
AnchorPoint: "base" 419.285 -455 basechar 0
LayerCount: 2
Fore
SplineSet
1189 1427 m 257
 669 -2 l 257
 729 -2 l 257
 1249 1427 l 257
 1189 1427 l 257
19 53 m 257
 -1 -2 l 257
 716 -2 l 257
 736 53 l 257
 19 53 l 257
519 1427 m 257
 243 668 l 257
 303 668 l 257
 579 1427 l 257
 519 1427 l 257
265 728 m 257
 243 668 l 257
 933 668 l 257
 955 728 l 257
 265 728 l 257
EndSplineSet
EndChar

StartChar: uni01B1
Encoding: 231 433 231
GlifName: U_psilon_latin
Width: 1024
VWidth: 0
GlyphClass: 2
Flags: W
AnchorPoint: "top" 983 1632 basechar 0
LayerCount: 2
Fore
SplineSet
686 1455 m 257
 153 0 l 257
 213 0 l 257
 746 1455 l 257
 686 1455 l 257
1125 1455 m 257
 871 0 l 257
 931 0 l 257
 1185 1455 l 257
 1125 1455 l 257
224 56 m 257
 200 0 l 257
 881 0 l 257
 908 63 l 257
 224 56 l 257
1161 1455 m 257
 1125 1395 l 257
 1356 1395 l 257
 1392 1455 l 257
 1161 1455 l 257
475 1455 m 257
 441 1395 l 257
 679 1395 l 257
 713 1455 l 257
 475 1455 l 257
EndSplineSet
EndChar

StartChar: V
Encoding: 238 86 238
GlifName: V_
Width: 1024
VWidth: 0
GlyphClass: 2
Flags: W
VStem: 671 64
AnchorPoint: "top" 983.246 1642 basechar 0
AnchorPoint: "base" 531.246 -78 basechar 0
LayerCount: 2
Fore
SplineSet
671.246 1553 m 257
 514.246 0 l 257
 574.246 0 l 257
 735.246 1553 l 257
 671.246 1553 l 257
1413.25 1553 m 257
 514.246 0 l 257
 574.246 0 l 257
 1483.25 1553 l 257
 1413.25 1553 l 257
EndSplineSet
PickledDataWithLists: "(dp0
Vcom.fontlab.hintData
p1
(dp2
Vvhints
p3
(lp4
(dp5
Vposition
p6
I671
sVwidth
p7
I64
sass."
EndChar

StartChar: uni01B2
Encoding: 239 434 239
GlifName: V_hook
Width: 1024
VWidth: 0
GlyphClass: 2
Flags: W
AnchorPoint: "top" 930.171 1128 basechar 0
AnchorPoint: "base" 521.171 -50 basechar 0
LayerCount: 2
Fore
SplineSet
475 1623 m 257
 103.171 0 l 257
 162.171 0 l 257
 534 1623 l 257
 475 1623 l 257
1232 1623 m 257
 860.171 0 l 257
 921.171 0 l 257
 1293 1623 l 257
 1232 1623 l 257
895 1623 m 257
 875 1567 l 257
 1217 1567 l 257
 1237 1623 l 257
 895 1623 l 257
171.171 62 m 257
 149.171 0 l 257
 868.171 0 l 257
 890.171 62 l 257
 171.171 62 l 257
EndSplineSet
EndChar

StartChar: W
Encoding: 241 87 241
GlifName: W_
Width: 1024
VWidth: 0
GlyphClass: 2
Flags: W
AnchorPoint: "base" 487.996 -136 basechar 0
AnchorPoint: "top" 1091 1583 basechar 0
LayerCount: 2
Fore
SplineSet
666.996 1550 m 257
 102.996 0 l 257
 162.996 0 l 257
 726.996 1550 l 257
 666.996 1550 l 257
1419 1533 m 257
 864.996 12 l 257
 924.996 12 l 257
 1479 1533 l 257
 1419 1533 l 257
855.996 1028 m 257
 481.996 0 l 257
 541.996 0 l 257
 915.996 1028 l 257
 855.996 1028 l 257
132.996 60 m 257
 110.996 0 l 257
 920.996 0 l 257
 942.996 60 l 257
 132.996 60 l 257
EndSplineSet
EndChar

StartChar: X
Encoding: 247 88 247
GlifName: X_
Width: 1024
VWidth: 0
GlyphClass: 2
Flags: W
AnchorPoint: "top" 1025.12 1623 basechar 0
AnchorPoint: "base" 486.123 -32 basechar 0
LayerCount: 2
Fore
SplineSet
619.123 1553 m 257
 896.123 0 l 257
 970.123 0 l 257
 691.123 1553 l 257
 619.123 1553 l 257
70.123 0 m 257
 128.123 0 l 257
 1439.12 1553 l 257
 1363.12 1553 l 257
 70.123 0 l 257
EndSplineSet
EndChar

StartChar: Xi
Encoding: 248 926 248
GlifName: X_i
Width: 1024
VWidth: 0
GlyphClass: 2
Flags: W
LayerCount: 2
Fore
SplineSet
496.044 948 m 257
 474.206 888 l 257
 1194.21 888 l 257
 1216.04 948 l 257
 496.044 948 l 257
660.426 1548 m 257
 638.224 1487 l 257
 1472.22 1487 l 257
 1494.43 1548 l 257
 660.426 1548 l 257
119.838 60 m 257
 98 0 l 257
 926 0 l 257
 947.838 60 l 257
 119.838 60 l 257
EndSplineSet
EndChar

StartChar: Y
Encoding: 249 89 249
GlifName: Y_
Width: 1024
VWidth: 0
GlyphClass: 2
Flags: W
AnchorPoint: "top" 1075.9 1626 basechar 0
AnchorPoint: "base" 507.902 -74 basechar 0
LayerCount: 2
Fore
SplineSet
805.902 895 m 257
 479.902 0 l 257
 538.902 0 l 257
 864.902 895 l 257
 805.902 895 l 257
734.902 1550 m 257
 483.902 859 l 257
 544.902 859 l 257
 795.902 1550 l 257
 734.902 1550 l 257
1351.9 1536 m 257
 1105.9 859 l 257
 1165.9 859 l 257
 1411.9 1536 l 257
 1351.9 1536 l 257
550.902 919 m 257
 529.902 859 l 257
 1138.9 859 l 257
 1159.9 919 l 257
 550.902 919 l 257
EndSplineSet
EndChar

StartChar: uni042F
Encoding: 250 1071 250
GlifName: Y_a-cy
Width: 1024
VWidth: 0
Flags: W
AnchorPoint: "base" 510 -28 basechar 0
AnchorPoint: "top" 480 1642 basechar 0
LayerCount: 2
Fore
SplineSet
1461 1550 m 257
 902 0 l 257
 842 0 l 257
 1401 1550 l 257
 1461 1550 l 257
1419 1550 m 257
 1379 1491 l 257
 687 1491 l 257
 727 1550 l 257
 1419 1550 l 257
761 1550 m 257
 519 872 l 257
 457 872 l 257
 699 1550 l 257
 761 1550 l 257
1232 929 m 257
 1188 868 l 257
 468 868 l 257
 512 929 l 257
 1232 929 l 257
928 875 m 257
 178 0 l 257
 122 0 l 257
 869 875 l 257
 928 875 l 257
EndSplineSet
EndChar

StartChar: uni0462
Encoding: 252 1122 252
GlifName: Y_at-cy
Width: 1024
VWidth: 0
Flags: W
AnchorPoint: "base" 469.02 -72 basechar 0
AnchorPoint: "top" 746.02 1622 basechar 0
LayerCount: 2
Fore
SplineSet
1002 1545 m 257
 441 0 l 257
 501 0 l 257
 1062 1545 l 257
 1002 1545 l 257
738 808 m 257
 724 747 l 257
 1245 747 l 257
 1260 808 l 257
 738 808 l 257
1247 808 m 257
 871 0 l 257
 931 0 l 257
 1307 808 l 257
 1247 808 l 257
465 60 m 257
 453 0 l 257
 919 0 l 257
 931 60 l 257
 465 60 l 257
575 1281 m 257
 553 1222 l 257
 1313 1222 l 257
 1335 1281 l 257
 575 1281 l 257
EndSplineSet
EndChar

StartChar: uni042B
Encoding: 255 1067 255
GlifName: Y_eru-cy
Width: 1024
VWidth: 0
Flags: W
AnchorPoint: "base" 469.02 -72 basechar 0
AnchorPoint: "top" 746.02 1622 basechar 0
LayerCount: 2
Fore
SplineSet
606 1536 m 257
 47 0 l 257
 107 0 l 257
 666 1536 l 257
 606 1536 l 257
370 808 m 257
 345 747 l 257
 972 747 l 257
 997 808 l 257
 370 808 l 257
984 808 m 257
 691 0 l 257
 751 0 l 257
 1044 808 l 257
 984 808 l 257
104 60 m 257
 82 0 l 257
 729 0 l 257
 751 60 l 257
 104 60 l 257
1459 1519 m 257
 900 -17 l 257
 960 -17 l 257
 1519 1519 l 257
 1459 1519 l 257
EndSplineSet
EndChar

StartChar: uni042E
Encoding: 258 1070 258
GlifName: Y_u-cy
Width: 1024
VWidth: 0
Flags: W
AnchorPoint: "top" 1136.71 1630 basechar 0
AnchorPoint: "base" 1072 -149 basechar 0
LayerCount: 2
Fore
SplineSet
929 1553 m 257
 369 0 l 257
 428 0 l 257
 988 1553 l 257
 929 1553 l 257
1331 1553 m 257
 771 0 l 257
 830 0 l 257
 1390 1553 l 257
 1331 1553 l 257
900 1553 m 257
 867 1484 l 257
 1327 1484 l 257
 1360 1553 l 257
 900 1553 l 257
441 61 m 257
 370 0 l 257
 811 0 l 257
 883 61 l 257
 441 61 l 257
612 1556 m 257
 52 3 l 257
 111 3 l 257
 671 1556 l 257
 612 1556 l 257
410 916 m 257
 385 856 l 257
 721 858 l 257
 747 918 l 257
 410 916 l 257
EndSplineSet
EndChar

StartChar: Z
Encoding: 259 90 259
GlifName: Z_
Width: 1024
VWidth: 0
GlyphClass: 2
Flags: W
AnchorPoint: "top" 1060.92 1646 basechar 0
AnchorPoint: "base" 656.917 -50 basechar 0
LayerCount: 2
Fore
SplineSet
661.917 1550 m 257
 640.917 1491 l 257
 1468.92 1491 l 257
 1489.92 1550 l 257
 661.917 1550 l 257
120.917 60 m 257
 98.917 0 l 257
 925.917 0 l 257
 947.917 60 l 257
 120.917 60 l 257
1408.92 1491 m 257
 120.917 60 l 257
 180.917 60 l 257
 1468.92 1491 l 257
 1408.92 1491 l 257
EndSplineSet
EndChar

StartChar: uni0417
Encoding: 263 1047 263
GlifName: Z_e-cy
Width: 1024
VWidth: 0
Flags: W
LayerCount: 2
Fore
SplineSet
662 1547 m 257
 639 1487 l 257
 1465 1487 l 257
 1488 1547 l 257
 662 1547 l 257
662 1547 m 257
 539 1211 l 257
 599 1211 l 257
 722 1547 l 257
 662 1547 l 257
1424 1535 m 257
 1181 819 l 257
 1241 819 l 257
 1484 1535 l 257
 1424 1535 l 257
1124 763 m 257
 868 7 l 257
 928 7 l 257
 1184 763 l 257
 1124 763 l 257
122 60 m 257
 102 0 l 257
 921 0 l 257
 941 60 l 257
 122 60 l 257
242 395 m 257
 98 0 l 257
 158 0 l 257
 302 395 l 257
 242 395 l 257
568 822 m 257
 495 762 l 257
 1125 762 l 257
 1198 822 l 257
 568 822 l 257
EndSplineSet
EndChar

StartChar: uni0416
Encoding: 265 1046 265
GlifName: Z_he-cy
Width: 1024
VWidth: 0
Flags: W
AnchorPoint: "base" 494 -39 basechar 0
AnchorPoint: "top" 189 1633 basechar 0
LayerCount: 2
Fore
SplineSet
1072 1553 m 257
 515 5 l 257
 575 5 l 257
 1132 1553 l 257
 1072 1553 l 257
883 1015 m 257
 879 950 l 257
 1720 1556 l 257
 1594 1550 l 257
 883 1015 l 257
871 874 m 257
 817 838 l 257
 1047 -2 l 257
 1098 2 l 257
 871 874 l 257
897 1012 m 257
 572 1547 l 257
 534 1550 l 257
 869 944 l 257
 897 1012 l 257
855 934 m 257
 -57 0 l 257
 -7 0 l 257
 819 844 l 257
 855 934 l 257
EndSplineSet
EndChar

StartChar: a
Encoding: 266 97 266
GlifName: a
Width: 1024
VWidth: 0
GlyphClass: 2
Flags: W
AnchorPoint: "top" 888.16 1116 basechar 0
AnchorPoint: "base" 525.16 -74 basechar 0
LayerCount: 2
Fore
SplineSet
541.16 1024 m 257
 516.16 957 l 257
 1165.16 957 l 257
 1189.16 1023 l 257
 541.16 1024 l 257
1151.16 1023 m 257
 779.16 0 l 257
 856.16 0 l 257
 1228.16 1023 l 257
 1151.16 1023 l 257
389.16 600 m 257
 367.16 538 l 257
 991.16 538 l 257
 1013.16 600 l 257
 389.16 600 l 257
382.16 577 m 257
 172.16 0 l 257
 243.16 0 l 257
 453.16 577 l 257
 382.16 577 l 257
208.16 74 m 257
 181.16 0 l 257
 845.16 0 l 257
 872.16 74 l 257
 208.16 74 l 257
EndSplineSet
EndChar

StartChar: acute
Encoding: 271 180 271
GlifName: acute
Width: 1024
VWidth: 0
GlyphClass: 2
Flags: W
LayerCount: 2
Fore
SplineSet
586 1553 m 257
 364 1302 l 257
 436 1256 l 257
 660 1511 l 257
 586 1553 l 257
EndSplineSet
EndChar

StartChar: acutecomb
Encoding: 272 769 272
GlifName: acutecomb
Width: 0
VWidth: 0
GlyphClass: 4
Flags: W
AnchorPoint: "top" 10 763 mark 0
LayerCount: 2
Fore
SplineSet
144 976 m 257
 -3 791 l 257
 38 757 l 257
 184 942 l 257
 144 976 l 257
EndSplineSet
EndChar

StartChar: ae
Encoding: 276 230 276
GlifName: ae
Width: 1024
VWidth: 0
GlyphClass: 2
Flags: W
AnchorPoint: "base" 505 -94 basechar 0
AnchorPoint: "top" 910 1125 basechar 0
LayerCount: 2
Fore
SplineSet
387 1023 m 257
 365 961 l 257
 1255 961 l 257
 1277 1023 l 257
 387 1023 l 257
857 1023 m 257
 485 0 l 257
 545 0 l 257
 917 1023 l 257
 857 1023 l 257
257 599 m 257
 235 538 l 257
 1075 538 l 257
 1097 599 l 257
 257 599 l 257
248 575 m 257
 39 0 l 257
 99 0 l 257
 308 575 l 257
 248 575 l 257
59 61 m 257
 37 0 l 257
 957 0 l 257
 979 61 l 257
 59 61 l 257
1245 1023 m 257
 1069 538 l 257
 1131 538 l 257
 1307 1023 l 257
 1245 1023 l 257
EndSplineSet
EndChar

StartChar: alpha
Encoding: 279 945 279
GlifName: alpha
Width: 1024
VWidth: 0
GlyphClass: 2
Flags: W
LayerCount: 2
Fore
SplineSet
544 1023 m 257
 520 963 l 257
 897 963 l 257
 969 1023 l 257
 544 1023 l 257
530 984 m 257
 172 0 l 257
 232 0 l 257
 590 984 l 257
 530 984 l 257
256 60 m 257
 201 0 l 257
 619 0 l 257
 658 60 l 257
 256 60 l 257
947 -1 m 257
 1023 32 l 257
 970 1024 l 257
 888 990 l 257
 947 -1 l 257
617 3 m 257
 1343 939 l 257
 1322 975 l 257
 596 39 l 257
 617 3 l 257
EndSplineSet
EndChar

StartChar: uni0251
Encoding: 280 593 280
GlifName: alpha_latin
Width: 1024
VWidth: 0
GlyphClass: 2
Flags: W
AnchorPoint: "top" 930.171 1128 basechar 0
AnchorPoint: "base" 521.171 -50 basechar 0
LayerCount: 2
Fore
SplineSet
475.171 1023 m 257
 103.171 0 l 257
 162.171 0 l 257
 534.171 1023 l 257
 475.171 1023 l 257
1232 1116 m 257
 860 -127 l 257
 921 -127 l 257
 1293 1116 l 257
 1232 1116 l 257
536.171 1023 m 257
 516.171 967 l 257
 1217.17 967 l 257
 1237.17 1023 l 257
 536.171 1023 l 257
167 62 m 257
 144 0 l 257
 913 0 l 257
 937 62 l 257
 167 62 l 257
EndSplineSet
EndChar

StartChar: ampersand
Encoding: 287 38 287
GlifName: ampersand
Width: 1024
VWidth: 0
GlyphClass: 2
Flags: W
LayerCount: 2
Fore
SplineSet
594 1534 m 257
 569 43 l 257
 650 56 l 257
 672 1534 l 257
 594 1534 l 257
1113 1467 m 257
 1138 1536 l 257
 672 1536 l 257
 647 1467 l 257
 1113 1467 l 257
1062 1485 m 257
 888 1006 l 257
 946 1006 l 257
 1120 1485 l 257
 1062 1485 l 257
264 1045 m 257
 242 985 l 257
 938 985 l 257
 960 1045 l 257
 264 1045 l 257
264 1045 m 257
 -108 24 l 257
 -18 24 l 257
 354 1045 l 257
 264 1045 l 257
-91 71 m 257
 -114 6 l 257
 694 6 l 257
 717 71 l 257
 -91 71 l 257
EndSplineSet
EndChar

StartChar: approxequal
Encoding: 290 8776 290
GlifName: approxequal
Width: 1024
VWidth: 0
GlyphClass: 2
Flags: W
LayerCount: 2
Fore
SplineSet
330 528 m 257
 330 395 l 257
 680 334 l 257
 680 467 l 257
 330 528 l 257
92 470 m 257
 107 338 l 257
 330 395 l 257
 330 528 l 257
 92 470 l 257
680 467 m 257
 680 334 l 257
 861 475 l 257
 837 605 l 257
 680 467 l 257
330 898 m 257
 330 752 l 257
 680 691 l 257
 680 837 l 257
 330 898 l 257
92 840 m 257
 107 695 l 257
 330 752 l 257
 330 898 l 257
 92 840 l 257
680 837 m 257
 680 691 l 257
 861 832 l 257
 837 975 l 257
 680 837 l 257
EndSplineSet
EndChar

StartChar: asciicircum
Encoding: 294 94 294
GlifName: asciicircum
Width: 1024
VWidth: 0
GlyphClass: 2
Flags: W
LayerCount: 2
Fore
SplineSet
881.861 1023 m 257
 809.861 1023 l 257
 321.861 407 l 257
 363.861 373 l 257
 881.861 1023 l 257
818.861 1030 m 257
 900.861 364 l 257
 995.861 400 l 257
 892.861 1030 l 257
 818.861 1030 l 257
EndSplineSet
EndChar

StartChar: asciitilde
Encoding: 295 126 295
GlifName: asciitilde
Width: 1024
VWidth: 0
GlyphClass: 2
Flags: W
LayerCount: 2
Fore
SplineSet
373 766 m 257
 355 716 l 257
 679 645 l 257
 697 695 l 257
 373 766 l 257
112 710 m 257
 105 652 l 257
 355 716 l 257
 373 766 l 257
 112 710 l 257
697 695 m 257
 679 645 l 257
 916 796 l 257
 919 843 l 257
 697 695 l 257
EndSplineSet
EndChar

StartChar: asterisk
Encoding: 296 42 296
GlifName: asterisk
Width: 1024
VWidth: 0
GlyphClass: 2
Flags: W
LayerCount: 2
Fore
SplineSet
690 1297 m 257
 323 289 l 257
 423 289 l 257
 790 1297 l 257
 690 1297 l 257
292 1153 m 257
 750 424 l 257
 844 496 l 257
 377 1222 l 257
 292 1153 l 257
1009 1200 m 257
 -13 449 l 257
 25 399 l 257
 1037 1134 l 257
 1009 1200 l 257
EndSplineSet
EndChar

StartChar: at
Encoding: 297 64 297
GlifName: at
Width: 1024
VWidth: 0
GlyphClass: 2
Flags: W
LayerCount: 2
Fore
SplineSet
454 1023 m 257
 430 956 l 257
 1328 956 l 257
 1352 1023 l 257
 454 1023 l 257
958 598 m 257
 740 0 l 257
 808 0 l 257
 1026 598 l 257
 958 598 l 257
539 601 m 257
 521 551 l 257
 945 551 l 257
 963 601 l 257
 539 601 l 257
530 589 m 257
 320 12 l 257
 374 12 l 257
 584 589 l 257
 530 589 l 257
342 76 m 257
 314 0 l 257
 808 0 l 257
 836 76 l 257
 342 76 l 257
400 1023 m 257
 -53 -223 l 257
 13 -223 l 257
 466 1023 l 257
 400 1023 l 257
-39 -179 m 257
 -68 -258 l 257
 880 -258 l 257
 909 -179 l 257
 -39 -179 l 257
1288 1033 m 257
 912 0 l 257
 998 0 l 257
 1374 1033 l 257
 1288 1033 l 257
782 76 m 257
 754 0 l 257
 944 0 l 257
 972 76 l 257
 782 76 l 257
EndSplineSet
EndChar

StartChar: uni0250
Encoding: 299 592 299
GlifName: aturned
Width: 1024
VWidth: 0
GlyphClass: 2
Flags: W
AnchorPoint: "top" 475.84 -103 basechar 0
AnchorPoint: "base" 838.84 1087 basechar 0
LayerCount: 2
Fore
SplineSet
822.84 -11 m 257
 847.84 56 l 257
 198.84 56 l 257
 174.84 -10 l 257
 822.84 -11 l 257
233 -10 m 257
 605 1056 l 257
 528 1056 l 257
 156 -10 l 257
 233 -10 l 257
974.84 413 m 257
 996.84 475 l 257
 372.84 475 l 257
 350.84 413 l 257
 974.84 413 l 257
981.84 436 m 257
 1191.84 1013 l 257
 1120.84 1013 l 257
 910.84 436 l 257
 981.84 436 l 257
1155.84 939 m 257
 1182.84 1013 l 257
 518.84 1013 l 257
 491.84 939 l 257
 1155.84 939 l 257
EndSplineSet
EndChar

StartChar: b
Encoding: 300 98 300
GlifName: b
Width: 1024
VWidth: 0
GlyphClass: 2
Flags: W
AnchorPoint: "base" 469.02 -72 basechar 0
AnchorPoint: "top" 746.02 1622 basechar 0
LayerCount: 2
Fore
SplineSet
694.02 1536 m 257
 135.02 0 l 257
 195.02 0 l 257
 754.02 1536 l 257
 694.02 1536 l 257
554.02 1033 m 257
 532.02 972 l 257
 1196.02 972 l 257
 1218.02 1033 l 257
 554.02 1033 l 257
1205.02 1033 m 257
 829.02 0 l 257
 889.02 0 l 257
 1265.02 1033 l 257
 1205.02 1033 l 257
192.02 60 m 257
 170.02 0 l 257
 867.02 0 l 257
 889.02 60 l 257
 192.02 60 l 257
EndSplineSet
EndChar

StartChar: backslash
Encoding: 301 92 301
GlifName: backslash
Width: 1024
VWidth: 0
GlyphClass: 2
Flags: W
LayerCount: 2
Fore
SplineSet
759.577 1550 m 257
 750.577 0 l 257
 828.577 0 l 257
 842.577 1550 l 257
 759.577 1550 l 257
EndSplineSet
EndChar

StartChar: bar
Encoding: 303 124 303
GlifName: bar
Width: 1024
VWidth: 0
GlyphClass: 2
Flags: W
LayerCount: 2
Fore
SplineSet
1027 1435 m 257
 472 -90 l 257
 552 -90 l 257
 1107 1435 l 257
 1027 1435 l 257
EndSplineSet
EndChar

StartChar: uni0431
Encoding: 305 1073 305
GlifName: be-cy
Width: 1024
VWidth: 0
Flags: W
AnchorPoint: "base" 469.02 -72 basechar 0
AnchorPoint: "top" 746.02 1622 basechar 0
LayerCount: 2
Fore
SplineSet
694 1260 m 257
 135.02 0 l 257
 195.02 0 l 257
 754 1260 l 257
 694 1260 l 257
592 1037 m 257
 570 976 l 257
 1196.02 972 l 257
 1218.02 1033 l 257
 592 1037 l 257
1205.02 1033 m 257
 829.02 0 l 257
 889.02 0 l 257
 1265.02 1033 l 257
 1205.02 1033 l 257
192.02 60 m 257
 170.02 0 l 257
 867.02 0 l 257
 889.02 60 l 257
 192.02 60 l 257
694 1260 m 257
 672 1199 l 257
 1529 1482 l 257
 1551 1543 l 257
 694 1260 l 257
EndSplineSet
EndChar

StartChar: beta
Encoding: 306 946 306
GlifName: beta
Width: 1024
VWidth: 0
GlyphClass: 2
Flags: W
LayerCount: 2
Fore
SplineSet
456 1505 m 257
 -258 -457 l 257
 -198 -457 l 257
 516 1505 l 257
 456 1505 l 257
472 1547 m 257
 450 1487 l 257
 1238 1392 l 257
 1260 1452 l 257
 472 1547 l 257
1200 1453 m 257
 672 2 l 257
 732 2 l 257
 1260 1453 l 257
 1200 1453 l 257
191 776 m 257
 169 716 l 257
 992 716 l 257
 1014 776 l 257
 191 776 l 257
220 53 m 257
 201 2 l 257
 732 2 l 257
 751 53 l 257
 220 53 l 257
EndSplineSet
EndChar

StartChar: uniA7B5
Encoding: 307 42933 307
GlifName: beta_latin
Width: 1024
VWidth: 0
GlyphClass: 2
Flags: W
LayerCount: 2
Fore
SplineSet
456 1505 m 257
 -258 -457 l 257
 -198 -457 l 257
 516 1505 l 257
 456 1505 l 257
472 1547 m 257
 450 1487 l 257
 1238 1392 l 257
 1260 1452 l 257
 472 1547 l 257
1200 1453 m 257
 672 2 l 257
 732 2 l 257
 1260 1453 l 257
 1200 1453 l 257
191 776 m 257
 169 716 l 257
 992 716 l 257
 1014 776 l 257
 191 776 l 257
220 53 m 257
 201 2 l 257
 732 2 l 257
 751 53 l 257
 220 53 l 257
EndSplineSet
EndChar

StartChar: H18533
Encoding: 310 9679 310
GlifName: blackC_ircle
Width: 1024
VWidth: 0
GlyphClass: 2
Flags: W
LayerCount: 2
Fore
SplineSet
561 1191 m 257
 378 1179 l 257
 225 1094 l 257
 131 928 l 257
 145 735 l 257
 212 520 l 257
 436 426 l 257
 598 448 l 257
 777 498 l 257
 844 650 l 257
 876 785 l 257
 871 951 l 257
 781 1094 l 257
 561 1191 l 257
EndSplineSet
EndChar

StartChar: uni25C6
Encoding: 311 9670 311
GlifName: blackD_iamond
Width: 1024
VWidth: 0
GlyphClass: 2
Flags: W
LayerCount: 2
Fore
SplineSet
82 829 m 257
 508 402 l 257
 935 829 l 257
 509 1255 l 257
 82 829 l 257
EndSplineSet
EndChar

StartChar: H18543
Encoding: 312 9642 312
GlifName: blackS_mallS_quare
Width: 1024
VWidth: 0
GlyphClass: 2
Flags: W
LayerCount: 2
Fore
SplineSet
260 1077 m 257
 260 580 l 257
 757 580 l 257
 757 1077 l 257
 260 1077 l 257
EndSplineSet
EndChar

StartChar: filledbox
Encoding: 313 9632 313
GlifName: blackS_quare
Width: 1024
VWidth: 0
GlyphClass: 2
Flags: W
LayerCount: 2
Fore
SplineSet
95 1242 m 257
 95 415 l 257
 922 415 l 257
 922 1242 l 257
 95 1242 l 257
EndSplineSet
EndChar

StartChar: braceleft
Encoding: 315 123 315
GlifName: braceleft
Width: 1024
VWidth: 0
GlyphClass: 2
Flags: W
LayerCount: 2
Fore
SplineSet
692 1544 m 257
 435 838 l 257
 519 838 l 257
 776 1544 l 257
 692 1544 l 257
296 424 m 257
 38 -286 l 257
 128 -286 l 257
 386 424 l 257
 296 424 l 257
92 690 m 257
 70 630 l 257
 519 838 l 257
 435 838 l 257
 92 690 l 257
92 690 m 257
 70 630 l 257
 295 425 l 257
 388 425 l 257
 92 690 l 257
714 1603 m 257
 659 1452 l 257
 972 1574 l 257
 986 1603 l 257
 714 1603 l 257
92 -140 m 257
 38 -287 l 257
 314 -287 l 257
 319 -274 l 257
 92 -140 l 257
EndSplineSet
EndChar

StartChar: braceright
Encoding: 316 125 316
GlifName: braceright
Width: 1024
VWidth: 0
GlyphClass: 2
Flags: W
LayerCount: 2
Fore
SplineSet
986 1544 m 257
 886 1544 l 257
 629 838 l 257
 729 838 l 257
 986 1544 l 257
564 424 m 257
 471 424 l 257
 213 -286 l 257
 306 -286 l 257
 564 424 l 257
948 690 m 257
 724 838 l 257
 625 838 l 257
 926 630 l 257
 948 690 l 257
948 690 m 257
 471 424 l 257
 564 424 l 257
 926 630 l 257
 948 690 l 257
1008 1603 m 257
 733 1603 l 257
 727 1574 l 257
 953 1452 l 257
 1008 1603 l 257
344 -140 m 257
 19 -274 l 257
 16 -284 l 257
 292 -284 l 257
 344 -140 l 257
EndSplineSet
EndChar

StartChar: bracketleft
Encoding: 317 91 317
GlifName: bracketleft
Width: 1024
VWidth: 0
GlyphClass: 2
Flags: W
LayerCount: 2
Fore
SplineSet
939.047 1542 m 257
 290.047 -242 l 257
 347.047 -242 l 257
 996.047 1542 l 257
 939.047 1542 l 257
993.047 1543 m 257
 971.047 1481 l 257
 1180.05 1481 l 257
 1202.05 1543 l 257
 993.047 1543 l 257
353.047 -168 m 257
 326.047 -242 l 257
 558.047 -242 l 257
 585.047 -168 l 257
 353.047 -168 l 257
EndSplineSet
EndChar

StartChar: bracketright
Encoding: 318 93 318
GlifName: bracketright
Width: 1024
VWidth: 0
GlyphClass: 2
Flags: W
LayerCount: 2
Fore
SplineSet
1148.6 1542 m 257
 498.596 -242 l 257
 560.596 -242 l 257
 1210.6 1542 l 257
 1148.6 1542 l 257
936.596 1543 m 257
 912.596 1478 l 257
 1140.6 1478 l 257
 1164.6 1543 l 257
 936.596 1543 l 257
314.596 -165 m 257
 286.596 -242 l 257
 525.596 -242 l 257
 553.596 -165 l 257
 314.596 -165 l 257
EndSplineSet
EndChar

StartChar: breve
Encoding: 319 728 319
GlifName: breve
Width: 1024
VWidth: 0
GlyphClass: 2
Flags: W
LayerCount: 2
Fore
SplineSet
660 1550 m 257
 634 1480 l 257
 825 1550 l 257
 859 1645 l 257
 660 1550 l 257
336 1550 m 257
 310 1480 l 257
 634 1480 l 257
 660 1550 l 257
 336 1550 l 257
194 1630 m 257
 165 1550 l 257
 310 1480 l 257
 336 1550 l 257
 194 1630 l 257
EndSplineSet
EndChar

StartChar: brokenbar
Encoding: 325 166 325
GlifName: brokenbar
Width: 1024
VWidth: 0
GlyphClass: 2
Flags: W
LayerCount: 2
Fore
SplineSet
132 -332 m 257
 176 -332 l 257
 545 682 l 257
 501 682 l 257
 132 -332 l 257
547 790 m 257
 584 790 l 257
 892 1636 l 257
 855 1636 l 257
 547 790 l 257
EndSplineSet
EndChar

StartChar: bullet
Encoding: 328 8226 328
GlifName: bullet
Width: 1024
VWidth: 0
GlyphClass: 2
Flags: W
LayerCount: 2
Fore
SplineSet
465 1009 m 257
 405 844 l 257
 559 844 l 257
 619 1009 l 257
 465 1009 l 257
EndSplineSet
EndChar

StartChar: uni2219
Encoding: 329 8729 329
GlifName: bulletoperator
Width: 1024
VWidth: 0
GlyphClass: 2
Flags: W
LayerCount: 2
Fore
SplineSet
465 1009 m 257
 405 844 l 257
 559 844 l 257
 619 1009 l 257
 465 1009 l 257
EndSplineSet
EndChar

StartChar: c
Encoding: 330 99 330
GlifName: c
Width: 1024
VWidth: 0
GlyphClass: 2
Flags: W
AnchorPoint: "base" 448.15 -69 basechar 0
AnchorPoint: "top" 932.15 1114 basechar 0
LayerCount: 2
Fore
SplineSet
536.15 1023 m 257
 516.15 967 l 257
 1212.15 967 l 257
 1232.15 1023 l 257
 536.15 1023 l 257
524.15 984 m 257
 166.15 0 l 257
 226.15 0 l 257
 584.15 984 l 257
 524.15 984 l 257
236.15 60 m 257
 214.15 0 l 257
 854.15 0 l 257
 876.15 60 l 257
 236.15 60 l 257
EndSplineSet
EndChar

StartChar: caron
Encoding: 333 711 333
GlifName: caron
Width: 1024
VWidth: 0
GlyphClass: 2
Flags: W
LayerCount: 2
Fore
SplineSet
397 1068 m 257
 375 1395 l 257
 342 1378 l 257
 361 1068 l 257
 397 1068 l 257
364 1067 m 257
 401 1067 l 257
 682 1382 l 257
 647 1400 l 257
 364 1067 l 257
EndSplineSet
EndChar

StartChar: cedilla
Encoding: 338 184 338
GlifName: cedilla
Width: 1024
VWidth: 0
GlyphClass: 2
Flags: W
LayerCount: 2
Fore
SplineSet
423 236 m 257
 337 0 l 257
 395 0 l 257
 481 236 l 257
 423 236 l 257
237 -291 m 257
 215 -352 l 257
 661 -352 l 257
 683 -291 l 257
 237 -291 l 257
750 56 m 257
 615 -316 l 257
 674 -316 l 257
 809 56 l 257
 750 56 l 257
363 56 m 257
 343 0 l 257
 789 0 l 257
 809 56 l 257
 363 56 l 257
EndSplineSet
EndChar

StartChar: cent
Encoding: 339 162 339
GlifName: cent
Width: 1024
VWidth: 0
GlyphClass: 2
Flags: W
LayerCount: 2
Fore
SplineSet
847 1183 m 257
 787 1183 l 257
 326 -86 l 257
 386 -86 l 257
 847 1183 l 257
349 1023 m 257
 328 966 l 257
 1024 966 l 257
 1045 1023 l 257
 349 1023 l 257
337 984 m 257
 -21 0 l 257
 44 0 l 257
 402 984 l 257
 337 984 l 257
50 61 m 257
 28 0 l 257
 667 0 l 257
 689 61 l 257
 50 61 l 257
EndSplineSet
EndChar

StartChar: uni0447
Encoding: 340 1095 340
GlifName: che-cy
Width: 1024
VWidth: 0
Flags: W
LayerCount: 2
Fore
SplineSet
1225 1024 m 257
 826 -1 l 257
 886 -1 l 257
 1285 1024 l 257
 1225 1024 l 257
489 1024 m 257
 135 286 l 257
 195 286 l 257
 549 1024 l 257
 489 1024 l 257
205 339 m 257
 195 285 l 257
 1006 408 l 257
 1017 462 l 257
 205 339 l 257
EndSplineSet
EndChar

StartChar: chi
Encoding: 341 967 341
GlifName: chi
Width: 1024
VWidth: 0
GlyphClass: 2
Flags: W
LayerCount: 2
Fore
SplineSet
184 -245 m 257
 244 -245 l 257
 1353 1023 l 257
 1296 1023 l 257
 184 -245 l 257
688 1023 m 257
 880 -247 l 257
 938 -245 l 257
 748 1023 l 257
 688 1023 l 257
563 1023 m 257
 489 963 l 257
 673 963 l 257
 747 1023 l 257
 563 1023 l 257
967 -185 m 257
 893 -245 l 257
 1015 -245 l 257
 1089 -185 l 257
 967 -185 l 257
EndSplineSet
EndChar

StartChar: circumflex
Encoding: 343 710 343
GlifName: circumflex
Width: 1024
VWidth: 0
GlyphClass: 2
Flags: W
LayerCount: 2
Fore
SplineSet
625 2308 m 257
 589 2308 l 257
 344 1998 l 257
 365 1981 l 257
 625 2308 l 257
592 2310 m 257
 633 1976 l 257
 680 1994 l 257
 629 2310 l 257
 592 2310 l 257
EndSplineSet
EndChar

StartChar: colon
Encoding: 353 58 353
GlifName: colon
Width: 1024
VWidth: 0
GlyphClass: 2
Flags: W
HStem: 7 546<447 645 583 645>
LayerCount: 2
Fore
SplineSet
504 164 m 257
 447 7 l 257
 583 7 l 257
 640 164 l 257
 504 164 l 257
645 553 m 257
 588 396 l 257
 724 396 l 257
 781 553 l 257
 645 553 l 257
EndSplineSet
PickledDataWithLists: "(dp0
Vcom.fontlab.hintData
p1
(dp2
Vhhints
p3
(lp4
(dp5
Vposition
p6
I7
sVwidth
p7
I546
sass."
EndChar

StartChar: colonmonetary
Encoding: 355 8353 355
GlifName: colonmonetary
Width: 1024
VWidth: 0
GlyphClass: 2
Flags: W
LayerCount: 2
Fore
SplineSet
1472 1650 m 257
 271 42 l 257
 290 -31 l 257
 1525 1636 l 257
 1472 1650 l 257
1159 1642 m 257
 51 165 l 257
 98 140 l 257
 1206 1617 l 257
 1159 1642 l 257
644 1573 m 257
 84 36 l 257
 142 36 l 257
 702 1573 l 257
 644 1573 l 257
698 1573 m 257
 673 1508 l 257
 1501 1508 l 257
 1526 1573 l 257
 698 1573 l 257
145 92 m 257
 125 36 l 257
 964 36 l 257
 984 92 l 257
 145 92 l 257
EndSplineSet
EndChar

StartChar: comma
Encoding: 356 44 356
GlifName: comma
Width: 1024
VWidth: 0
GlyphClass: 2
Flags: W
LayerCount: 2
Fore
SplineSet
473 165 m 257
 415 8 l 257
 551 8 l 257
 609 165 l 257
 473 165 l 257
546 135 m 257
 418 -99 l 257
 451 -148 l 257
 556 26 l 257
 546 135 l 257
EndSplineSet
EndChar

StartChar: uni0315
Encoding: 358 789 358
GlifName: commaaboverightcomb
Width: 0
VWidth: 0
GlyphClass: 4
Flags: W
AnchorPoint: "top" -283 1018 mark 0
LayerCount: 2
Fore
SplineSet
11 1165 m 257
 -47 1008 l 257
 89 1008 l 257
 147 1165 l 257
 11 1165 l 257
84 1135 m 257
 -44 901 l 257
 -11 852 l 257
 94 1026 l 257
 84 1135 l 257
EndSplineSet
EndChar

StartChar: uni0314
Encoding: 359 788 359
GlifName: commareversedabovecomb
Width: 0
VWidth: 0
GlyphClass: 4
Flags: W
AnchorPoint: "top" -168.828 949 mark 0
LayerCount: 2
Fore
SplineSet
195.319 1408 m 257
 59.3191 1408 l 257
 -14.4195 1251 l 257
 121.58 1251 l 257
 195.319 1408 l 257
97.1461 1378 m 257
 -4.31576 1269 l 257
 -45.3191 1095 l 257
 28.7968 1144 l 257
 97.1461 1378 l 257
EndSplineSet
EndChar

StartChar: copyright
Encoding: 361 169 361
GlifName: copyright
Width: 1024
VWidth: 0
GlyphClass: 2
Flags: W
LayerCount: 2
Fore
SplineSet
293 1540 m 257
 -268 0 l 257
 -208 0 l 257
 353 1540 l 257
 293 1540 l 257
1232 1537 m 257
 672 0 l 257
 732 0 l 257
 1292 1537 l 257
 1232 1537 l 257
344 1538 m 257
 322 1476 l 257
 1266 1476 l 257
 1288 1538 l 257
 344 1538 l 257
-234 60 m 257
 -256 0 l 257
 714 0 l 257
 736 60 l 257
 -234 60 l 257
414 1197 m 257
 391 1135 l 257
 825 1135 l 257
 848 1197 l 257
 414 1197 l 257
398 1154 m 257
 102 340 l 257
 162 340 l 257
 458 1154 l 257
 398 1154 l 257
108 356 m 257
 85 294 l 257
 525 294 l 257
 548 356 l 257
 108 356 l 257
EndSplineSet
EndChar

StartChar: currency
Encoding: 362 164 362
GlifName: currency
Width: 1024
VWidth: 0
GlyphClass: 2
Flags: W
LayerCount: 2
Fore
SplineSet
285 1182 m 257
 -87 160 l 257
 -27 160 l 257
 345 1182 l 257
 285 1182 l 257
1043 1184 m 257
 671 160 l 257
 731 160 l 257
 1103 1184 l 257
 1043 1184 l 257
348 1187 m 257
 327 1127 l 257
 1027 1127 l 257
 1048 1187 l 257
 348 1187 l 257
-19 222 m 257
 -41 160 l 257
 679 160 l 257
 701 222 l 257
 -19 222 l 257
236 1251 m 257
 194 1137 l 257
 338 1137 l 257
 380 1251 l 257
 236 1251 l 257
1068 1241 m 257
 1027 1127 l 257
 1169 1127 l 257
 1210 1241 l 257
 1068 1241 l 257
-145 223 m 257
 -186 109 l 257
 -42 109 l 257
 -1 223 l 257
 -145 223 l 257
698 220 m 257
 657 106 l 257
 801 106 l 257
 842 220 l 257
 698 220 l 257
EndSplineSet
EndChar

StartChar: d
Encoding: 363 100 363
GlifName: d
Width: 1024
VWidth: 0
GlyphClass: 2
Flags: W
AnchorPoint: "base" 484.062 -69 basechar 0
AnchorPoint: "top" 1479.06 1648 basechar 0
LayerCount: 2
Fore
SplineSet
1388.06 1527 m 257
 832.062 0 l 257
 892.062 0 l 257
 1448.06 1527 l 257
 1388.06 1527 l 257
548.062 1023 m 257
 528.062 966 l 257
 1218.06 966 l 257
 1238.06 1023 l 257
 548.062 1023 l 257
504.062 1023 m 257
 132.062 0 l 257
 192.062 0 l 257
 564.062 1023 l 257
 504.062 1023 l 257
193.062 59 m 257
 172.062 0 l 257
 844.062 0 l 257
 865.062 59 l 257
 193.062 59 l 257
EndSplineSet
EndChar

StartChar: dagger
Encoding: 364 8224 364
GlifName: dagger
Width: 1024
VWidth: 0
GlyphClass: 2
Flags: W
LayerCount: 2
Fore
SplineSet
301 1251 m 257
 282 1200 l 257
 888 1200 l 257
 907 1251 l 257
 301 1251 l 257
681 1550 m 257
 117 0 l 257
 183 0 l 257
 747 1550 l 257
 681 1550 l 257
EndSplineSet
EndChar

StartChar: daggerdbl
Encoding: 365 8225 365
GlifName: daggerdbl
Width: 1024
VWidth: 0
GlyphClass: 2
Flags: W
LayerCount: 2
Fore
SplineSet
140 823 m 257
 122 772 l 257
 728 772 l 257
 746 823 l 257
 140 823 l 257
296 1251 m 257
 278 1200 l 257
 884 1200 l 257
 902 1251 l 257
 296 1251 l 257
686 1550 m 257
 122 0 l 257
 184 0 l 257
 748 1550 l 257
 686 1550 l 257
EndSplineSet
EndChar

StartChar: dcaron
Encoding: 368 271 368
GlifName: dcaron
Width: 1024
VWidth: 0
GlyphClass: 2
Flags: W
AnchorPoint: "base" 508 -97 basechar 0
LayerCount: 2
Fore
SplineSet
1042 1527 m 257
 486 0 l 257
 546 0 l 257
 1102 1527 l 257
 1042 1527 l 257
202 1023 m 257
 180 962 l 257
 856 962 l 257
 878 1023 l 257
 202 1023 l 257
158 1023 m 257
 -214 0 l 257
 -156 0 l 257
 216 1023 l 257
 158 1023 l 257
-176 60 m 257
 -198 0 l 257
 498 0 l 257
 520 60 l 257
 -176 60 l 257
1188 1496 m 257
 1104 1264 l 257
 1154 1264 l 257
 1238 1496 l 257
 1188 1496 l 257
EndSplineSet
EndChar

StartChar: dcroat
Encoding: 370 273 370
GlifName: dcroat
Width: 1024
VWidth: 0
GlyphClass: 2
Flags: W
AnchorPoint: "top" 1170 1632 basechar 0
AnchorPoint: "base" 259 -107 basechar 0
LayerCount: 2
Fore
SplineSet
1106 1527 m 257
 551 0 l 257
 611 0 l 257
 1166 1527 l 257
 1106 1527 l 257
253 1023 m 257
 231 962 l 257
 923 962 l 257
 945 1023 l 257
 253 1023 l 257
221 1023 m 257
 -151 0 l 257
 -91 0 l 257
 281 1023 l 257
 221 1023 l 257
-81 61 m 257
 -103 0 l 257
 563 0 l 257
 585 61 l 257
 -81 61 l 257
867 1260 m 257
 846 1202 l 257
 1154 1202 l 257
 1175 1260 l 257
 867 1260 l 257
EndSplineSet
EndChar

StartChar: uni0221
Encoding: 371 545 371
GlifName: dcurl
Width: 1024
VWidth: 0
GlyphClass: 2
Flags: W
AnchorPoint: "base" 484.062 -69 basechar 0
AnchorPoint: "top" 1479.06 1648 basechar 0
LayerCount: 2
Fore
SplineSet
1067 1527 m 257
 511 0 l 257
 571 0 l 257
 1127 1527 l 257
 1067 1527 l 257
417 1023 m 257
 402 966 l 257
 915 966 l 257
 930 1023 l 257
 417 1023 l 257
378 1023 m 257
 6 0 l 257
 66 0 l 257
 438 1023 l 257
 378 1023 l 257
74 59 m 257
 46 0 l 257
 953 0 l 257
 981 59 l 257
 74 59 l 257
564 -142 m 257
 635 -145 l 257
 1055 361 l 257
 1098 479 l 257
 564 -142 l 257
1097 476 m 257
 916 2 l 257
 998 -3 l 257
 1181 468 l 257
 1097 476 l 257
EndSplineSet
EndChar

StartChar: uni0434
Encoding: 372 1076 372
GlifName: de-cy
Width: 1024
VWidth: 0
Flags: W
LayerCount: 2
Fore
SplineSet
92 203 m 257
 19 143 l 257
 993 143 l 257
 1066 203 l 257
 92 203 l 257
76 159 m 257
 -127 -405 l 257
 -67 -405 l 257
 136 159 l 257
 76 159 l 257
990 159 m 257
 782 -412 l 257
 842 -412 l 257
 1050 159 l 257
 990 159 l 257
1367 996 m 257
 892 162 l 257
 952 162 l 257
 1427 996 l 257
 1367 996 l 257
988 1018 m 257
 915 958 l 257
 1391 958 l 257
 1464 1018 l 257
 988 1018 l 257
968 1019 m 257
 174 185 l 257
 234 185 l 257
 1028 1019 l 257
 968 1019 l 257
EndSplineSet
EndChar

StartChar: degree
Encoding: 373 176 373
GlifName: degree
Width: 1024
VWidth: 0
GlyphClass: 2
Flags: W
LayerCount: 2
Fore
SplineSet
429 1439 m 257
 679 1439 l 257
 604 1231 l 257
 354 1231 l 257
 429 1439 l 257
388 1488 m 257
 276 1179 l 257
 636 1179 l 257
 748 1488 l 257
 388 1488 l 257
EndSplineSet
EndChar

StartChar: delta
Encoding: 374 948 374
GlifName: delta
Width: 1024
VWidth: 0
GlyphClass: 2
Flags: W
LayerCount: 2
Fore
SplineSet
740 1550 m 257
 780 0 l 257
 828 0 l 257
 796 1550 l 257
 740 1550 l 257
481 1023 m 257
 459 964 l 257
 783 964 l 257
 805 1023 l 257
 481 1023 l 257
441 1023 m 257
 68 0 l 257
 128 0 l 257
 501 1023 l 257
 441 1023 l 257
136 59 m 257
 114 0 l 257
 780 0 l 257
 802 59 l 257
 136 59 l 257
772 1552 m 257
 748 1487 l 257
 1092 1487 l 257
 1116 1552 l 257
 772 1552 l 257
EndSplineSet
EndChar

StartChar: divide
Encoding: 379 247 379
GlifName: divide
Width: 1024
VWidth: 0
GlyphClass: 2
Flags: W
LayerCount: 2
Fore
SplineSet
343 264 m 257
 320 201 l 257
 422 201 l 257
 445 264 l 257
 343 264 l 257
641 1111 m 257
 617 1047 l 257
 708 1047 l 257
 732 1111 l 257
 641 1111 l 257
110 662 m 257
 88 600 l 257
 914 600 l 257
 936 662 l 257
 110 662 l 257
EndSplineSet
EndChar

StartChar: uni2215
Encoding: 380 8725 380
GlifName: divisionslash
Width: 1024
VWidth: 0
GlyphClass: 2
Flags: W
LayerCount: 2
Fore
SplineSet
1293 1480 m 257
 171 10 l 257
 274 10 l 257
 1396 1480 l 257
 1293 1480 l 257
EndSplineSet
EndChar

StartChar: uni0452
Encoding: 381 1106 381
GlifName: dje-cy
Width: 1024
VWidth: 0
Flags: W
LayerCount: 2
Fore
SplineSet
586 1369 m 257
 560 1309 l 257
 1348 1309 l 257
 1374 1369 l 257
 586 1369 l 257
839 1544 m 257
 277 -1 l 257
 337 -1 l 257
 899 1544 l 257
 839 1544 l 257
652 994 m 257
 622 934 l 257
 1235 934 l 257
 1265 994 l 257
 652 994 l 257
1203 989 m 257
 677 -406 l 257
 737 -406 l 257
 1263 989 l 257
 1203 989 l 257
422 -383 m 257
 402 -443 l 257
 725 -443 l 257
 745 -383 l 257
 422 -383 l 257
EndSplineSet
EndChar

StartChar: dollar
Encoding: 383 36 383
GlifName: dollar
Width: 1024
VWidth: 0
GlyphClass: 2
Flags: W
LayerCount: 2
Fore
SplineSet
479 1539 m 257
 449 1457 l 257
 1047 1457 l 257
 1077 1539 l 257
 479 1539 l 257
480 1542 m 257
 293 1028 l 257
 377 1028 l 257
 564 1542 l 257
 480 1542 l 257
-28 69 m 257
 -53 0 l 257
 655 0 l 257
 680 69 l 257
 -28 69 l 257
611 0 m 257
 691 0 l 257
 820 355 l 257
 740 355 l 257
 611 0 l 257
293 1028 m 257
 739 355 l 257
 820 355 l 257
 377 1028 l 257
 293 1028 l 257
809 1636 m 257
 136 -215 l 257
 206 -215 l 257
 879 1636 l 257
 809 1636 l 257
EndSplineSet
EndChar

StartChar: dong
Encoding: 384 8363 384
GlifName: dong
Width: 1024
VWidth: 0
GlyphClass: 2
Flags: W
LayerCount: 2
Fore
SplineSet
235 18 m 257
 208 -56 l 257
 825 -56 l 257
 852 18 l 257
 235 18 l 257
1375 1527 m 257
 855 98 l 257
 929 98 l 257
 1449 1527 l 257
 1375 1527 l 257
570 1023 m 257
 543 949 l 257
 1227 949 l 257
 1254 1023 l 257
 570 1023 l 257
504 1023 m 257
 168 98 l 257
 241 98 l 257
 577 1023 l 257
 504 1023 l 257
261 174 m 257
 234 98 l 257
 881 98 l 257
 908 174 l 257
 261 174 l 257
1215 1403 m 257
 1186 1324 l 257
 1481 1324 l 257
 1510 1403 l 257
 1215 1403 l 257
EndSplineSet
EndChar

StartChar: dotaccent
Encoding: 385 729 385
GlifName: dotaccent
Width: 1024
VWidth: 0
GlyphClass: 2
Flags: W
LayerCount: 2
Fore
SplineSet
474 1078 m 257
 438 977 l 257
 550 977 l 257
 586 1078 l 257
 474 1078 l 257
EndSplineSet
EndChar

StartChar: dotbelowcomb
Encoding: 386 803 386
GlifName: dotbelowcomb
Width: 0
VWidth: 0
GlyphClass: 4
Flags: W
HStem: -365 75<-146 -146 -146 -93 -93 -93>
AnchorPoint: "base" -108 -290 mark 0
LayerCount: 2
Fore
SplineSet
-146 -290 m 257
 -173 -365 l 257
 -93 -365 l 257
 -66 -290 l 257
 -146 -290 l 257
EndSplineSet
PickledDataWithLists: "(dp0
Vcom.fontlab.hintData
p1
(dp2
Vhhints
p3
(lp4
(dp5
Vposition
p6
I-365
sVwidth
p7
I75
sass."
EndChar

StartChar: dotlessi
Encoding: 387 305 387
GlifName: dotlessi
Width: 1024
VWidth: 0
GlyphClass: 2
Flags: W
AnchorPoint: "top" 912 1155 basechar 0
AnchorPoint: "base" 482 -93 basechar 0
LayerCount: 2
Fore
SplineSet
853 1023 m 257
 499 52 l 257
 559 52 l 257
 913 1023 l 257
 853 1023 l 257
133 60 m 257
 111 0 l 257
 853 0 l 257
 875 60 l 257
 133 60 l 257
534 1023 m 257
 511 962 l 257
 847 962 l 257
 870 1023 l 257
 534 1023 l 257
EndSplineSet
EndChar

StartChar: uni035F
Encoding: 389 863 389
GlifName: doublemacronbelowcomb
Width: 0
VWidth: 0
GlyphClass: 4
Flags: W
AnchorPoint: "base" -78 -163 mark 0
LayerCount: 2
Fore
SplineSet
-524 -204 m 257
 -540 -248 l 257
 352 -248 l 257
 368 -204 l 257
 -524 -204 l 257
EndSplineSet
EndChar

StartChar: arrowdown
Encoding: 390 8595 390
GlifName: downA_rrow
Width: 1024
VWidth: 0
GlyphClass: 2
Flags: W
LayerCount: 2
Fore
SplineSet
614 430 m 257
 674 353 l 257
 674 1118 l 257
 614 1195 l 257
 614 430 l 257
313 667 m 257
 645 322 l 257
 645 397 l 257
 313 742 l 257
 313 667 l 257
645 322 m 257
 978 444 l 257
 978 519 l 257
 645 398 l 257
 645 322 l 257
EndSplineSet
EndChar

StartChar: uni25BE
Encoding: 391 9662 391
GlifName: downB_lackS_mallT_riangle
Width: 1024
VWidth: 0
GlyphClass: 2
Flags: W
LayerCount: 2
Fore
SplineSet
509 470 m 257
 758 884 l 257
 264 886 l 257
 509 470 l 257
EndSplineSet
EndChar

StartChar: triagdn
Encoding: 392 9660 392
GlifName: downB_lackT_riangle
Width: 1024
VWidth: 0
GlyphClass: 2
Flags: W
LayerCount: 2
Fore
SplineSet
507 332 m 257
 923 1021 l 257
 99 1024 l 257
 507 332 l 257
EndSplineSet
EndChar

StartChar: uni25BF
Encoding: 393 9663 393
GlifName: downW_hiteS_mallT_riangle
Width: 1024
VWidth: 0
GlyphClass: 2
Flags: W
LayerCount: 2
Fore
SplineSet
509 470 m 257
 758 884 l 257
 264 886 l 257
 509 470 l 257
515 525 m 257
 318 857 l 257
 714 856 l 257
 515 525 l 257
EndSplineSet
EndChar

StartChar: uni25BD
Encoding: 394 9661 394
GlifName: downW_hiteT_riangle
Width: 1024
VWidth: 0
GlyphClass: 2
Flags: W
LayerCount: 2
Fore
SplineSet
508 353 m 257
 895 1001 l 257
 124 1003 l 257
 508 353 l 257
508 419 m 257
 198 963 l 257
 814 964 l 257
 508 419 l 257
EndSplineSet
EndChar

StartChar: uni045F
Encoding: 397 1119 397
GlifName: dzhe-cy
Width: 1024
VWidth: 0
Flags: W
LayerCount: 2
Fore
SplineSet
589 942 m 257
 62 18 l 257
 122 18 l 257
 649 942 l 257
 589 942 l 257
1430 946 m 257
 896 3 l 257
 956 3 l 257
 1490 946 l 257
 1430 946 l 257
128 60 m 257
 55 0 l 257
 955 0 l 257
 1028 60 l 257
 128 60 l 257
504 25 m 257
 328 -405 l 257
 388 -405 l 257
 564 25 l 257
 504 25 l 257
EndSplineSet
EndChar

StartChar: e
Encoding: 398 101 398
GlifName: e
Width: 1024
VWidth: 0
GlyphClass: 2
Flags: W
AnchorPoint: "top" 899.154 1133 basechar 0
AnchorPoint: "base" 552.154 -87 basechar 0
LayerCount: 2
Fore
SplineSet
590.154 1023 m 257
 558.154 972 l 257
 1197.15 972 l 257
 1229.15 1023 l 257
 590.154 1023 l 257
538.154 1023 m 257
 166.154 0 l 257
 224.154 0 l 257
 596.154 1023 l 257
 538.154 1023 l 257
230.154 61 m 257
 208.154 0 l 257
 853.154 0 l 257
 875.154 61 l 257
 230.154 61 l 257
371.154 506 m 257
 357.154 446 l 257
 986.154 446 l 257
 1008.15 506 l 257
 371.154 506 l 257
1171.15 1023 m 257
 961.154 445 l 257
 1020.15 445 l 257
 1230.15 1023 l 257
 1171.15 1023 l 257
EndSplineSet
EndChar

StartChar: uni0454
Encoding: 399 1108 399
GlifName: e-cy
Width: 1024
VWidth: 0
Flags: W
LayerCount: 2
Fore
SplineSet
880 1026 m 257
 837 966 l 257
 1328 966 l 257
 1371 1026 l 257
 880 1026 l 257
414 536 m 257
 341 476 l 257
 1126 476 l 257
 1199 536 l 257
 414 536 l 257
464 67 m 257
 419 9 l 257
 933 9 l 257
 978 67 l 257
 464 67 l 257
880 1025 m 257
 333 514 l 257
 393 514 l 257
 940 1025 l 257
 880 1025 l 257
335 514 m 257
 419 8 l 257
 479 8 l 257
 395 514 l 257
 335 514 l 257
EndSplineSet
EndChar

StartChar: uni0444
Encoding: 409 1092 409
GlifName: ef-cy
Width: 1024
VWidth: 0
Flags: W
LayerCount: 2
Fore
SplineSet
952 1541 m 257
 396 -430 l 257
 456 -430 l 257
 1012 1541 l 257
 952 1541 l 257
449 968 m 257
 147 45 l 257
 208 45 l 257
 510 968 l 257
 449 968 l 257
1189 968 m 257
 887 45 l 257
 947 45 l 257
 1249 968 l 257
 1189 968 l 257
485 968 m 257
 463 908 l 257
 1199 908 l 257
 1221 968 l 257
 485 968 l 257
209 105 m 257
 187 45 l 257
 907 45 l 257
 929 105 l 257
 209 105 l 257
EndSplineSet
EndChar

StartChar: eight
Encoding: 411 56 411
GlifName: eight
Width: 1024
VWidth: 0
GlyphClass: 2
Flags: W
LayerCount: 2
Fore
SplineSet
620 1550 m 257
 56 0 l 257
 968 0 l 257
 1533 1550 l 257
 620 1550 l 257
1234 899 m 257
 927 57 l 257
 139 57 l 257
 446 899 l 257
 1234 899 l 257
1257 959 m 257
 467 959 l 257
 659 1489 l 257
 1449 1489 l 257
 1257 959 l 257
EndSplineSet
Substitution2: "supsSuperscriptinLatinlookup16 subtable" uni2078
EndChar

StartChar: uni043B
Encoding: 412 1083 412
GlifName: el-cy
Width: 1024
VWidth: 0
Flags: W
LayerCount: 2
Fore
SplineSet
1502 1021 m 257
 939 14 l 257
 999 14 l 257
 1562 1021 l 257
 1502 1021 l 257
962 1021 m 257
 934 961 l 257
 1522 961 l 257
 1550 1021 l 257
 962 1021 l 257
961 1021 m 257
 216 0 l 257
 276 0 l 257
 1021 1021 l 257
 961 1021 l 257
48 61 m 257
 20 1 l 257
 276 1 l 257
 304 61 l 257
 48 61 l 257
EndSplineSet
EndChar

StartChar: ellipsis
Encoding: 413 8230 413
GlifName: ellipsis
Width: 1024
VWidth: 0
GlyphClass: 2
Flags: W
LayerCount: 2
Fore
SplineSet
201 114 m 257
 159 0 l 257
 301 0 l 257
 343 114 l 257
 201 114 l 257
457 114 m 257
 415 0 l 257
 559 0 l 257
 601 114 l 257
 457 114 l 257
723 114 m 257
 681 0 l 257
 823 0 l 257
 865 114 l 257
 723 114 l 257
EndSplineSet
EndChar

StartChar: uni043C
Encoding: 414 1084 414
GlifName: em-cy
Width: 1024
VWidth: 0
Flags: W
AnchorPoint: "base" 505.123 -48 basechar 0
AnchorPoint: "top" 1015.12 1630 basechar 0
LayerCount: 2
Fore
SplineSet
493 1014 m 257
 100.123 0 l 257
 160.123 0 l 257
 553 1014 l 257
 493 1014 l 257
1255 1025 m 257
 862.123 0 l 257
 924.123 0 l 257
 1317 1025 l 257
 1255 1025 l 257
493 1014 m 257
 644 298 l 257
 712 298 l 257
 553 1014 l 257
 493 1014 l 257
1255 1025 m 257
 644 298 l 257
 712 298 l 257
 1317 1014 l 257
 1255 1025 l 257
EndSplineSet
EndChar

StartChar: emdash
Encoding: 416 8212 416
GlifName: emdash
Width: 1024
VWidth: 0
GlyphClass: 2
Flags: W
HStem: 600 51<237 1242 1242 1242>
LayerCount: 2
Fore
SplineSet
218 600 m 257
 1242 600 l 257
 1261 651 l 257
 237 651 l 257
 218 600 l 257
EndSplineSet
PickledDataWithLists: "(dp0
Vcom.fontlab.hintData
p1
(dp2
Vhhints
p3
(lp4
(dp5
Vposition
p6
I600
sVwidth
p7
I51
sass."
EndChar

StartChar: uni043D
Encoding: 419 1085 419
GlifName: en-cy
Width: 1024
VWidth: 0
Flags: W
AnchorPoint: "top" 1005.12 1626 basechar 0
AnchorPoint: "base" 551.123 -54 basechar 0
LayerCount: 2
Fore
SplineSet
527 1035 m 257
 114.123 0 l 257
 173.123 0 l 257
 586 1035 l 257
 527 1035 l 257
1262 1035 m 257
 849.123 0 l 257
 910.123 0 l 257
 1323 1035 l 257
 1262 1035 l 257
359 546 m 257
 337 487 l 257
 1054 487 l 257
 1076 546 l 257
 359 546 l 257
EndSplineSet
EndChar

StartChar: endash
Encoding: 420 8211 420
GlifName: endash
Width: 1024
VWidth: 0
GlyphClass: 2
Flags: W
HStem: 600 80
LayerCount: 2
Fore
SplineSet
117 620 m 257
 943 620 l 257
 973 680 l 257
 147 680 l 257
 117 620 l 257
EndSplineSet
PickledDataWithLists: "(dp0
Vcom.fontlab.hintData
p1
(dp2
Vhhints
p3
(lp4
(dp5
Vposition
p6
I600
sVwidth
p7
I80
sass."
EndChar

StartChar: eng
Encoding: 421 331 421
GlifName: eng
Width: 1024
VWidth: 0
GlyphClass: 2
Flags: W
AnchorPoint: "top" 724 1094 basechar 0
AnchorPoint: "base" 228 -466 basechar 0
LayerCount: 2
Fore
SplineSet
110 -366 m 257
 90 -408 l 257
 477 -408 l 257
 497 -366 l 257
 110 -366 l 257
387 990 m 257
 26 0 l 257
 83 0 l 257
 444 990 l 257
 387 990 l 257
922 976 m 257
 418 -408 l 257
 478 -408 l 257
 982 976 l 257
 922 976 l 257
220 1023 m 257
 201 970 l 257
 979 970 l 257
 998 1023 l 257
 220 1023 l 257
EndSplineSet
EndChar

StartChar: uni025B
Encoding: 423 603 423
GlifName: eopen
Width: 1024
VWidth: 0
GlyphClass: 2
Flags: W
AnchorPoint: "top" 989 1225 basechar 0
AnchorPoint: "base" 552.154 -87 basechar 0
LayerCount: 2
Fore
SplineSet
518 1140 m 257
 345 599 l 257
 405 598 l 257
 578 1139 l 257
 518 1140 l 257
561 1139 m 257
 486 1079 l 257
 1240 1079 l 257
 1315 1139 l 257
 561 1139 l 257
244 60 m 257
 170 0 l 257
 916 0 l 257
 990 60 l 257
 244 60 l 257
408 600 m 257
 335 540 l 257
 840 540 l 257
 913 600 l 257
 408 600 l 257
275 543 m 257
 97 2 l 257
 156 1 l 257
 335 542 l 257
 275 543 l 257
EndSplineSet
EndChar

StartChar: epsilon
Encoding: 424 949 424
GlifName: epsilon
Width: 1024
VWidth: 0
GlyphClass: 2
Flags: W
LayerCount: 2
Fore
SplineSet
518 1140 m 257
 345 599 l 257
 405 598 l 257
 578 1139 l 257
 518 1140 l 257
561 1139 m 257
 486 1079 l 257
 1240 1079 l 257
 1315 1139 l 257
 561 1139 l 257
244 60 m 257
 170 0 l 257
 916 0 l 257
 990 60 l 257
 244 60 l 257
408 600 m 257
 335 540 l 257
 840 540 l 257
 913 600 l 257
 408 600 l 257
275 543 m 257
 97 2 l 257
 156 1 l 257
 335 542 l 257
 275 543 l 257
EndSplineSet
EndChar

StartChar: equal
Encoding: 426 61 426
GlifName: equal
Width: 1024
VWidth: 0
GlyphClass: 2
Flags: W
HStem: 450 374<404 404 404 1084 1084 1084>
LayerCount: 2
Fore
SplineSet
404 824 m 257
 368 724 l 257
 1184 724 l 257
 1220 824 l 257
 404 824 l 257
301 540 m 257
 268 450 l 257
 1084 450 l 257
 1117 540 l 257
 301 540 l 257
EndSplineSet
PickledDataWithLists: "(dp0
Vcom.fontlab.hintData
p1
(dp2
Vhhints
p3
(lp4
(dp5
Vposition
p6
I450
sVwidth
p7
I374
sass."
EndChar

StartChar: uni044D
Encoding: 427 1101 427
GlifName: ereversed-cy
Width: 1024
VWidth: 0
Flags: W
LayerCount: 2
Fore
SplineSet
970 1032 m 257
 479 1032 l 257
 442 972 l 257
 933 972 l 257
 970 1032 l 257
1075 569 m 257
 310 570 l 257
 278 510 l 257
 1063 510 l 257
 1075 569 l 257
580 69 m 257
 66 69 l 257
 21 9 l 257
 535 9 l 257
 580 69 l 257
969 1031 m 257
 909 1031 l 257
 1049 548 l 257
 1109 548 l 257
 969 1031 l 257
1107 548 m 257
 1047 548 l 257
 474 8 l 257
 534 8 l 257
 1107 548 l 257
EndSplineSet
EndChar

StartChar: uni0283
Encoding: 428 643 428
GlifName: esh
Width: 1024
VWidth: 0
GlyphClass: 2
Flags: W
LayerCount: 2
Fore
SplineSet
534 1641 m 257
 311 -399 l 257
 378 -399 l 257
 601 1641 l 257
 534 1641 l 257
131 -340 m 257
 131 -398 l 257
 377 -398 l 257
 377 -340 l 257
 131 -340 l 257
589 1641 m 257
 589 1575 l 257
 925 1575 l 257
 925 1641 l 257
 589 1641 l 257
EndSplineSet
EndChar

StartChar: uni0285
Encoding: 429 645 429
GlifName: eshsquatreversed
Width: 1024
VWidth: 0
GlyphClass: 2
Flags: W
LayerCount: 2
Fore
SplineSet
424 1001 m 257
 493 -408 l 257
 560 -408 l 257
 491 1001 l 257
 424 1001 l 257
542 -350 m 257
 542 -408 l 257
 970 -408 l 257
 970 -350 l 257
 542 -350 l 257
31 1001 m 257
 31 935 l 257
 486 935 l 257
 486 1001 l 257
 31 1001 l 257
EndSplineSet
EndChar

StartChar: estimated
Encoding: 430 8494 430
GlifName: estimated
Width: 1024
VWidth: 0
GlyphClass: 2
Flags: W
LayerCount: 2
Fore
SplineSet
171 798 m 257
 171 718 l 257
 917 719 l 257
 917 799 l 257
 171 798 l 257
726 1098 m 257
 732 727 l 257
 916 727 l 257
 910 1098 l 257
 726 1098 l 257
167 1103 m 257
 168 731 l 257
 347 731 l 257
 346 1103 l 257
 167 1103 l 257
168 1175 m 257
 168 1081 l 257
 513 1125 l 257
 513 1219 l 257
 168 1175 l 257
513 1221 m 257
 512 1123 l 257
 910 1081 l 257
 911 1179 l 257
 513 1221 l 257
171 731 m 257
 171 287 l 257
 252 287 l 257
 252 731 l 257
 171 731 l 257
171 342 m 257
 171 248 l 257
 513 183 l 257
 513 277 l 257
 171 342 l 257
512 277 m 257
 512 183 l 257
 911 247 l 257
 911 341 l 257
 512 277 l 257
EndSplineSet
EndChar

StartChar: eta
Encoding: 431 951 431
GlifName: eta
Width: 1024
VWidth: 0
GlyphClass: 2
Flags: W
LayerCount: 2
Fore
SplineSet
493 990 m 257
 132 0 l 257
 192 0 l 257
 553 990 l 257
 493 990 l 257
1027 976 m 257
 523 -409 l 257
 583 -409 l 257
 1087 976 l 257
 1027 976 l 257
326 1023 m 257
 304 963 l 257
 1082 963 l 257
 1104 1023 l 257
 326 1023 l 257
EndSplineSet
EndChar

StartChar: eth
Encoding: 433 240 433
GlifName: eth
Width: 1024
VWidth: 0
GlyphClass: 2
Flags: W
AnchorPoint: "top" 767 1633 basechar 0
AnchorPoint: "base" 503 -143 basechar 0
LayerCount: 2
Fore
SplineSet
740 1550 m 257
 780 0 l 257
 828 0 l 257
 796 1550 l 257
 740 1550 l 257
481 1023 m 257
 459 964 l 257
 783 964 l 257
 805 1023 l 257
 481 1023 l 257
441 1023 m 257
 68 0 l 257
 128 0 l 257
 501 1023 l 257
 441 1023 l 257
136 59 m 257
 114 0 l 257
 780 0 l 257
 802 59 l 257
 136 59 l 257
612 1416 m 257
 588 1351 l 257
 932 1351 l 257
 956 1416 l 257
 612 1416 l 257
EndSplineSet
EndChar

StartChar: exclam
Encoding: 436 33 436
GlifName: exclam
Width: 1024
VWidth: 0
GlyphClass: 2
Flags: W
LayerCount: 2
Fore
SplineSet
231 9 m 257
 298 9 l 257
 333 107 l 257
 266 107 l 257
 231 9 l 257
351 344 m 257
 423 344 l 257
 793 1362 l 257
 721 1362 l 257
 351 344 l 257
EndSplineSet
EndChar

StartChar: exclamdown
Encoding: 437 161 437
GlifName: exclamdown
Width: 1024
VWidth: 0
GlyphClass: 2
Flags: W
LayerCount: 2
Fore
SplineSet
815 1520 m 257
 755 1520 l 257
 664 1272 l 257
 724 1272 l 257
 815 1520 l 257
634 1035 m 257
 580 1035 l 257
 209 17 l 257
 267 17 l 257
 634 1035 l 257
EndSplineSet
EndChar

StartChar: uni0292
Encoding: 438 658 438
GlifName: ezh
Width: 1024
VWidth: 0
GlyphClass: 2
Flags: W
LayerCount: 2
Fore
SplineSet
806 0 m 257
 878 60 l 257
 236 60 l 257
 164 0 l 257
 806 0 l 257
877 58 m 257
 1087 619 l 257
 1026 619 l 257
 816 58 l 257
 877 58 l 257
1002 559 m 257
 1075 619 l 257
 399 619 l 257
 326 559 l 257
 1002 559 l 257
585 1274 m 257
 513 1214 l 257
 1341 1214 l 257
 1413 1274 l 257
 585 1274 l 257
1269 1214 m 257
 399 619 l 257
 502 619 l 257
 1341 1214 l 257
 1269 1214 l 257
EndSplineSet
EndChar

StartChar: uni01B9
Encoding: 440 441 440
GlifName: ezhreversed
Width: 1024
VWidth: 0
GlyphClass: 2
Flags: W
LayerCount: 2
Fore
SplineSet
210 0 m 257
 906 0 l 257
 978 60 l 257
 282 60 l 257
 210 0 l 257
226 39 m 257
 287 39 l 257
 494 619 l 257
 433 619 l 257
 226 39 l 257
409 559 m 257
 1048 559 l 257
 1121 619 l 257
 482 619 l 257
 409 559 l 257
1413 1274 m 257
 585 1274 l 257
 513 1214 l 257
 1341 1214 l 257
 1413 1274 l 257
585 1214 m 257
 513 1214 l 257
 1018 619 l 257
 1126 619 l 257
 585 1214 l 257
EndSplineSet
EndChar

StartChar: f
Encoding: 441 102 441
GlifName: f
Width: 1024
VWidth: 0
GlyphClass: 2
Flags: W
AnchorPoint: "top" 1164.71 1640 basechar 0
AnchorPoint: "base" 818.711 -116 basechar 0
LayerCount: 2
Fore
SplineSet
974.711 1551 m 257
 423.711 -6 l 257
 483.711 -6 l 257
 1034.71 1551 l 257
 974.711 1551 l 257
974.711 1551 m 257
 952.711 1491 l 257
 1350.71 1491 l 257
 1372.71 1551 l 257
 974.711 1551 l 257
529.711 862 m 257
 507.711 802 l 257
 985.711 802 l 257
 1007.71 862 l 257
 529.711 862 l 257
EndSplineSet
EndChar

StartChar: five
Encoding: 445 53 445
GlifName: five
Width: 1024
VWidth: 0
GlyphClass: 2
Flags: W
LayerCount: 2
Fore
SplineSet
1233 899 m 257
 927 58 l 257
 69 58 l 257
 48 0 l 257
 966 0 l 257
 1315 959 l 257
 458 959 l 257
 652 1492 l 257
 1519 1492 l 257
 1540 1550 l 257
 613 1550 l 257
 376 899 l 257
 1233 899 l 257
EndSplineSet
Substitution2: "supsSuperscriptinLatinlookup16 subtable" uni2075
EndChar

StartChar: four
Encoding: 447 52 447
GlifName: four
Width: 1024
VWidth: 0
GlyphClass: 2
Flags: W
LayerCount: 2
Fore
SplineSet
370 761 m 257
 1151 761 l 257
 877 7 l 257
 934 7 l 257
 1495 1550 l 257
 1435 1550 l 257
 1170 821 l 257
 452 821 l 257
 717 1550 l 257
 657 1550 l 257
 370 761 l 257
EndSplineSet
Substitution2: "supsSuperscriptinLatinlookup16 subtable" uni2074
EndChar

StartChar: franc
Encoding: 448 8355 448
GlifName: franc
Width: 1024
VWidth: 0
GlyphClass: 2
Flags: W
LayerCount: 2
Fore
SplineSet
206 565 m 257
 193 531 l 257
 527 531 l 257
 540 565 l 257
 206 565 l 257
704 1548 m 257
 141 0 l 257
 179 0 l 257
 742 1548 l 257
 704 1548 l 257
738 1548 m 257
 721 1501 l 257
 1423 1501 l 257
 1440 1548 l 257
 738 1548 l 257
457 828 m 257
 444 791 l 257
 1068 791 l 257
 1081 828 l 257
 457 828 l 257
EndSplineSet
EndChar

StartChar: g
Encoding: 449 103 449
GlifName: g
Width: 1024
VWidth: 0
GlyphClass: 2
Flags: W
AnchorPoint: "top" 709.342 1176 basechar 0
AnchorPoint: "base" 701.342 -460 basechar 0
LayerCount: 2
Fore
SplineSet
595.342 1023 m 257
 223.342 0 l 257
 283.342 0 l 257
 655.342 1023 l 257
 595.342 1023 l 257
635.342 1023 m 257
 613.342 962 l 257
 1129.34 962 l 257
 1151.34 1023 l 257
 635.342 1023 l 257
1113.34 1023 m 257
 591.342 -411 l 257
 651.342 -411 l 257
 1173.34 1023 l 257
 1113.34 1023 l 257
307.342 58 m 257
 286.342 0 l 257
 743.342 0 l 257
 764.342 58 l 257
 307.342 58 l 257
134.342 -354 m 257
 113.342 -413 l 257
 602.342 -413 l 257
 623.342 -354 l 257
 134.342 -354 l 257
EndSplineSet
EndChar

StartChar: gamma
Encoding: 450 947 450
GlifName: gamma
Width: 1024
VWidth: 0
GlyphClass: 2
Flags: W
LayerCount: 2
Fore
SplineSet
452 235 m 257
 222 -398 l 257
 282 -398 l 257
 512 235 l 257
 452 235 l 257
489 1026 m 257
 438 197 l 257
 498 197 l 257
 552 1026 l 257
 489 1026 l 257
994 1026 m 257
 438 197 l 257
 498 197 l 257
 1053 1026 l 257
 994 1026 l 257
EndSplineSet
EndChar

StartChar: uni0263
Encoding: 451 611 451
GlifName: gamma_latin
Width: 1024
VWidth: 0
GlyphClass: 2
Flags: W
LayerCount: 2
Fore
SplineSet
880 935 m 257
 770 -158 l 257
 830 -158 l 257
 940 935 l 257
 880 935 l 257
1400 965 m 257
 292 -158 l 257
 352 -158 l 257
 1461 965 l 257
 1400 965 l 257
219 -217 m 257
 757 -218 l 257
 831 -158 l 257
 293 -158 l 257
 219 -217 l 257
EndSplineSet
EndChar

StartChar: uni0433
Encoding: 456 1075 456
GlifName: ge-cy
Width: 1024
VWidth: 0
Flags: W
LayerCount: 2
Fore
SplineSet
478 1021 m 257
 457 961 l 257
 1231 961 l 257
 1252 1021 l 257
 478 1021 l 257
472 992 m 257
 131.184 6 l 257
 191.184 6 l 257
 532 992 l 257
 472 992 l 257
EndSplineSet
EndChar

StartChar: germandbls
Encoding: 457 223 457
GlifName: germandbls
Width: 1024
VWidth: 0
GlyphClass: 2
Flags: W
LayerCount: 2
Fore
SplineSet
471 1084 m 257
 448 1023 l 257
 699 1023 l 257
 722 1084 l 257
 471 1084 l 257
825 1550 m 257
 261 0 l 257
 325 0 l 257
 889 1550 l 257
 825 1550 l 257
877 1550 m 257
 855 1488 l 257
 1462 1488 l 257
 1484 1550 l 257
 877 1550 l 257
1450 1550 m 257
 1258 1023 l 257
 1319 1023 l 257
 1511 1550 l 257
 1450 1550 l 257
1197 848 m 257
 952 175 l 257
 1010 175 l 257
 1255 848 l 257
 1197 848 l 257
673 187 m 257
 653 131 l 257
 996 131 l 257
 1016 187 l 257
 673 187 l 257
1003 1081 m 257
 982 1027 l 257
 1260 1023 l 257
 1282 1080 l 257
 1003 1081 l 257
919 847 m 257
 898 787 l 257
 1178 787 l 257
 1202 847 l 257
 919 847 l 257
939 1222 m 257
 859 679 l 257
 910 680 l 257
 991 1223 l 257
 939 1222 l 257
EndSplineSet
EndChar

StartChar: uni0491
Encoding: 458 1169 458
GlifName: geupturn-cy
Width: 1024
VWidth: 0
Flags: W
LayerCount: 2
Fore
SplineSet
688 1023 m 257
 667 963 l 257
 1441 963 l 257
 1462 1023 l 257
 688 1023 l 257
682 994 m 257
 131.184 6 l 257
 191.184 6 l 257
 742 994 l 257
 682 994 l 257
1561 1295 m 257
 1400 965 l 257
 1435 965 l 257
 1596 1295 l 257
 1561 1295 l 257
EndSplineSet
EndChar

StartChar: uni0294
Encoding: 461 660 461
GlifName: glottalstop
Width: 1024
VWidth: 0
GlyphClass: 2
Flags: W
LayerCount: 2
Fore
SplineSet
645 1543 m 257
 573 1483 l 257
 1101 1483 l 257
 1173 1543 l 257
 645 1543 l 257
1113 1543 m 257
 926 1028 l 257
 986 1028 l 257
 1173 1543 l 257
 1113 1543 l 257
542 1073 m 257
 508 1013 l 257
 968 1013 l 257
 1002 1073 l 257
 542 1073 l 257
529 1073 m 257
 188 167 l 257
 248 167 l 257
 589 1073 l 257
 529 1073 l 257
EndSplineSet
EndChar

StartChar: uni02C0
Encoding: 462 704 462
GlifName: glottalstopmod
Width: 1024
VWidth: 0
GlyphClass: 2
Flags: W
LayerCount: 2
Fore
SplineSet
645 1543 m 257
 573 1483 l 257
 1101 1483 l 257
 1173 1543 l 257
 645 1543 l 257
1113 1543 m 257
 926 1028 l 257
 986 1028 l 257
 1173 1543 l 257
 1113 1543 l 257
542 1073 m 257
 513 1013 l 257
 973 1013 l 257
 1002 1073 l 257
 542 1073 l 257
529 1073 m 257
 347 572 l 257
 407 572 l 257
 589 1073 l 257
 529 1073 l 257
EndSplineSet
EndChar

StartChar: uni0295
Encoding: 463 661 463
GlifName: glottalstopreversed
Width: 1024
VWidth: 0
GlyphClass: 2
Flags: W
LayerCount: 2
Fore
SplineSet
1321 1543 m 257
 793 1543 l 257
 764 1483 l 257
 1292 1483 l 257
 1321 1543 l 257
853 1543 m 257
 793 1543 l 257
 605 1028 l 257
 665 1028 l 257
 853 1543 l 257
1082 1073 m 257
 622 1073 l 257
 599 1013 l 257
 1059 1013 l 257
 1082 1073 l 257
1095 1073 m 257
 1035 1073 l 257
 705 167 l 257
 765 167 l 257
 1095 1073 l 257
EndSplineSet
EndChar

StartChar: grave
Encoding: 465 96 465
GlifName: grave
Width: 1024
VWidth: 0
GlyphClass: 2
Flags: W
LayerCount: 2
Fore
SplineSet
894.4 1286 m 257
 894.4 1057 l 257
 1002.4 1112 l 257
 993.4 1340 l 257
 894.4 1286 l 257
EndSplineSet
EndChar

StartChar: gravecomb
Encoding: 466 768 466
GlifName: gravecomb
Width: 0
VWidth: 0
GlyphClass: 4
Flags: W
AnchorPoint: "top" 9 784 mark 0
LayerCount: 2
Fore
SplineSet
-78 997 m 257
 -28 793 l 257
 52 847 l 257
 2 1052 l 257
 -78 997 l 257
EndSplineSet
EndChar

StartChar: greater
Encoding: 468 62 468
GlifName: greater
Width: 1024
VWidth: 0
GlyphClass: 2
Flags: W
LayerCount: 2
Fore
SplineSet
1151 632 m 257
 474 1013 l 257
 452 952 l 257
 1128 569 l 257
 1151 632 l 257
1151 632 m 257
 171 186 l 257
 147 122 l 257
 1128 569 l 257
 1151 632 l 257
EndSplineSet
EndChar

StartChar: greaterequal
Encoding: 469 8805 469
GlifName: greaterequal
Width: 1024
VWidth: 0
GlyphClass: 2
Flags: W
LayerCount: 2
Fore
SplineSet
108 -5 m 257
 95 -41 l 257
 899 -41 l 257
 912 -5 l 257
 108 -5 l 257
1181 712 m 257
 468 1012 l 257
 452 967 l 257
 1166 664 l 257
 1181 712 l 257
1181 711 m 257
 194 253 l 257
 178 209 l 257
 1162 655 l 257
 1181 711 l 257
EndSplineSet
EndChar

StartChar: guillemotleft
Encoding: 472 171 472
GlifName: guillemotleft
Width: 1024
VWidth: 0
GlyphClass: 2
Flags: W
LayerCount: 2
Fore
SplineSet
48 509 m 257
 34 472 l 257
 575 757 l 257
 585 784 l 257
 48 509 l 257
48 509 m 257
 34 472 l 257
 275 122 l 257
 297 160 l 257
 48 509 l 257
472 527 m 257
 462 498 l 257
 975 783 l 257
 990 823 l 257
 472 527 l 257
471 527 m 257
 460 497 l 257
 690 122 l 257
 717 149 l 257
 471 527 l 257
EndSplineSet
EndChar

StartChar: guillemotright
Encoding: 473 187 473
GlifName: guillemotright
Width: 1024
VWidth: 0
GlyphClass: 2
Flags: W
LayerCount: 2
Fore
SplineSet
978 509 m 257
 641 784 l 257
 631 757 l 257
 963 472 l 257
 978 509 l 257
978 509 m 257
 474 160 l 257
 469 122 l 257
 963 472 l 257
 978 509 l 257
566 527 m 257
 264 823 l 257
 249 783 l 257
 557 498 l 257
 566 527 l 257
567 527 m 257
 46 149 l 257
 54 122 l 257
 556 497 l 257
 567 527 l 257
EndSplineSet
EndChar

StartChar: guilsinglleft
Encoding: 474 8249 474
GlifName: guilsinglleft
Width: 1024
VWidth: 0
GlyphClass: 2
Flags: W
LayerCount: 2
Fore
SplineSet
52 652 m 257
 22 569 l 257
 977 946 l 257
 1002 1013 l 257
 52 652 l 257
52 652 m 257
 22 569 l 257
 672 122 l 257
 700 199 l 257
 52 652 l 257
EndSplineSet
EndChar

StartChar: guilsinglright
Encoding: 475 8250 475
GlifName: guilsinglright
Width: 1024
VWidth: 0
GlyphClass: 2
Flags: W
LayerCount: 2
Fore
SplineSet
1014 632 m 257
 336 1013 l 257
 314 952 l 257
 991 569 l 257
 1014 632 l 257
1014 632 m 257
 33 186 l 257
 10 122 l 257
 991 569 l 257
 1014 632 l 257
EndSplineSet
EndChar

StartChar: h
Encoding: 476 104 476
GlifName: h
Width: 1024
VWidth: 0
GlyphClass: 2
Flags: W
AnchorPoint: "top" 778.092 1631 basechar 0
AnchorPoint: "base" 529.092 -52 basechar 0
LayerCount: 2
Fore
SplineSet
729.092 1525 m 257
 176.092 6 l 257
 235.092 6 l 257
 788.092 1525 l 257
 729.092 1525 l 257
588.092 1028 m 257
 566.092 968 l 257
 1155.09 968 l 257
 1177.09 1028 l 257
 588.092 1028 l 257
1165.09 1028 m 257
 791.092 0 l 257
 850.092 0 l 257
 1224.09 1028 l 257
 1165.09 1028 l 257
EndSplineSet
EndChar

StartChar: uni044A
Encoding: 477 1098 477
GlifName: hardsign-cy
Width: 1024
VWidth: 0
Flags: W
AnchorPoint: "base" 469.02 -72 basechar 0
AnchorPoint: "top" 746.02 1622 basechar 0
LayerCount: 2
Fore
SplineSet
906 1021 m 257
 473 0 l 257
 533 0 l 257
 966 1021 l 257
 906 1021 l 257
706 584 m 257
 692 523 l 257
 1149 523 l 257
 1164 584 l 257
 706 584 l 257
1151 584 m 257
 903 0 l 257
 963 0 l 257
 1211 584 l 257
 1151 584 l 257
497 60 m 257
 485 0 l 257
 951 0 l 257
 963 60 l 257
 497 60 l 257
500 1021 m 257
 487 962 l 257
 941 962 l 257
 954 1021 l 257
 500 1021 l 257
EndSplineSet
EndChar

StartChar: hbar
Encoding: 478 295 478
GlifName: hbar
Width: 1024
VWidth: 0
GlyphClass: 2
Flags: W
LayerCount: 2
Fore
SplineSet
548 1541 m 257
 -11 6 l 257
 49 6 l 257
 608 1541 l 257
 548 1541 l 257
393 1023 m 257
 372 966 l 257
 1006 966 l 257
 1027 1023 l 257
 393 1023 l 257
976 1023 m 257
 604 0 l 257
 663 0 l 257
 1035 1023 l 257
 976 1023 l 257
371 1429 m 257
 349 1369 l 257
 805 1369 l 257
 827 1429 l 257
 371 1429 l 257
EndSplineSet
EndChar

StartChar: hookabovecomb
Encoding: 483 777 483
GlifName: hookabovecomb
Width: 0
VWidth: 0
GlyphClass: 4
Flags: W
VStem: 346 460
AnchorPoint: "top" 9 778 mark 0
LayerCount: 2
Fore
SplineSet
100 1148 m 257
 86 1109 l 257
 289 1109 l 257
 303 1148 l 257
 100 1148 l 257
277 1148 m 257
 209 962 l 257
 238 962 l 257
 306 1148 l 257
 277 1148 l 257
75 973 m 257
 62 937 l 257
 228 937 l 257
 241 973 l 257
 75 973 l 257
75 973 m 257
 23 830 l 257
 51 830 l 257
 103 973 l 257
 75 973 l 257
EndSplineSet
PickledDataWithLists: "(dp0
Vcom.fontlab.hintData
p1
(dp2
Vvhints
p3
(lp4
(dp5
Vposition
p6
I346
sVwidth
p7
I460
sass."
EndChar

StartChar: uni20B4
Encoding: 485 8372 485
GlifName: hryvnia
Width: 1024
VWidth: 0
GlyphClass: 2
Flags: W
LayerCount: 2
Fore
SplineSet
1497 1553 m 257
 899 1553 l 257
 826 1494 l 257
 1424 1494 l 257
 1497 1553 l 257
1499 1542 m 257
 1440 1542 l 257
 1253 1028 l 257
 1312 1028 l 257
 1499 1542 l 257
982 60 m 257
 274 60 l 257
 202 0 l 257
 910 0 l 257
 982 60 l 257
225 0 m 257
 354 355 l 257
 295 355 l 257
 166 0 l 257
 225 0 l 257
1312 1028 m 257
 1252 1030 l 257
 295 355 l 257
 354 355 l 257
 1312 1028 l 257
434 906 m 257
 434 846 l 257
 1178 846 l 257
 1178 906 l 257
 434 906 l 257
329 635 m 257
 329 575 l 257
 1079 575 l 257
 1079 635 l 257
 329 635 l 257
EndSplineSet
EndChar

StartChar: hungarumlaut
Encoding: 489 733 489
GlifName: hungarumlaut
Width: 1024
VWidth: 0
GlyphClass: 2
Flags: W
LayerCount: 2
Fore
SplineSet
235 122 m 257
 300 122 l 257
 391 370 l 257
 326 370 l 257
 235 122 l 257
638 122 m 257
 698 122 l 257
 789 370 l 257
 729 370 l 257
 638 122 l 257
EndSplineSet
EndChar

StartChar: hyphen
Encoding: 490 45 490
GlifName: hyphen
Width: 1024
VWidth: 0
GlyphClass: 2
Flags: W
LayerCount: 2
Fore
SplineSet
117 793 m 257
 81 733 l 257
 907 733 l 257
 943 793 l 257
 117 793 l 257
EndSplineSet
EndChar

StartChar: i
Encoding: 492 105 492
GlifName: i
Width: 1024
VWidth: 0
GlyphClass: 2
Flags: W
AnchorPoint: "top" 876.919 1405 basechar 0
AnchorPoint: "base" 491 -78 basechar 0
LayerCount: 2
Fore
SplineSet
882.919 1023 m 257
 528.919 52 l 257
 588.919 52 l 257
 942.919 1023 l 257
 882.919 1023 l 257
162.919 60 m 257
 140.919 0 l 257
 882.919 0 l 257
 904.919 60 l 257
 162.919 60 l 257
794.919 1292 m 257
 751.919 1174 l 257
 864.919 1174 l 257
 907.919 1292 l 257
 794.919 1292 l 257
563.919 1023 m 257
 540.919 962 l 257
 876.919 962 l 257
 899.919 1023 l 257
 563.919 1023 l 257
EndSplineSet
Substitution2: "Single Substitution lookup 5 subtable" dotlessi
EndChar

StartChar: uni026A
Encoding: 495 618 495
GlifName: icapitalsmall
Width: 1024
VWidth: 0
GlyphClass: 2
Flags: W
AnchorPoint: "top" 1042.1 1653 basechar 0
AnchorPoint: "base" 496.104 -82 basechar 0
LayerCount: 2
Fore
SplineSet
718 1032 m 257
 696 971 l 257
 1397 971 l 257
 1419 1032 l 257
 718 1032 l 257
1029 997 m 257
 490.104 34 l 257
 549.104 34 l 257
 1088 997 l 257
 1029 997 l 257
158.104 66 m 257
 136.104 6 l 257
 892.104 6 l 257
 914.104 66 l 257
 158.104 66 l 257
EndSplineSet
EndChar

StartChar: uni0438
Encoding: 500 1080 500
GlifName: ii-cy
Width: 1024
VWidth: 0
Flags: W
LayerCount: 2
Fore
SplineSet
599 1019 m 257
 34 0 l 257
 94 0 l 257
 659 1019 l 257
 599 1019 l 257
1494 1019 m 257
 929 0 l 257
 989 0 l 257
 1554 1019 l 257
 1494 1019 l 257
1494 1019 m 257
 34 0 l 257
 94 0 l 257
 1555 1019 l 257
 1494 1019 l 257
EndSplineSet
EndChar

StartChar: Delta
Encoding: 505 8710 505
GlifName: increment
Width: 1024
VWidth: 0
GlyphClass: 2
Flags: W
LayerCount: 2
Fore
SplineSet
125 57 m 257
 125 0 l 257
 899 0 l 257
 899 57 l 257
 125 57 l 257
917 0 m 257
 578 1548 l 257
 506 1548 l 257
 865 0 l 257
 917 0 l 257
155 0 m 257
 511 1548 l 257
 440 1548 l 257
 106 0 l 257
 155 0 l 257
EndSplineSet
EndChar

StartChar: infinity
Encoding: 506 8734 506
GlifName: infinity
Width: 1024
VWidth: 0
GlyphClass: 2
Flags: W
LayerCount: 2
Fore
SplineSet
407 1023 m 257
 383 963 l 257
 630 963 l 257
 702 1023 l 257
 407 1023 l 257
393 984 m 257
 35 0 l 257
 95 0 l 257
 453 984 l 257
 393 984 l 257
119 60 m 257
 64 0 l 257
 352 0 l 257
 391 60 l 257
 119 60 l 257
673 16 m 257
 745 32 l 257
 700 1024 l 257
 618 990 l 257
 673 16 l 257
347 3 m 257
 1065 939 l 257
 1044 975 l 257
 326 39 l 257
 347 3 l 257
1044 999 m 257
 1020 939 l 257
 1397 939 l 257
 1469 999 l 257
 1044 999 l 257
1417 998 m 257
 887 4 l 257
 950 1 l 257
 1471 1002 l 257
 1417 998 l 257
723 84 m 257
 673 18 l 257
 951 -1 l 257
 929 59 l 257
 723 84 l 257
EndSplineSet
EndChar

StartChar: integral
Encoding: 507 8747 507
GlifName: integral
Width: 1024
VWidth: 0
GlyphClass: 2
Flags: W
LayerCount: 2
Fore
SplineSet
534 1641 m 257
 311 -399 l 257
 378 -399 l 257
 601 1641 l 257
 534 1641 l 257
131 -340 m 257
 131 -398 l 257
 377 -398 l 257
 377 -340 l 257
 131 -340 l 257
606 1641 m 257
 606 1575 l 257
 925 1575 l 257
 925 1641 l 257
 606 1641 l 257
EndSplineSet
EndChar

StartChar: iota
Encoding: 510 953 510
GlifName: iota
Width: 1024
VWidth: 0
GlyphClass: 2
Flags: W
LayerCount: 2
Fore
SplineSet
664 1018 m 257
 333 107 l 257
 393 107 l 257
 724 1018 l 257
 664 1018 l 257
356 172 m 257
 332 106 l 257
 792 6 l 257
 816 72 l 257
 356 172 l 257
EndSplineSet
EndChar

StartChar: uni0269
Encoding: 511 617 511
GlifName: iota_latin
Width: 1024
VWidth: 0
GlyphClass: 2
Flags: W
AnchorPoint: "top" 912 1155 basechar 0
LayerCount: 2
Fore
SplineSet
664 1018 m 257
 333 107 l 257
 393 107 l 257
 724 1018 l 257
 664 1018 l 257
356 172 m 257
 332 106 l 257
 792 6 l 257
 816 72 l 257
 356 172 l 257
EndSplineSet
EndChar

StartChar: uni0475
Encoding: 522 1141 522
GlifName: izhitsa-cy
Width: 1024
VWidth: 0
Flags: W
AnchorPoint: "top" 983.246 1642 basechar 0
AnchorPoint: "base" 531.246 -78 basechar 0
LayerCount: 2
Fore
SplineSet
415 1029 m 257
 514.246 0 l 257
 574.246 0 l 257
 479 1029 l 257
 415 1029 l 257
1157 1029 m 257
 514.246 0 l 257
 574.246 0 l 257
 1227 1029 l 257
 1157 1029 l 257
1137 971 m 257
 1281 968 l 257
 1295 1031 l 257
 1159 1029 l 257
 1137 971 l 257
EndSplineSet
EndChar

StartChar: j
Encoding: 523 106 523
GlifName: j
Width: 1024
VWidth: 0
GlyphClass: 2
Flags: W
AnchorPoint: "top" 1255.58 1348 basechar 0
AnchorPoint: "base" 348.579 -486 basechar 0
LayerCount: 2
Fore
SplineSet
1140.58 1023 m 257
 618.579 -411 l 257
 676.579 -411 l 257
 1198.58 1023 l 257
 1140.58 1023 l 257
71.5791 -348 m 257
 50.5791 -406 l 257
 640.579 -406 l 257
 661.579 -348 l 257
 71.5791 -348 l 257
195.579 -6 m 257
 60.5791 -378 l 257
 120.579 -378 l 257
 255.579 -6 l 257
 195.579 -6 l 257
1202.58 1201 m 257
 1181.58 1142 l 257
 1241.58 1142 l 257
 1262.58 1201 l 257
 1202.58 1201 l 257
EndSplineSet
Substitution2: "Single Substitution lookup 5 subtable" uni0237
EndChar

StartChar: uni029D
Encoding: 526 669 526
GlifName: jcrossedtail
Width: 1024
VWidth: 0
GlyphClass: 2
Flags: W
AnchorPoint: "top" 1255.58 1348 basechar 0
AnchorPoint: "base" 348.579 -486 basechar 0
LayerCount: 2
Fore
SplineSet
1140.58 1023 m 257
 618.579 -411 l 257
 676.579 -411 l 257
 1198.58 1023 l 257
 1140.58 1023 l 257
71.5791 -348 m 257
 50.5791 -406 l 257
 640.579 -406 l 257
 661.579 -348 l 257
 71.5791 -348 l 257
195.579 -6 m 257
 60.5791 -378 l 257
 120.579 -378 l 257
 255.579 -6 l 257
 195.579 -6 l 257
1202.58 1201 m 257
 1181.58 1142 l 257
 1241.58 1142 l 257
 1262.58 1201 l 257
 1202.58 1201 l 257
192 -12 m 257
 1018 -12 l 257
 1048 68 l 257
 222 68 l 257
 192 -12 l 257
EndSplineSet
EndChar

StartChar: k
Encoding: 530 107 530
GlifName: k
Width: 1024
VWidth: 0
GlyphClass: 2
Flags: W
AnchorPoint: "base" 446.91 -24 basechar 0
AnchorPoint: "top" 710.91 1638 basechar 0
LayerCount: 2
Fore
SplineSet
634.91 1535 m 257
 77.9102 5 l 257
 137.91 5 l 257
 694.91 1535 l 257
 634.91 1535 l 257
277.91 421 m 257
 252.91 352 l 257
 1153.91 1023 l 257
 1093.91 1023 l 257
 277.91 421 l 257
594.91 612 m 257
 536.91 569 l 257
 886.91 0 l 257
 947.91 0 l 257
 594.91 612 l 257
EndSplineSet
EndChar

StartChar: uni03D7
Encoding: 531 983 531
GlifName: kaiS_ymbol
Width: 1024
VWidth: 0
GlyphClass: 2
Flags: W
LayerCount: 2
Fore
SplineSet
549 1017 m 257
 480 961 l 257
 799 851 l 257
 940 909 l 257
 549 1017 l 257
880 925 m 257
 262 39 l 257
 320 22 l 257
 938 908 l 257
 880 925 l 257
1306 1033 m 257
 257 37 l 257
 327 18 l 257
 1376 1014 l 257
 1306 1033 l 257
1298 1035 m 257
 639 39 l 257
 700 -5 l 257
 1359 991 l 257
 1298 1035 l 257
711 39 m 257
 701 -5 l 257
 978 -1 l 257
 1102 39 l 257
 711 39 l 257
434 -294 m 257
 495 -314 l 257
 814 -238 l 257
 838 -214 l 257
 434 -294 l 257
1083 39 m 257
 977 -2 l 257
 788 -224 l 257
 814 -239 l 257
 1083 39 l 257
EndSplineSet
EndChar

StartChar: kgreenlandic
Encoding: 533 312 533
GlifName: kgreenlandic
Width: 1024
VWidth: 0
GlyphClass: 2
Flags: W
AnchorPoint: "base" 63 -129 basechar 0
AnchorPoint: "top" 522 1151 basechar 0
LayerCount: 2
Fore
SplineSet
452 1033 m 257
 78 5 l 257
 138 5 l 257
 512 1033 l 257
 452 1033 l 257
278 421 m 257
 253 352 l 257
 1357 1023 l 257
 1297 1023 l 257
 278 421 l 257
584 582 m 257
 526 539 l 257
 887 0 l 257
 948 0 l 257
 584 582 l 257
EndSplineSet
EndChar

StartChar: l
Encoding: 538 108 538
GlifName: l
Width: 1024
VWidth: 0
GlyphClass: 2
Flags: W
AnchorPoint: "base" 500.104 -87 basechar 0
AnchorPoint: "top" 1106.1 1630 basechar 0
LayerCount: 2
Fore
SplineSet
221.104 72 m 257
 195.104 0 l 257
 829.104 0 l 257
 855.104 72 l 257
 221.104 72 l 257
1047.1 1553 m 257
 503.104 57 l 257
 563.104 57 l 257
 1107.1 1553 l 257
 1047.1 1553 l 257
821.104 1553 m 257
 800.104 1494 l 257
 1035.1 1494 l 257
 1056.1 1553 l 257
 821.104 1553 l 257
EndSplineSet
EndChar

StartChar: lambda
Encoding: 541 955 541
GlifName: lambda
Width: 1024
VWidth: 0
GlyphClass: 2
Flags: W
LayerCount: 2
Fore
SplineSet
-10 0 m 257
 60 0 l 257
 626 777 l 257
 560 777 l 257
 -10 0 l 257
452 0 m 257
 511 0 l 257
 665 1047 l 257
 599 1047 l 257
 452 0 l 257
EndSplineSet
EndChar

StartChar: uni20BE
Encoding: 542 8382 542
GlifName: lari
Width: 1024
VWidth: 0
GlyphClass: 2
Flags: W
LayerCount: 2
Fore
SplineSet
160 69 m 257
 86 9 l 257
 921 9 l 257
 995 69 l 257
 160 69 l 257
613 1040 m 257
 544 980 l 257
 1172 980 l 257
 1241 1040 l 257
 613 1040 l 257
795 1159 m 257
 632 711 l 257
 687 711 l 257
 850 1159 l 257
 795 1159 l 257
1242 1040 m 257
 1161 1016 l 257
 1180 611 l 257
 1224 612 l 257
 1242 1040 l 257
256 609 m 257
 264 592 l 257
 604 982 l 257
 614 1039 l 257
 256 609 l 257
287 65 m 257
 345 64 l 257
 314 592 l 257
 257 609 l 257
 287 65 l 257
1028 1167 m 257
 865 719 l 257
 908 722 l 257
 1071 1170 l 257
 1028 1167 l 257
EndSplineSet
EndChar

StartChar: lcaron
Encoding: 543 318 543
GlifName: lcaron
Width: 1024
VWidth: 0
GlyphClass: 2
Flags: W
LayerCount: 2
Fore
SplineSet
19 62 m 257
 -3 0 l 257
 631 0 l 257
 653 62 l 257
 19 62 l 257
857 1550 m 257
 309 46 l 257
 367 46 l 257
 915 1550 l 257
 857 1550 l 257
559 1550 m 257
 537 1489 l 257
 849 1489 l 257
 871 1550 l 257
 559 1550 l 257
975 1496 m 257
 891 1264 l 257
 943 1264 l 257
 1027 1496 l 257
 975 1496 l 257
EndSplineSet
EndChar

StartChar: uni0234
Encoding: 545 564 545
GlifName: lcurl
Width: 1024
VWidth: 0
GlyphClass: 2
Flags: W
AnchorPoint: "base" 500.104 -87 basechar 0
AnchorPoint: "top" 1106.1 1630 basechar 0
LayerCount: 2
Fore
SplineSet
585 129 m 257
 559 57 l 257
 843 340 l 257
 869 412 l 257
 585 129 l 257
1047.1 1553 m 257
 503.104 57 l 257
 560 57 l 257
 1104 1553 l 257
 1047.1 1553 l 257
821.104 1553 m 257
 800.104 1494 l 257
 1035.1 1494 l 257
 1056.1 1553 l 257
 821.104 1553 l 257
203 362 m 257
 177 290 l 257
 846 352 l 257
 872 424 l 257
 203 362 l 257
EndSplineSet
EndChar

StartChar: arrowleft
Encoding: 547 8592 547
GlifName: leftA_rrow
Width: 1024
VWidth: 0
GlyphClass: 2
Flags: W
LayerCount: 2
Fore
SplineSet
317 790 m 257
 240 730 l 257
 1005 730 l 257
 1082 790 l 257
 317 790 l 257
554 1091 m 257
 209 759 l 257
 284 759 l 257
 629 1091 l 257
 554 1091 l 257
209 759 m 257
 331 426 l 257
 406 426 l 257
 285 759 l 257
 209 759 l 257
EndSplineSet
EndChar

StartChar: uni25C2
Encoding: 548 9666 548
GlifName: leftB_lackS_mallT_riangle
Width: 1024
VWidth: 0
GlyphClass: 2
Flags: W
LayerCount: 2
Fore
SplineSet
303 671 m 257
 716 431 l 257
 719 915 l 257
 303 671 l 257
EndSplineSet
EndChar

StartChar: uni25C0
Encoding: 549 9664 549
GlifName: leftB_lackT_riangle
Width: 1024
VWidth: 0
GlyphClass: 2
Flags: W
LayerCount: 2
Fore
SplineSet
165 669 m 257
 853 269 l 257
 857 1077 l 257
 165 669 l 257
EndSplineSet
EndChar

StartChar: arrowboth
Encoding: 550 8596 550
GlifName: leftR_ightA_rrow
Width: 1024
VWidth: 0
GlyphClass: 2
Flags: W
LayerCount: 2
Fore
SplineSet
158 845 m 257
 158 785 l 257
 886 785 l 257
 886 845 l 257
 158 845 l 257
281 1146 m 257
 105 814 l 257
 165 814 l 257
 340 1146 l 257
 281 1146 l 257
105 814 m 257
 296 481 l 257
 355 481 l 257
 165 814 l 257
 105 814 l 257
737 484 m 257
 913 816 l 257
 855 816 l 257
 679 484 l 257
 737 484 l 257
926 816 m 257
 735 1149 l 257
 677 1149 l 257
 867 816 l 257
 926 816 l 257
EndSplineSet
EndChar

StartChar: uni25C3
Encoding: 551 9667 551
GlifName: leftW_hiteS_mallT_riangle
Width: 1024
VWidth: 0
GlyphClass: 2
Flags: W
LayerCount: 2
Fore
SplineSet
303 671 m 257
 716 431 l 257
 719 915 l 257
 303 671 l 257
361 671 m 257
 693 867 l 257
 692 479 l 257
 361 671 l 257
EndSplineSet
EndChar

StartChar: uni25C1
Encoding: 552 9665 552
GlifName: leftW_hiteT_riangle
Width: 1024
VWidth: 0
GlyphClass: 2
Flags: W
LayerCount: 2
Fore
SplineSet
165 669 m 257
 853 269 l 257
 857 1077 l 257
 165 669 l 257
261 670 m 257
 815 996 l 257
 812 350 l 257
 261 670 l 257
EndSplineSet
EndChar

StartChar: less
Encoding: 553 60 553
GlifName: less
Width: 1024
VWidth: 0
GlyphClass: 2
Flags: W
LayerCount: 2
Fore
SplineSet
340 652 m 257
 310 569 l 257
 1265 946 l 257
 1290 1013 l 257
 340 652 l 257
340 652 m 257
 310 569 l 257
 959 122 l 257
 987 199 l 257
 340 652 l 257
EndSplineSet
EndChar

StartChar: lessequal
Encoding: 554 8804 554
GlifName: lessequal
Width: 1024
VWidth: 0
GlyphClass: 2
Flags: W
HStem: 967 45<1266 1282>
LayerCount: 2
Fore
SplineSet
116 0 m 257
 115 -36 l 257
 889 -30 l 257
 890 0 l 257
 116 0 l 257
351 712 m 257
 332 664 l 257
 1266 967 l 257
 1282 1012 l 257
 351 712 l 257
351 711 m 257
 328 655 l 257
 988 209 l 257
 1004 253 l 257
 351 711 l 257
EndSplineSet
PickledDataWithLists: "(dp0
Vcom.fontlab.hintData
p1
(dp2
Vhhints
p3
(lp4
(dp5
Vposition
p6
I967
sVwidth
p7
I45
sass."
EndChar

StartChar: lira
Encoding: 555 8356 555
GlifName: lira
Width: 1024
VWidth: 0
GlyphClass: 2
Flags: W
LayerCount: 2
Fore
SplineSet
334 770 m 257
 304 688 l 257
 1030 688 l 257
 1060 770 l 257
 334 770 l 257
943 1543 m 257
 920 1481 l 257
 1211 1481 l 257
 1234 1543 l 257
 943 1543 l 257
430 1033 m 257
 403 959 l 257
 1129 959 l 257
 1156 1033 l 257
 430 1033 l 257
898 1542 m 257
 337 0 l 257
 399 0 l 257
 960 1542 l 257
 898 1542 l 257
192 82 m 257
 162 0 l 257
 888 0 l 257
 918 82 l 257
 192 82 l 257
EndSplineSet
EndChar

StartChar: uni2113
Encoding: 556 8467 556
GlifName: literS_ign
Width: 1024
VWidth: 0
GlyphClass: 2
Flags: W
LayerCount: 2
Fore
SplineSet
237 151 m 257
 164 90 l 257
 549 9 l 257
 622 70 l 257
 237 151 l 257
692 1548 m 257
 160 86 l 257
 231 79 l 257
 763 1541 l 257
 692 1548 l 257
695 1546 m 257
 616 1479 l 257
 1005 1477 l 257
 1084 1544 l 257
 695 1546 l 257
1085 1545 m 257
 179 123 l 257
 220 100 l 257
 1127 1522 l 257
 1085 1545 l 257
EndSplineSet
EndChar

StartChar: uni0459
Encoding: 557 1113 557
GlifName: lje-cy
Width: 1024
VWidth: 0
Flags: W
LayerCount: 2
Fore
SplineSet
1103 1024 m 257
 663 0 l 257
 723 0 l 257
 1163 1024 l 257
 1103 1024 l 257
719 1024 m 257
 691 964 l 257
 1123 964 l 257
 1151 1024 l 257
 719 1024 l 257
718 1024 m 257
 101 0 l 257
 161 0 l 257
 778 1024 l 257
 718 1024 l 257
48 61 m 257
 20 1 l 257
 161 1 l 257
 189 61 l 257
 48 61 l 257
744 60 m 257
 720 0 l 257
 964 0 l 257
 984 60 l 257
 744 60 l 257
997 636 m 257
 962 576 l 257
 1200 576 l 257
 1235 636 l 257
 997 636 l 257
903 28 m 257
 963 0 l 257
 1235 636 l 257
 1160 636 l 257
 903 28 l 257
EndSplineSet
EndChar

StartChar: logicalnot
Encoding: 559 172 559
GlifName: logicalnot
Width: 1024
VWidth: 0
GlyphClass: 2
Flags: W
LayerCount: 2
Fore
SplineSet
740 935 m 257
 633 640 l 257
 686 640 l 257
 793 935 l 257
 740 935 l 257
253 935 m 257
 231 875 l 257
 765 875 l 257
 787 935 l 257
 253 935 l 257
EndSplineSet
EndChar

StartChar: longs
Encoding: 560 383 560
GlifName: longs
Width: 1024
VWidth: 0
GlyphClass: 2
Flags: W
LayerCount: 2
Fore
SplineSet
471 1084 m 257
 448 1023 l 257
 699 1023 l 257
 722 1084 l 257
 471 1084 l 257
825 1550 m 257
 261 0 l 257
 325 0 l 257
 889 1550 l 257
 825 1550 l 257
877 1550 m 257
 855 1488 l 257
 1462 1488 l 257
 1484 1550 l 257
 877 1550 l 257
EndSplineSet
EndChar

StartChar: lozenge
Encoding: 562 9674 562
GlifName: lozenge
Width: 1024
VWidth: 0
GlyphClass: 2
Flags: W
LayerCount: 2
Fore
SplineSet
320 829 m 257
 508 402 l 257
 715 820 l 257
 509 1255 l 257
 320 829 l 257
EndSplineSet
EndChar

StartChar: lslash
Encoding: 563 322 563
GlifName: lslash
Width: 1024
VWidth: 0
GlyphClass: 2
Flags: W
LayerCount: 2
Fore
SplineSet
-16 60 m 257
 -38 0 l 257
 596 0 l 257
 618 60 l 257
 -16 60 l 257
884 1553 m 257
 327 22 l 257
 387 22 l 257
 944 1553 l 257
 884 1553 l 257
588 1553 m 257
 566 1493 l 257
 888 1493 l 257
 910 1553 l 257
 588 1553 l 257
960 1039 m 257
 258 702 l 257
 360 702 l 257
 1062 1039 l 257
 960 1039 l 257
EndSplineSet
EndChar

StartChar: m
Encoding: 564 109 564
GlifName: m
Width: 1024
VWidth: 0
GlyphClass: 2
Flags: W
AnchorPoint: "base" 530.298 -108 basechar 0
AnchorPoint: "top" 938.298 1116 basechar 0
LayerCount: 2
Fore
SplineSet
495.298 993 m 257
 134.298 0 l 257
 194.298 0 l 257
 555.298 993 l 257
 495.298 993 l 257
872.298 972 m 257
 518.298 0 l 257
 578.298 0 l 257
 932.298 972 l 257
 872.298 972 l 257
1259.3 976 m 257
 904.298 0 l 257
 964.298 0 l 257
 1319.3 976 l 257
 1259.3 976 l 257
432.298 1023 m 257
 411.298 966 l 257
 1315.3 966 l 257
 1336.3 1023 l 257
 432.298 1023 l 257
EndSplineSet
EndChar

StartChar: macron
Encoding: 565 175 565
GlifName: macron
Width: 1024
VWidth: 0
GlyphClass: 2
Flags: W
LayerCount: 2
Fore
SplineSet
240 1015 m 257
 224 970 l 257
 784 970 l 257
 800 1015 l 257
 240 1015 l 257
EndSplineSet
EndChar

StartChar: mu
Encoding: 573 181 573
GlifName: mu
Width: 1024
VWidth: 0
GlyphClass: 2
Flags: W
LayerCount: 2
Fore
SplineSet
1022 935 m 257
 682 0 l 257
 742 0 l 257
 1082 935 l 257
 1022 935 l 257
166 60 m 257
 144 0 l 257
 712 0 l 257
 734 60 l 257
 166 60 l 257
438 935 m 257
 -58 -430 l 257
 4 -430 l 257
 500 935 l 257
 438 935 l 257
EndSplineSet
EndChar

StartChar: multiply
Encoding: 574 215 574
GlifName: multiply
Width: 1024
VWidth: 0
GlyphClass: 2
Flags: W
LayerCount: 2
Fore
SplineSet
-87 295 m 257
 9 295 l 257
 1111 1323 l 257
 1029 1323 l 257
 -87 295 l 257
285 1322 m 257
 656 288 l 257
 744 288 l 257
 369 1322 l 257
 285 1322 l 257
EndSplineSet
EndChar

StartChar: n
Encoding: 575 110 575
GlifName: n
Width: 1024
VWidth: 0
GlyphClass: 2
Flags: W
AnchorPoint: "base" 570.171 -57 basechar 0
AnchorPoint: "top" 995.171 1113 basechar 0
LayerCount: 2
Fore
SplineSet
662.171 990 m 257
 302.171 0 l 257
 363.171 0 l 257
 723.171 990 l 257
 662.171 990 l 257
1197.17 976 m 257
 842.171 0 l 257
 902.171 0 l 257
 1257.17 976 l 257
 1197.17 976 l 257
494.171 1023 m 257
 474.171 967 l 257
 1252.17 967 l 257
 1272.17 1023 l 257
 494.171 1023 l 257
EndSplineSet
EndChar

StartChar: uni0235
Encoding: 580 565 580
GlifName: ncurl
Width: 1024
VWidth: 0
GlyphClass: 2
Flags: W
AnchorPoint: "base" 570.171 -57 basechar 0
AnchorPoint: "top" 995.171 1113 basechar 0
LayerCount: 2
Fore
SplineSet
583 990 m 257
 223 0 l 257
 284 0 l 257
 644 990 l 257
 583 990 l 257
1060 976 m 257
 705 0 l 257
 765 0 l 257
 1120 976 l 257
 1060 976 l 257
415 1023 m 257
 395 967 l 257
 1115 967 l 257
 1135 1023 l 257
 415 1023 l 257
489 56 m 257
 469 0 l 257
 962 198 l 257
 982 254 l 257
 489 56 l 257
756 59 m 257
 751 3 l 257
 955 3 l 257
 960 59 l 257
 756 59 l 257
981 254 m 257
 896 10 l 257
 954 4 l 257
 1039 248 l 257
 981 254 l 257
EndSplineSet
EndChar

StartChar: nine
Encoding: 582 57 582
GlifName: nine
Width: 1024
VWidth: 0
GlyphClass: 2
Flags: W
LayerCount: 2
Fore
SplineSet
1192 759 m 257
 937 59 l 257
 95 59 l 257
 74 0 l 257
 972 0 l 257
 1537 1553 l 257
 617 1553 l 257
 613 1541 l 257
 328 759 l 257
 1192 759 l 257
1211 818 m 257
 410 818 l 257
 656 1495 l 257
 1457 1495 l 257
 1211 818 l 257
EndSplineSet
Substitution2: "supsSuperscriptinLatinlookup16 subtable" uni2079
EndChar

StartChar: uni045A
Encoding: 583 1114 583
GlifName: nje-cy
Width: 1024
VWidth: 0
Flags: W
LayerCount: 2
Fore
SplineSet
468 1021 m 257
 34 0 l 257
 94 0 l 257
 528 1021 l 257
 468 1021 l 257
915 1021 m 257
 481 0 l 257
 541 0 l 257
 975 1021 l 257
 915 1021 l 257
264 566 m 257
 225 502 l 257
 1124 502 l 257
 1163 566 l 257
 264 566 l 257
1137 566 m 257
 929 1 l 257
 989 0 l 257
 1197 565 l 257
 1137 566 l 257
554 66 m 257
 532 0 l 257
 990 0 l 257
 1012 66 l 257
 554 66 l 257
EndSplineSet
EndChar

StartChar: uni2197
Encoding: 586 8599 586
GlifName: northE_astA_rrow
Width: 1024
VWidth: 0
GlyphClass: 2
Flags: W
LayerCount: 2
Fore
SplineSet
900 969 m 257
 912 1065 l 257
 371 524 l 257
 359 428 l 257
 900 969 l 257
945 588 m 257
 955 1067 l 257
 901 1014 l 257
 892 535 l 257
 945 588 l 257
955 1067 m 257
 633 1216 l 257
 580 1163 l 257
 901 1013 l 257
 955 1067 l 257
EndSplineSet
EndChar

StartChar: uni2196
Encoding: 587 8598 587
GlifName: northW_estA_rrow
Width: 1024
VWidth: 0
GlyphClass: 2
Flags: W
LayerCount: 2
Fore
SplineSet
435 1013 m 257
 339 1025 l 257
 880 484 l 257
 976 472 l 257
 435 1013 l 257
816 1058 m 257
 337 1068 l 257
 390 1014 l 257
 869 1005 l 257
 816 1058 l 257
337 1068 m 257
 188 746 l 257
 241 693 l 257
 391 1014 l 257
 337 1068 l 257
EndSplineSet
EndChar

StartChar: notequal
Encoding: 588 8800 588
GlifName: notequal
Width: 1024
VWidth: 0
GlyphClass: 2
Flags: W
LayerCount: 2
Fore
SplineSet
1156 1101 m 257
 251 182 l 257
 240 109 l 257
 1144 1028 l 257
 1156 1101 l 257
409 837 m 257
 386 775 l 257
 1202 775 l 257
 1225 837 l 257
 409 837 l 257
286 500 m 257
 261 432 l 257
 1077 432 l 257
 1102 500 l 257
 286 500 l 257
EndSplineSet
EndChar

StartChar: numbersign
Encoding: 591 35 591
GlifName: numbersign
Width: 1024
VWidth: 0
GlyphClass: 2
Flags: W
LayerCount: 2
Fore
SplineSet
407 1184 m 257
 13 99 l 257
 72 99 l 257
 466 1184 l 257
 407 1184 l 257
905 1192 m 257
 506 95 l 257
 577 95 l 257
 976 1192 l 257
 905 1192 l 257
215 995 m 257
 194 937 l 257
 995 937 l 257
 1016 995 l 257
 215 995 l 257
36 493 m 257
 8 417 l 257
 818 417 l 257
 846 493 l 257
 36 493 l 257
EndSplineSet
EndChar

StartChar: o
Encoding: 593 111 593
GlifName: o
Width: 1024
VWidth: 0
GlyphClass: 2
Flags: W
AnchorPoint: "top" 876 1080 basechar 0
AnchorPoint: "base" 467 -98 basechar 0
LayerCount: 2
Fore
SplineSet
475.171 1023 m 257
 103.171 0 l 257
 162.171 0 l 257
 534.171 1023 l 257
 475.171 1023 l 257
1232.17 1023 m 257
 860.171 0 l 257
 921.171 0 l 257
 1293.17 1023 l 257
 1232.17 1023 l 257
536.171 1023 m 257
 516.171 967 l 257
 1217.17 967 l 257
 1237.17 1023 l 257
 536.171 1023 l 257
171.171 62 m 257
 149.171 0 l 257
 868.171 0 l 257
 890.171 62 l 257
 171.171 62 l 257
EndSplineSet
EndChar

StartChar: uni0275
Encoding: 596 629 596
GlifName: obarred
Width: 1024
VWidth: 0
GlyphClass: 2
Flags: W
AnchorPoint: "top" 972 1128 basechar 0
AnchorPoint: "base" 521.171 -50 basechar 0
LayerCount: 2
Fore
SplineSet
475.171 1023 m 257
 103.171 0 l 257
 162.171 0 l 257
 534.171 1023 l 257
 475.171 1023 l 257
1232.17 1023 m 257
 860.171 0 l 257
 921.171 0 l 257
 1293.17 1023 l 257
 1232.17 1023 l 257
536.171 1023 m 257
 516.171 967 l 257
 1217.17 967 l 257
 1237.17 1023 l 257
 536.171 1023 l 257
171.171 62 m 257
 149.171 0 l 257
 868.171 0 l 257
 890.171 62 l 257
 171.171 62 l 257
373.243 599 m 257
 341.476 539 l 257
 1070.35 539 l 257
 1102.12 599 l 257
 373.243 599 l 257
EndSplineSet
EndChar

StartChar: uni04E9
Encoding: 597 1257 597
GlifName: obarred-cy
Width: 1024
VWidth: 0
Flags: W
AnchorPoint: "top" 972 1128 basechar 0
AnchorPoint: "base" 521.171 -50 basechar 0
LayerCount: 2
Fore
SplineSet
475.171 1023 m 257
 103.171 0 l 257
 162.171 0 l 257
 534.171 1023 l 257
 475.171 1023 l 257
1232.17 1023 m 257
 860.171 0 l 257
 921.171 0 l 257
 1293.17 1023 l 257
 1232.17 1023 l 257
536.171 1023 m 257
 516.171 967 l 257
 1217.17 967 l 257
 1237.17 1023 l 257
 536.171 1023 l 257
171.171 62 m 257
 149.171 0 l 257
 868.171 0 l 257
 890.171 62 l 257
 171.171 62 l 257
373.243 599 m 257
 341.476 539 l 257
 1070.35 539 l 257
 1102.12 599 l 257
 373.243 599 l 257
EndSplineSet
EndChar

StartChar: oe
Encoding: 601 339 601
GlifName: oe
Width: 1024
VWidth: 0
GlyphClass: 2
Flags: W
AnchorPoint: "top" 780 1183 basechar 0
AnchorPoint: "base" 388 -97 basechar 0
LayerCount: 2
Fore
SplineSet
589 506 m 257
 568 446 l 257
 868 446 l 257
 889 506 l 257
 589 506 l 257
1053 1023 m 257
 842 445 l 257
 901 445 l 257
 1112 1023 l 257
 1053 1023 l 257
284 1023 m 257
 -89 0 l 257
 -30 0 l 257
 343 1023 l 257
 284 1023 l 257
739 1023 m 257
 366 0 l 257
 427 0 l 257
 800 1023 l 257
 739 1023 l 257
339 1023 m 257
 317 964 l 257
 1091 964 l 257
 1113 1023 l 257
 339 1023 l 257
-20 62 m 257
 -43 0 l 257
 749 0 l 257
 772 62 l 257
 -20 62 l 257
EndSplineSet
EndChar

StartChar: ogonek
Encoding: 602 731 602
GlifName: ogonek
Width: 1024
VWidth: 0
GlyphClass: 2
Flags: W
LayerCount: 2
Fore
SplineSet
188 -300 m 257
 166 -360 l 257
 707 -360 l 257
 729 -300 l 257
 188 -300 l 257
316 51 m 257
 166 -360 l 257
 226 -360 l 257
 376 51 l 257
 316 51 l 257
316 51 m 257
 294 -8 l 257
 836 -8 l 257
 858 51 l 257
 316 51 l 257
EndSplineSet
EndChar

StartChar: omega
Encoding: 607 969 607
GlifName: omega
Width: 1024
VWidth: 0
GlyphClass: 2
Flags: W
LayerCount: 2
Fore
SplineSet
567 1023 m 257
 168 47 l 257
 228 47 l 257
 627 1023 l 257
 567 1023 l 257
1218 1024 m 257
 926 56 l 257
 986 56 l 257
 1278 1024 l 257
 1218 1024 l 257
748 611 m 257
 481 136 l 257
 541 136 l 257
 808 611 l 257
 748 611 l 257
175 65 m 257
 147 2 l 257
 484 137 l 257
 528 209 l 257
 175 65 l 257
566 211 m 257
 539 137 l 257
 966 2 l 257
 993 76 l 257
 566 211 l 257
EndSplineSet
EndChar

StartChar: uniA7B7
Encoding: 608 42935 608
GlifName: omega_latin
Width: 1024
VWidth: 0
GlyphClass: 2
Flags: W
AnchorPoint: "base" 491.237 -96 basechar 0
AnchorPoint: "top" 1092 1089 basechar 0
LayerCount: 2
Fore
SplineSet
645 1025 m 257
 82 0 l 257
 142 0 l 257
 705 1025 l 257
 645 1025 l 257
1480 1025 m 257
 917 0 l 257
 977 0 l 257
 1543 1026 l 257
 1480 1025 l 257
742 669 m 257
 552 146 l 257
 612 146 l 257
 802 669 l 257
 742 669 l 257
164 60 m 257
 142 0 l 257
 552 146 l 257
 574 206 l 257
 164 60 l 257
633 206 m 257
 612 146 l 257
 917 1 l 257
 938 61 l 257
 633 206 l 257
676 1025 m 257
 648 965 l 257
 948 965 l 257
 976 1025 l 257
 676 1025 l 257
1200 1025 m 257
 1150 965 l 257
 1492 965 l 257
 1542 1025 l 257
 1200 1025 l 257
EndSplineSet
EndChar

StartChar: one
Encoding: 613 49 613
GlifName: one
Width: 1024
VWidth: 0
GlyphClass: 2
Flags: W
LayerCount: 2
Fore
SplineSet
542 0 m 257
 602 0 l 257
 1166 1550 l 257
 1106 1550 l 257
 542 0 l 257
1106 1550 m 257
 942 1426 l 257
 982 1398 l 257
 1166 1550 l 257
 1106 1550 l 257
EndSplineSet
Substitution2: "supsSuperscriptinLatinlookup16 subtable" uni00B9
EndChar

StartChar: onequarter
Encoding: 616 188 616
GlifName: onequarter
Width: 1024
VWidth: 0
GlyphClass: 2
Flags: W
LayerCount: 2
Fore
SplineSet
79 10 m 257
 182 10 l 257
 79 10 l 257
873 7 m 257
 932 7 l 257
 873 7 l 257
EndSplineSet
Refer: 752 185 N 1 0 0 1 -284 357 2
Refer: 701 47 N 1 0 0 1 -124 -63 2
Refer: 1749 8324 N 1 0 0 1 253 18 2
EndChar

StartChar: uni0254
Encoding: 618 596 618
GlifName: oopen
Width: 1024
VWidth: 0
GlyphClass: 2
Flags: W
AnchorPoint: "base" 448.15 -69 basechar 0
AnchorPoint: "top" 932.15 1114 basechar 0
LayerCount: 2
Fore
SplineSet
862 0 m 257
 882 56 l 257
 186 56 l 257
 166 0 l 257
 862 0 l 257
874 39 m 257
 1232 1023 l 257
 1172 1023 l 257
 814 39 l 257
 874 39 l 257
1162 963 m 257
 1184 1023 l 257
 544 1023 l 257
 522 963 l 257
 1162 963 l 257
EndSplineSet
EndChar

StartChar: ordfeminine
Encoding: 619 170 619
GlifName: ordfeminine
Width: 1024
VWidth: 0
GlyphClass: 2
Flags: W
LayerCount: 2
Fore
SplineSet
459 1319 m 257
 435 1252 l 257
 1084 1252 l 257
 1108 1319 l 257
 459 1319 l 257
1071 1320 m 257
 698 296 l 257
 775 296 l 257
 1148 1320 l 257
 1071 1320 l 257
308 895 m 257
 285 833 l 257
 909 833 l 257
 932 895 l 257
 308 895 l 257
301 872 m 257
 90 294 l 257
 161 294 l 257
 372 872 l 257
 301 872 l 257
127 369 m 257
 99 294 l 257
 763 294 l 257
 791 369 l 257
 127 369 l 257
-99 67 m 257
 -124 0 l 257
 744 0 l 257
 769 67 l 257
 -99 67 l 257
EndSplineSet
EndChar

StartChar: ordmasculine
Encoding: 620 186 620
GlifName: ordmasculine
Width: 1024
VWidth: 0
GlyphClass: 2
Flags: W
LayerCount: 2
Fore
SplineSet
368 1023 m 257
 -4 0 l 257
 55 0 l 257
 427 1023 l 257
 368 1023 l 257
1125 1023 m 257
 753 0 l 257
 814 0 l 257
 1186 1023 l 257
 1125 1023 l 257
429 1023 m 257
 409 967 l 257
 1110 967 l 257
 1130 1023 l 257
 429 1023 l 257
64 62 m 257
 42 0 l 257
 761 0 l 257
 783 62 l 257
 64 62 l 257
-138 -70 m 257
 -162 -136 l 257
 862 -136 l 257
 886 -70 l 257
 -138 -70 l 257
EndSplineSet
EndChar

StartChar: oslash
Encoding: 621 248 621
GlifName: oslash
Width: 1024
VWidth: 0
GlyphClass: 2
Flags: W
AnchorPoint: "top" 876 1080 basechar 0
AnchorPoint: "base" 467 -98 basechar 0
LayerCount: 2
Fore
SplineSet
1329 1125 m 257
 56 -36 l 257
 84 -70 l 257
 1352 1073 l 257
 1329 1125 l 257
476 1023 m 257
 103 0 l 257
 163 0 l 257
 536 1023 l 257
 476 1023 l 257
1232 1023 m 257
 859 0 l 257
 919 0 l 257
 1292 1023 l 257
 1232 1023 l 257
518 1023 m 257
 496 963 l 257
 1242 963 l 257
 1264 1023 l 257
 518 1023 l 257
170 63 m 257
 147 0 l 257
 895 0 l 257
 918 63 l 257
 170 63 l 257
EndSplineSet
EndChar

StartChar: p
Encoding: 625 112 625
GlifName: p
Width: 1024
VWidth: 0
GlyphClass: 2
Flags: W
AnchorPoint: "base" 58.1143 -465 basechar 0
AnchorPoint: "top" 970.114 1232 basechar 0
LayerCount: 2
Fore
SplineSet
621.114 1181 m 257
 43.1143 -406 l 257
 103.114 -406 l 257
 681.114 1181 l 257
 621.114 1181 l 257
607.114 1023 m 257
 586.114 964 l 257
 1172.11 964 l 257
 1193.11 1023 l 257
 607.114 1023 l 257
259.114 61 m 257
 237.114 0 l 257
 833.114 0 l 257
 855.114 61 l 257
 259.114 61 l 257
1145.11 1023 m 257
 773.114 0 l 257
 831.114 0 l 257
 1203.11 1023 l 257
 1145.11 1023 l 257
EndSplineSet
EndChar

StartChar: paragraph
Encoding: 626 182 626
GlifName: paragraph
Width: 1024
VWidth: 0
GlyphClass: 2
Flags: W
LayerCount: 2
Fore
SplineSet
9 1044 m 257
 -13 985 l 257
 551 985 l 257
 573 1044 l 257
 9 1044 l 257
193 1550 m 257
 -7 1000 l 257
 55 1000 l 257
 255 1550 l 257
 193 1550 l 257
193 1550 m 257
 172 1493 l 257
 992 1493 l 257
 1013 1550 l 257
 193 1550 l 257
743 1550 m 257
 179 0 l 257
 243 0 l 257
 807 1550 l 257
 743 1550 l 257
975 1550 m 257
 411 0 l 257
 473 0 l 257
 1037 1550 l 257
 975 1550 l 257
EndSplineSet
EndChar

StartChar: parenleft
Encoding: 627 40 627
GlifName: parenleft
Width: 1024
VWidth: 0
GlyphClass: 2
Flags: W
LayerCount: 2
Fore
SplineSet
359 1023 m 257
 51 179 l 257
 179 179 l 257
 487 1023 l 257
 359 1023 l 257
946 1636 m 257
 359 1023 l 257
 487 1023 l 257
 973 1633 l 257
 946 1636 l 257
51 179 m 257
 212 -309 l 257
 240 -309 l 257
 179 179 l 257
 51 179 l 257
EndSplineSet
EndChar

StartChar: parenright
Encoding: 628 41 628
GlifName: parenright
Width: 1024
VWidth: 0
GlyphClass: 2
Flags: W
LayerCount: 2
Fore
SplineSet
792 1023 m 257
 485 179 l 257
 613 179 l 257
 920 1023 l 257
 792 1023 l 257
811 1635 m 257
 792 1023 l 257
 920 1023 l 257
 849 1635 l 257
 811 1635 l 257
485 179 m 257
 104 -309 l 257
 132 -309 l 257
 613 179 l 257
 485 179 l 257
EndSplineSet
EndChar

StartChar: partialdiff
Encoding: 629 8706 629
GlifName: partialdiff
Width: 1024
VWidth: 0
GlyphClass: 2
Flags: W
LayerCount: 2
Fore
SplineSet
740 1550 m 257
 780 0 l 257
 828 0 l 257
 796 1550 l 257
 740 1550 l 257
481 1023 m 257
 459 964 l 257
 783 964 l 257
 805 1023 l 257
 481 1023 l 257
441 1023 m 257
 68 0 l 257
 128 0 l 257
 501 1023 l 257
 441 1023 l 257
136 59 m 257
 114 0 l 257
 780 0 l 257
 802 59 l 257
 136 59 l 257
526 1543 m 257
 502 1478 l 257
 759 1484 l 257
 783 1549 l 257
 526 1543 l 257
EndSplineSet
EndChar

StartChar: percent
Encoding: 631 37 631
GlifName: percent
Width: 1024
VWidth: 0
GlyphClass: 2
Flags: W
LayerCount: 2
Fore
SplineSet
64 444 m 257
 83 417 l 257
 960 775 l 257
 951 801 l 257
 64 444 l 257
426 1148 m 257
 300 803 l 257
 331 803 l 257
 457 1148 l 257
 426 1148 l 257
427 1152 m 257
 418 1126 l 257
 765 1126 l 257
 774 1152 l 257
 427 1152 l 257
309 826 m 257
 295 789 l 257
 639 789 l 257
 653 826 l 257
 309 826 l 257
738 1152 m 257
 607 791 l 257
 643 791 l 257
 774 1152 l 257
 738 1152 l 257
494 436 m 257
 369 94 l 257
 412 94 l 257
 537 436 l 257
 494 436 l 257
495 440 m 257
 480 397 l 257
 827 397 l 257
 842 440 l 257
 495 440 l 257
375 109 m 257
 363 77 l 257
 707 77 l 257
 719 109 l 257
 375 109 l 257
808 440 m 257
 677 79 l 257
 711 79 l 257
 842 440 l 257
 808 440 l 257
EndSplineSet
EndChar

StartChar: period
Encoding: 632 46 632
GlifName: period
Width: 1024
VWidth: 0
GlyphClass: 2
Flags: W
HStem: 0 113<481 481 481 584 584 584>
LayerCount: 2
Fore
SplineSet
481 113 m 257
 440 0 l 257
 584 0 l 257
 625 113 l 257
 481 113 l 257
EndSplineSet
PickledDataWithLists: "(dp0
Vcom.fontlab.hintData
p1
(dp2
Vhhints
p3
(lp4
(dp5
Vposition
p6
I0
sVwidth
p7
I113
sass."
EndChar

StartChar: periodcentered
Encoding: 633 183 633
GlifName: periodcentered
Width: 1024
VWidth: 0
GlyphClass: 2
Flags: W
LayerCount: 2
Fore
SplineSet
482 1056 m 257
 446 955 l 257
 542 955 l 257
 578 1056 l 257
 482 1056 l 257
EndSplineSet
EndChar

StartChar: perthousand
Encoding: 635 8240 635
GlifName: perthousand
Width: 1024
VWidth: 0
GlyphClass: 2
Flags: W
LayerCount: 2
Fore
SplineSet
643 436 m 257
 524 110 l 257
 568 110 l 257
 687 436 l 257
 643 436 l 257
644 440 m 257
 625 386 l 257
 971 386 l 257
 990 440 l 257
 644 440 l 257
530 125 m 257
 512 77 l 257
 856 77 l 257
 874 125 l 257
 530 125 l 257
942 440 m 257
 811 79 l 257
 859 79 l 257
 990 440 l 257
 942 440 l 257
28 522 m 257
 49 463 l 257
 996 802 l 257
 973 860 l 257
 28 522 l 257
396 1148 m 257
 277 822 l 257
 321 822 l 257
 440 1148 l 257
 396 1148 l 257
397 1152 m 257
 376 1092 l 257
 722 1092 l 257
 743 1152 l 257
 397 1152 l 257
283 837 m 257
 265 789 l 257
 609 789 l 257
 627 837 l 257
 283 837 l 257
697 1152 m 257
 566 791 l 257
 612 791 l 257
 743 1152 l 257
 697 1152 l 257
241 436 m 257
 122 110 l 257
 168 110 l 257
 287 436 l 257
 241 436 l 257
242 440 m 257
 223 386 l 257
 571 386 l 257
 590 440 l 257
 242 440 l 257
128 125 m 257
 110 77 l 257
 454 77 l 257
 472 125 l 257
 128 125 l 257
542 440 m 257
 411 79 l 257
 459 79 l 257
 590 440 l 257
 542 440 l 257
EndSplineSet
EndChar

StartChar: peseta
Encoding: 636 8359 636
GlifName: peseta
Width: 1024
VWidth: 0
GlyphClass: 2
Flags: W
LayerCount: 2
Fore
SplineSet
784 1550 m 257
 222 0 l 257
 272 0 l 257
 834 1550 l 257
 784 1550 l 257
813 1550 m 257
 793 1494 l 257
 1036 1494 l 257
 1055 1550 l 257
 813 1550 l 257
1008 1550 m 257
 765 881 l 257
 820 881 l 257
 1063 1550 l 257
 1008 1550 l 257
584 934 m 257
 560 868 l 257
 814 868 l 257
 838 934 l 257
 584 934 l 257
1151 1526 m 257
 597 0 l 257
 644 0 l 257
 1198 1526 l 257
 1151 1526 l 257
623 68 m 257
 599 0 l 257
 728 0 l 257
 752 68 l 257
 623 68 l 257
874 977 m 257
 851 915 l 257
 1074 915 l 257
 1096 977 l 257
 874 977 l 257
1000 609 m 257
 984 563 l 257
 1138 563 l 257
 1155 609 l 257
 1000 609 l 257
1000 609 m 257
 938 438 l 257
 989 438 l 257
 1051 609 l 257
 1000 609 l 257
801 61 m 257
 778 0 l 257
 931 0 l 257
 954 61 l 257
 801 61 l 257
944 173 m 257
 883 5 l 257
 934 5 l 257
 995 173 l 257
 944 173 l 257
938 438 m 257
 944 173 l 257
 995 173 l 257
 989 438 l 257
 938 438 l 257
EndSplineSet
EndChar

StartChar: phi
Encoding: 637 966 637
GlifName: phi
Width: 1024
VWidth: 0
GlyphClass: 2
Flags: W
LayerCount: 2
Fore
SplineSet
627 1023 m 257
 254 0 l 257
 314 0 l 257
 687 1023 l 257
 627 1023 l 257
1384 1023 m 257
 1011 0 l 257
 1071 0 l 257
 1444 1023 l 257
 1384 1023 l 257
638 1023 m 257
 565 963 l 257
 1360 963 l 257
 1433 1023 l 257
 638 1023 l 257
342 60 m 257
 269 0 l 257
 1050 0 l 257
 1123 60 l 257
 342 60 l 257
1071 1202 m 257
 483 -413 l 257
 543 -413 l 257
 1131 1202 l 257
 1071 1202 l 257
EndSplineSet
EndChar

StartChar: phi1
Encoding: 638 981 638
GlifName: phiS_ymbol
Width: 1024
VWidth: 0
GlyphClass: 2
Flags: W
LayerCount: 2
Fore
SplineSet
365 1110 m 257
 -30 25 l 257
 30 25 l 257
 425 1110 l 257
 365 1110 l 257
-6 62 m 257
 -39 1 l 257
 847 1 l 257
 880 62 l 257
 -6 62 l 257
1204 1098 m 257
 805 0 l 257
 865 0 l 257
 1264 1098 l 257
 1204 1098 l 257
757 1098 m 257
 735 1038 l 257
 1237 1038 l 257
 1264 1098 l 257
 757 1098 l 257
740 1098 m 257
 157 -503 l 257
 218 -503 l 257
 801 1098 l 257
 740 1098 l 257
EndSplineSet
EndChar

StartChar: pi
Encoding: 640 960 640
GlifName: pi
Width: 1024
VWidth: 0
GlyphClass: 2
Flags: W
LayerCount: 2
Fore
SplineSet
560 990 m 257
 188 0 l 257
 248 0 l 257
 620 990 l 257
 560 990 l 257
1095 976 m 257
 728 0 l 257
 788 0 l 257
 1155 976 l 257
 1095 976 l 257
452 1023 m 257
 378 963 l 257
 1240 963 l 257
 1314 1023 l 257
 452 1023 l 257
EndSplineSet
EndChar

StartChar: plus
Encoding: 641 43 641
GlifName: plus
Width: 1024
VWidth: 0
GlyphClass: 2
Flags: W
LayerCount: 2
Fore
SplineSet
607 1221 m 257
 223 165 l 257
 333 165 l 257
 717 1221 l 257
 607 1221 l 257
80 796 m 257
 42 693 l 257
 944 693 l 257
 982 796 l 257
 80 796 l 257
EndSplineSet
EndChar

StartChar: plusminus
Encoding: 642 177 642
GlifName: plusminus
Width: 1024
VWidth: 0
GlyphClass: 2
Flags: W
LayerCount: 2
Fore
SplineSet
-24 110 m 257
 -47 48 l 257
 779 48 l 257
 802 110 l 257
 -24 110 l 257
747 1221 m 257
 386 228 l 257
 447 228 l 257
 808 1221 l 257
 747 1221 l 257
169 744 m 257
 148 686 l 257
 1050 686 l 257
 1071 744 l 257
 169 744 l 257
EndSplineSet
EndChar

StartChar: product
Encoding: 644 8719 644
GlifName: product
Width: 1024
VWidth: 0
GlyphClass: 2
Flags: W
LayerCount: 2
Fore
SplineSet
669 1537 m 257
 110 0 l 257
 170 0 l 257
 729 1537 l 257
 669 1537 l 257
1408 1535 m 257
 849 -2 l 257
 910 0 l 257
 1469 1537 l 257
 1408 1535 l 257
592 1537 m 257
 520 1477 l 257
 1490 1477 l 257
 1562 1537 l 257
 592 1537 l 257
EndSplineSet
EndChar

StartChar: psi
Encoding: 645 968 645
GlifName: psi
Width: 1024
VWidth: 0
GlyphClass: 2
Flags: W
LayerCount: 2
Fore
SplineSet
913 1015 m 257
 481 -129 l 257
 541 -129 l 257
 973 1015 l 257
 913 1015 l 257
597 1020 m 257
 318 278 l 257
 378 278 l 257
 657 1020 l 257
 597 1020 l 257
1241 1020 m 257
 962 278 l 257
 1022 278 l 257
 1301 1020 l 257
 1241 1020 l 257
388 338 m 257
 369 278 l 257
 972 278 l 257
 991 338 l 257
 388 338 l 257
EndSplineSet
EndChar

StartChar: q
Encoding: 649 113 649
GlifName: q
Width: 1024
VWidth: 0
GlyphClass: 2
Flags: W
AnchorPoint: "top" 1217.07 1300 basechar 0
AnchorPoint: "base" 635.068 -496 basechar 0
LayerCount: 2
Fore
SplineSet
1182.07 1188 m 257
 602.068 -406 l 257
 662.068 -406 l 257
 1242.07 1188 l 257
 1182.07 1188 l 257
518.068 1023 m 257
 496.068 961 l 257
 1144.07 961 l 257
 1166.07 1023 l 257
 518.068 1023 l 257
173.068 57 m 257
 152.068 0 l 257
 768.068 0 l 257
 789.068 57 l 257
 173.068 57 l 257
510.068 1023 m 257
 138.068 0 l 257
 196.068 0 l 257
 568.068 1023 l 257
 510.068 1023 l 257
629.068 -344 m 257
 606.068 -406 l 257
 738.068 -406 l 257
 761.068 -344 l 257
 629.068 -344 l 257
EndSplineSet
EndChar

StartChar: question
Encoding: 650 63 650
GlifName: question
Width: 1024
VWidth: 0
GlyphClass: 2
Flags: W
LayerCount: 2
Fore
SplineSet
417 134 m 257
 368 0 l 257
 480 0 l 257
 529 134 l 257
 417 134 l 257
745 1519 m 257
 711 1426 l 257
 1347 1426 l 257
 1381 1519 l 257
 745 1519 l 257
1297 1514 m 257
 1098 966 l 257
 1184 966 l 257
 1383 1514 l 257
 1297 1514 l 257
737 1015 m 257
 713 948 l 257
 1177 948 l 257
 1201 1015 l 257
 737 1015 l 257
736 1011 m 257
 511 392 l 257
 607 392 l 257
 832 1011 l 257
 736 1011 l 257
EndSplineSet
EndChar

StartChar: questiondown
Encoding: 651 191 651
GlifName: questiondown
Width: 1024
VWidth: 0
GlyphClass: 2
Flags: W
LayerCount: 2
Fore
SplineSet
930 1273 m 257
 1020 1519 l 257
 962 1519 l 257
 872 1272 l 257
 930 1273 l 257
643 0 m 257
 665 61 l 257
 29 61 l 257
 7 0 l 257
 643 0 l 257
64 5 m 257
 264 553 l 257
 204 553 l 257
 4 5 l 257
 64 5 l 257
650 504 m 257
 673 566 l 257
 209 566 l 257
 186 504 l 257
 650 504 l 257
652 508 m 257
 877 1127 l 257
 819 1127 l 257
 594 508 l 257
 652 508 l 257
EndSplineSet
EndChar

StartChar: quotedbl
Encoding: 653 34 653
GlifName: quotedbl
Width: 1024
VWidth: 0
GlyphClass: 2
Flags: W
LayerCount: 2
Fore
SplineSet
235 1326 m 257
 301 1326 l 257
 391 1574 l 257
 325 1574 l 257
 235 1326 l 257
639 1326 m 257
 699 1326 l 257
 789 1574 l 257
 729 1574 l 257
 639 1326 l 257
EndSplineSet
EndChar

StartChar: quotedblbase
Encoding: 654 8222 654
GlifName: quotedblbase
Width: 1024
VWidth: 0
GlyphClass: 2
Flags: W
LayerCount: 2
Fore
SplineSet
424 126 m 257
 381 8 l 257
 490 8 l 257
 533 126 l 257
 424 126 l 257
381 8 m 257
 266 -118 l 257
 316 -129 l 257
 490 8 l 257
 381 8 l 257
649 126 m 257
 606 8 l 257
 715 8 l 257
 758 126 l 257
 649 126 l 257
606 8 m 257
 491 -118 l 257
 541 -129 l 257
 715 8 l 257
 606 8 l 257
EndSplineSet
EndChar

StartChar: quotedblleft
Encoding: 655 8220 655
GlifName: quotedblleft
Width: 1024
VWidth: 0
GlyphClass: 2
Flags: W
LayerCount: 2
Fore
SplineSet
450 1953 m 257
 492 2067 l 257
 368 2067 l 257
 326 1953 l 257
 450 1953 l 257
420 2004 m 257
 530 2144 l 257
 469 2174 l 257
 369 2069 l 257
 420 2004 l 257
618 1953 m 257
 660 2067 l 257
 536 2067 l 257
 494 1953 l 257
 618 1953 l 257
588 2004 m 257
 698 2144 l 257
 637 2174 l 257
 537 2069 l 257
 588 2004 l 257
EndSplineSet
EndChar

StartChar: quotedblright
Encoding: 656 8221 656
GlifName: quotedblright
Width: 1024
VWidth: 0
GlyphClass: 2
Flags: W
LayerCount: 2
Fore
SplineSet
569 2174 m 257
 527 2060 l 257
 651 2060 l 257
 693 2174 l 257
 569 2174 l 257
600 2123 m 257
 490 1983 l 257
 550 1953 l 257
 650 2058 l 257
 600 2123 l 257
410 2174 m 257
 368 2060 l 257
 492 2060 l 257
 534 2174 l 257
 410 2174 l 257
441 2123 m 257
 331 1983 l 257
 391 1953 l 257
 491 2058 l 257
 441 2123 l 257
EndSplineSet
EndChar

StartChar: quoteleft
Encoding: 657 8216 657
GlifName: quoteleft
Width: 1024
VWidth: 0
GlyphClass: 2
Flags: W
LayerCount: 2
Fore
SplineSet
496 1113 m 257
 556 1278 l 257
 424 1278 l 257
 365 1117 l 257
 496 1113 l 257
517 1266 m 257
 659 1475 l 257
 592 1485 l 257
 422 1254 l 257
 517 1266 l 257
EndSplineSet
EndChar

StartChar: quoteright
Encoding: 658 8217 658
GlifName: quoteright
Width: 1024
VWidth: 0
GlyphClass: 2
Flags: W
LayerCount: 2
Fore
SplineSet
491 2168 m 257
 450 2056 l 257
 566 2056 l 257
 607 2168 l 257
 491 2168 l 257
540 2140 m 257
 417 1927 l 257
 455 1882 l 257
 566 2056 l 257
 540 2140 l 257
EndSplineSet
EndChar

StartChar: quotesinglbase
Encoding: 659 8218 659
GlifName: quotesinglbase
Width: 1024
VWidth: 0
GlyphClass: 2
Flags: W
LayerCount: 2
Fore
SplineSet
537 126 m 257
 494 8 l 257
 603 8 l 257
 646 126 l 257
 537 126 l 257
494 8 m 257
 378 -118 l 257
 428 -129 l 257
 603 8 l 257
 494 8 l 257
EndSplineSet
EndChar

StartChar: quotesingle
Encoding: 660 39 660
GlifName: quotesingle
Width: 1024
VWidth: 0
GlyphClass: 2
Flags: W
LayerCount: 2
Fore
SplineSet
513 1496 m 257
 447 1317 l 257
 511 1317 l 257
 577 1496 l 257
 513 1496 l 257
EndSplineSet
EndChar

StartChar: r
Encoding: 661 114 661
GlifName: r
Width: 1024
VWidth: 0
GlyphClass: 2
Flags: W
AnchorPoint: "top" 968.059 1114 basechar 0
AnchorPoint: "base" 370.059 -91 basechar 0
LayerCount: 2
Fore
SplineSet
518.059 1023 m 257
 496.059 961 l 257
 1228.06 961 l 257
 1250.06 1023 l 257
 518.059 1023 l 257
720.059 989 m 257
 360.059 0 l 257
 420.059 0 l 257
 780.059 989 l 257
 720.059 989 l 257
1173.06 976 m 257
 1054.06 650 l 257
 1114.06 650 l 257
 1233.06 976 l 257
 1173.06 976 l 257
EndSplineSet
EndChar

StartChar: radical
Encoding: 663 8730 663
GlifName: radical
Width: 1024
VWidth: 0
GlyphClass: 2
Flags: W
LayerCount: 2
Fore
SplineSet
818 1390 m 257
 622 117 l 257
 688 117 l 257
 884 1390 l 257
 818 1390 l 257
184 620 m 257
 110 396 l 257
 164 391 l 257
 256 611 l 257
 184 620 l 257
185 620 m 257
 622 117 l 257
 688 117 l 257
 256 611 l 257
 185 620 l 257
EndSplineSet
EndChar

StartChar: uni0264
Encoding: 664 612 664
GlifName: ramshorn
Width: 1024
VWidth: 0
GlyphClass: 2
Flags: W
AnchorPoint: "top" 1156 1069 basechar 0
LayerCount: 2
Fore
SplineSet
880 935 m 257
 770 202 l 257
 830 202 l 257
 940 935 l 257
 880 935 l 257
1400 965 m 257
 292 202 l 257
 352 202 l 257
 1461 965 l 257
 1400 965 l 257
219 143 m 257
 757 142 l 257
 831 202 l 257
 293 202 l 257
 219 143 l 257
EndSplineSet
EndChar

StartChar: registered
Encoding: 666 174 666
GlifName: registered
Width: 1024
VWidth: 0
GlyphClass: 2
Flags: W
LayerCount: 2
Fore
SplineSet
493 1032 m 257
 300 501 l 257
 337 501 l 257
 530 1032 l 257
 493 1032 l 257
518 1032 m 257
 504 994 l 257
 733 994 l 257
 747 1032 l 257
 518 1032 l 257
718 1032 m 257
 634 802 l 257
 672 802 l 257
 756 1032 l 257
 718 1032 l 257
447 848 m 257
 430 801 l 257
 668 801 l 257
 685 848 l 257
 447 848 l 257
480 809 m 257
 566 500 l 257
 609 500 l 257
 515 809 l 257
 480 809 l 257
322 1540 m 257
 -239 0 l 257
 -177 0 l 257
 384 1540 l 257
 322 1540 l 257
1201 1537 m 257
 641 0 l 257
 703 0 l 257
 1263 1537 l 257
 1201 1537 l 257
360 1538 m 257
 338 1478 l 257
 1210 1478 l 257
 1232 1538 l 257
 360 1538 l 257
-182 61 m 257
 -204 0 l 257
 688 0 l 257
 710 61 l 257
 -182 61 l 257
EndSplineSet
EndChar

StartChar: uni027F
Encoding: 667 639 667
GlifName: rfishhookreversed
Width: 1024
VWidth: 0
GlyphClass: 2
Flags: W
AnchorPoint: "top" 968.059 1114 basechar 0
AnchorPoint: "base" 370.059 -91 basechar 0
LayerCount: 2
Fore
SplineSet
518.059 1023 m 257
 496.059 961 l 257
 1228.06 961 l 257
 1250.06 1023 l 257
 518.059 1023 l 257
1160 989 m 257
 800 -492 l 257
 860 -492 l 257
 1220 989 l 257
 1160 989 l 257
EndSplineSet
EndChar

StartChar: rho
Encoding: 668 961 668
GlifName: rho
Width: 1024
VWidth: 0
GlyphClass: 2
Flags: W
LayerCount: 2
Fore
SplineSet
759 1203 m 257
 173 -406 l 257
 233 -406 l 257
 819 1203 l 257
 759 1203 l 257
811 1203 m 257
 787 1139 l 257
 1307 959 l 257
 1330 1023 l 257
 811 1203 l 257
385 62 m 257
 363 0 l 257
 1012 147 l 257
 1035 209 l 257
 385 62 l 257
1271 1022 m 257
 956 157 l 257
 1016 157 l 257
 1331 1022 l 257
 1271 1022 l 257
EndSplineSet
EndChar

StartChar: arrowright
Encoding: 669 8594 669
GlifName: rightA_rrow
Width: 1024
VWidth: 0
GlyphClass: 2
Flags: W
LayerCount: 2
Fore
SplineSet
974 727 m 257
 1051 787 l 257
 286 787 l 257
 209 727 l 257
 974 727 l 257
737 426 m 257
 1082 758 l 257
 1007 758 l 257
 662 426 l 257
 737 426 l 257
1082 758 m 257
 960 1091 l 257
 885 1091 l 257
 1006 758 l 257
 1082 758 l 257
EndSplineSet
EndChar

StartChar: uni25B8
Encoding: 670 9656 670
GlifName: rightB_lackS_mallT_riangle
Width: 1024
VWidth: 0
GlyphClass: 2
Flags: W
LayerCount: 2
Fore
SplineSet
719 675 m 257
 306 915 l 257
 303 431 l 257
 719 675 l 257
EndSplineSet
EndChar

StartChar: uni25B6
Encoding: 671 9654 671
GlifName: rightB_lackT_riangle
Width: 1024
VWidth: 0
GlyphClass: 2
Flags: W
LayerCount: 2
Fore
SplineSet
857 677 m 257
 169 1077 l 257
 165 269 l 257
 857 677 l 257
EndSplineSet
EndChar

StartChar: uni25B9
Encoding: 672 9657 672
GlifName: rightW_hiteS_mallT_riangle
Width: 1024
VWidth: 0
GlyphClass: 2
Flags: W
LayerCount: 2
Fore
SplineSet
719 675 m 257
 306 915 l 257
 303 431 l 257
 719 675 l 257
661 675 m 257
 329 479 l 257
 330 867 l 257
 661 675 l 257
EndSplineSet
EndChar

StartChar: uni25B7
Encoding: 673 9655 673
GlifName: rightW_hiteT_riangle
Width: 1024
VWidth: 0
GlyphClass: 2
Flags: W
LayerCount: 2
Fore
SplineSet
857 677 m 257
 169 1077 l 257
 165 269 l 257
 857 677 l 257
761 676 m 257
 207 350 l 257
 210 996 l 257
 761 676 l 257
EndSplineSet
EndChar

StartChar: ring
Encoding: 674 730 674
GlifName: ring
Width: 1024
VWidth: 0
GlyphClass: 2
Flags: W
LayerCount: 2
Fore
SplineSet
411 1302 m 257
 701 1302 l 257
 609 1049 l 257
 319 1049 l 257
 411 1302 l 257
388 1331 m 257
 276 1023 l 257
 636 1023 l 257
 748 1331 l 257
 388 1331 l 257
EndSplineSet
EndChar

StartChar: uni0325
Encoding: 675 805 675
GlifName: ringbelowcomb
Width: 0
VWidth: 0
GlyphClass: 4
Flags: W
AnchorPoint: "base" 0 -26 mark 0
LayerCount: 2
Fore
SplineSet
-88 -225 m 257
 202 -225 l 257
 110 -478 l 257
 -180 -478 l 257
 -88 -225 l 257
-111 -196 m 257
 -224 -505 l 257
 136 -505 l 257
 249 -196 l 257
 -111 -196 l 257
EndSplineSet
EndChar

StartChar: s
Encoding: 682 115 682
GlifName: s
Width: 1024
VWidth: 0
GlyphClass: 2
Flags: W
AnchorPoint: "top" 889.171 1113 basechar 0
AnchorPoint: "base" 530.171 -69 basechar 0
LayerCount: 2
Fore
SplineSet
580.171 1023 m 257
 559.171 964 l 257
 1167.17 964 l 257
 1188.17 1023 l 257
 580.171 1023 l 257
580.171 1023 m 257
 476.171 736 l 257
 536.171 736 l 257
 640.171 1023 l 257
 580.171 1023 l 257
229.171 59 m 257
 208.171 0 l 257
 814.171 0 l 257
 835.171 59 l 257
 229.171 59 l 257
861.171 299 m 257
 756.171 12 l 257
 818.171 12 l 257
 923.171 299 l 257
 861.171 299 l 257
476.171 736 m 257
 861.171 299 l 257
 923.171 299 l 257
 536.171 736 l 257
 476.171 736 l 257
EndSplineSet
EndChar

StartChar: uniA78C
Encoding: 684 42892 684
GlifName: saltillo
Width: 1024
VWidth: 0
GlyphClass: 2
Flags: W
LayerCount: 2
Fore
SplineSet
781 1458 m 257
 500 813 l 257
 553 808 l 257
 1004 1458 l 257
 781 1458 l 257
EndSplineSet
EndChar

StartChar: section
Encoding: 689 167 689
GlifName: section
Width: 1024
VWidth: 0
GlyphClass: 2
Flags: W
LayerCount: 2
Fore
SplineSet
396 1237 m 257
 375 1178 l 257
 973 1178 l 257
 994 1237 l 257
 396 1237 l 257
396 1237 m 257
 166 605 l 257
 229 605 l 257
 459 1237 l 257
 396 1237 l 257
-90 -200 m 257
 -112 -260 l 257
 596 -260 l 257
 618 -200 l 257
 -90 -200 l 257
564 -259 m 257
 624 -259 l 257
 752 95 l 257
 692 95 l 257
 564 -259 l 257
166 606 m 257
 689 88 l 257
 750 88 l 257
 224 606 l 257
 166 606 l 257
538 1626 m 257
 516 1566 l 257
 1114 1566 l 257
 1136 1626 l 257
 538 1626 l 257
539 1629 m 257
 396 1237 l 257
 459 1237 l 257
 602 1629 l 257
 539 1629 l 257
6 88 m 257
 -12 39 l 257
 696 39 l 257
 714 88 l 257
 6 88 l 257
689 88 m 257
 750 88 l 257
 879 442 l 257
 818 442 l 257
 689 88 l 257
396 1237 m 257
 819 442 l 257
 879 442 l 257
 459 1237 l 257
 396 1237 l 257
EndSplineSet
EndChar

StartChar: semicolon
Encoding: 690 59 690
GlifName: semicolon
Width: 1024
VWidth: 0
GlyphClass: 2
Flags: W
LayerCount: 2
Fore
SplineSet
504 164 m 257
 447 7 l 257
 583 7 l 257
 640 164 l 257
 504 164 l 257
577 135 m 257
 450 -99 l 257
 482 -148 l 257
 587 26 l 257
 577 135 l 257
627 503 m 257
 570 346 l 257
 706 346 l 257
 763 503 l 257
 627 503 l 257
EndSplineSet
EndChar

StartChar: seven
Encoding: 692 55 692
GlifName: seven
Width: 1024
VWidth: 0
GlyphClass: 2
Flags: W
LayerCount: 2
Fore
SplineSet
600 1495 m 257
 1451 1495 l 257
 906 0 l 257
 968 0 l 257
 1534 1553 l 257
 621 1553 l 257
 600 1495 l 257
EndSplineSet
Substitution2: "supsSuperscriptinLatinlookup16 subtable" uni2077
EndChar

StartChar: uni0448
Encoding: 694 1096 694
GlifName: sha-cy
Width: 1024
VWidth: 0
Flags: W
LayerCount: 2
Fore
SplineSet
568 1024 m 257
 134 -1 l 257
 194 -1 l 257
 628 1024 l 257
 568 1024 l 257
1281 1029 m 257
 843 0 l 257
 903 0 l 257
 1341 1029 l 257
 1281 1029 l 257
212 60 m 257
 183 0 l 257
 902 0 l 257
 931 60 l 257
 212 60 l 257
905 1021 m 257
 471 2 l 257
 531 2 l 257
 965 1021 l 257
 905 1021 l 257
EndSplineSet
EndChar

StartChar: uni0449
Encoding: 695 1097 695
GlifName: shcha-cy
Width: 1024
VWidth: 0
Flags: W
LayerCount: 2
Fore
SplineSet
471 1024 m 257
 37 -1 l 257
 97 -1 l 257
 531 1024 l 257
 471 1024 l 257
1184 1029 m 257
 746 0 l 257
 806 0 l 257
 1244 1029 l 257
 1184 1029 l 257
117 60 m 257
 86 0 l 257
 848 0 l 257
 879 60 l 257
 117 60 l 257
874 67 m 257
 656 -401 l 257
 716 -401 l 257
 934 67 l 257
 874 67 l 257
808 1021 m 257
 374 2 l 257
 434 2 l 257
 868 1021 l 257
 808 1021 l 257
EndSplineSet
EndChar

StartChar: uni20AA
Encoding: 696 8362 696
GlifName: sheqel
Width: 1024
VWidth: 0
GlyphClass: 2
Flags: W
LayerCount: 2
Fore
SplineSet
674 1534 m 257
 117 4 l 257
 185 4 l 257
 742 1534 l 257
 674 1534 l 257
675 1538 m 257
 618 1468 l 257
 1089 1468 l 257
 1146 1538 l 257
 675 1538 l 257
1118 1538 m 257
 1141 1278 l 257
 1231 1277 l 257
 1214 1538 l 257
 1118 1538 l 257
1142 1278 m 257
 925 673 l 257
 1011 673 l 257
 1231 1277 l 257
 1142 1278 l 257
969 8 m 257
 1526 1538 l 257
 1447 1538 l 257
 890 8 l 257
 969 8 l 257
968 4 m 257
 1025 66 l 257
 554 66 l 257
 497 4 l 257
 968 4 l 257
520 4 m 257
 498 264 l 257
 412 265 l 257
 429 4 l 257
 520 4 l 257
498 264 m 257
 714 869 l 257
 632 869 l 257
 412 265 l 257
 498 264 l 257
EndSplineSet
EndChar

StartChar: sigma
Encoding: 698 963 698
GlifName: sigma
Width: 1024
VWidth: 0
GlyphClass: 2
Flags: W
LayerCount: 2
Fore
SplineSet
423 1023 m 257
 38 0 l 257
 98 0 l 257
 483 1023 l 257
 423 1023 l 257
1122 1023 m 257
 737 0 l 257
 797 0 l 257
 1182 1023 l 257
 1122 1023 l 257
438 1023 m 257
 362 963 l 257
 1278 963 l 257
 1354 1023 l 257
 438 1023 l 257
132 60 m 257
 57 0 l 257
 772 0 l 257
 847 60 l 257
 132 60 l 257
EndSplineSet
EndChar

StartChar: sigma1
Encoding: 699 962 699
GlifName: sigmafinal
Width: 1024
VWidth: 0
GlyphClass: 2
Flags: W
LayerCount: 2
Fore
SplineSet
654 1023 m 257
 632 963 l 257
 1328 963 l 257
 1350 1023 l 257
 654 1023 l 257
642 984 m 257
 302 51 l 257
 363 53 l 257
 703 986 l 257
 642 984 l 257
362 113 m 257
 340 53 l 257
 993 51 l 257
 1015 111 l 257
 362 113 l 257
485 -264 m 257
 463 -324 l 257
 857 -324 l 257
 879 -264 l 257
 485 -264 l 257
951 100 m 257
 812 -284 l 257
 872 -284 l 257
 1011 100 l 257
 951 100 l 257
EndSplineSet
EndChar

StartChar: six
Encoding: 700 54 700
GlifName: six
Width: 1024
VWidth: 0
GlyphClass: 2
Flags: W
LayerCount: 2
Fore
SplineSet
604 1550 m 257
 113 201 l 257
 40 0 l 257
 979 0 l 257
 1277 819 l 257
 400 819 l 257
 644 1488 l 257
 1526 1488 l 257
 1548 1550 l 257
 604 1550 l 257
1193 759 m 257
 940 63 l 257
 131 63 l 257
 384 759 l 257
 1193 759 l 257
EndSplineSet
Substitution2: "supsSuperscriptinLatinlookup16 subtable" uni2076
EndChar

StartChar: slash
Encoding: 701 47 701
GlifName: slash
Width: 1024
VWidth: 0
GlyphClass: 2
Flags: W
LayerCount: 2
Fore
SplineSet
1293 1480 m 257
 171 10 l 257
 274 10 l 257
 1396 1480 l 257
 1293 1480 l 257
EndSplineSet
EndChar

StartChar: uni044C
Encoding: 703 1100 703
GlifName: softsign-cy
Width: 1024
VWidth: 0
Flags: W
AnchorPoint: "base" 469.02 -72 basechar 0
AnchorPoint: "top" 746.02 1622 basechar 0
LayerCount: 2
Fore
SplineSet
481 1016 m 257
 47 0 l 257
 107 0 l 257
 541 1016 l 257
 481 1016 l 257
336 641 m 257
 314 580 l 257
 1113 580 l 257
 1135 641 l 257
 336 641 l 257
1122 641 m 257
 871 0 l 257
 931 0 l 257
 1182 641 l 257
 1122 641 l 257
104 60 m 257
 82 0 l 257
 909 0 l 257
 931 60 l 257
 104 60 l 257
EndSplineSet
EndChar

StartChar: uni2198
Encoding: 704 8600 704
GlifName: southE_astA_rrow
Width: 1024
VWidth: 0
GlyphClass: 2
Flags: W
LayerCount: 2
Fore
SplineSet
856 504 m 257
 952 492 l 257
 411 1033 l 257
 315 1045 l 257
 856 504 l 257
475 459 m 257
 954 449 l 257
 901 503 l 257
 422 512 l 257
 475 459 l 257
954 449 m 257
 1103 771 l 257
 1050 824 l 257
 900 503 l 257
 954 449 l 257
EndSplineSet
EndChar

StartChar: uni2199
Encoding: 705 8601 705
GlifName: southW_estA_rrow
Width: 1024
VWidth: 0
GlyphClass: 2
Flags: W
LayerCount: 2
Fore
SplineSet
391 548 m 257
 379 452 l 257
 920 993 l 257
 932 1089 l 257
 391 548 l 257
346 929 m 257
 336 450 l 257
 390 503 l 257
 399 982 l 257
 346 929 l 257
336 450 m 257
 658 301 l 257
 711 354 l 257
 390 504 l 257
 336 450 l 257
EndSplineSet
EndChar

StartChar: sterling
Encoding: 707 163 707
GlifName: sterling
Width: 1024
VWidth: 0
GlyphClass: 2
Flags: W
LayerCount: 2
Fore
SplineSet
815 1543 m 257
 793 1482 l 257
 982 1482 l 257
 1004 1543 l 257
 815 1543 l 257
196 770 m 257
 172 705 l 257
 898 705 l 257
 922 770 l 257
 196 770 l 257
791 1542 m 257
 230 0 l 257
 306 0 l 257
 867 1542 l 257
 791 1542 l 257
46 72 m 257
 20 0 l 257
 746 0 l 257
 772 72 l 257
 46 72 l 257
EndSplineSet
EndChar

StartChar: summation
Encoding: 708 8721 708
GlifName: summation
Width: 1024
VWidth: 0
GlyphClass: 2
Flags: W
LayerCount: 2
Fore
SplineSet
1042 830 m 257
 133 -34 l 257
 105 -112 l 257
 1011 746 l 257
 1042 830 l 257
1041 823 m 257
 688.15 1539 l 257
 666.948 1478 l 257
 1012 743 l 257
 1041 823 l 257
1387.58 1477 m 257
 1409.42 1537 l 257
 687.422 1537 l 257
 665.584 1477 l 257
 1387.58 1477 l 257
788 -98 m 257
 810 -38 l 257
 147 -38 l 257
 125 -98 l 257
 788 -98 l 257
EndSplineSet
EndChar

StartChar: t
Encoding: 709 116 709
GlifName: t
Width: 1024
VWidth: 0
GlyphClass: 2
Flags: W
AnchorPoint: "top" 1088.09 1642 basechar 0
AnchorPoint: "base" 629.09 -121 basechar 0
LayerCount: 2
Fore
SplineSet
1020.09 1529 m 257
 464.09 0 l 257
 524.09 0 l 257
 1080.09 1529 l 257
 1020.09 1529 l 257
498.09 60 m 257
 476.09 0 l 257
 868.09 0 l 257
 890.09 60 l 257
 498.09 60 l 257
528.09 1023 m 257
 507.09 965 l 257
 1181.09 965 l 257
 1202.09 1023 l 257
 528.09 1023 l 257
EndSplineSet
EndChar

StartChar: tcaron
Encoding: 712 357 712
GlifName: tcaron
Width: 1024
VWidth: 0
GlyphClass: 2
Flags: W
AnchorPoint: "base" 512 -78 basechar 0
LayerCount: 2
Fore
SplineSet
670 1529 m 257
 114 0 l 257
 174 0 l 257
 730 1529 l 257
 670 1529 l 257
148 60 m 257
 126 0 l 257
 518 0 l 257
 540 60 l 257
 148 60 l 257
178 1023 m 257
 157 965 l 257
 831 965 l 257
 852 1023 l 257
 178 1023 l 257
848 1496 m 257
 783 1317 l 257
 845 1317 l 257
 910 1496 l 257
 848 1496 l 257
EndSplineSet
EndChar

StartChar: uni0236
Encoding: 714 566 714
GlifName: tcurl
Width: 1024
VWidth: 0
GlyphClass: 2
Flags: W
AnchorPoint: "top" 1088.09 1642 basechar 0
AnchorPoint: "base" 629.09 -121 basechar 0
LayerCount: 2
Fore
SplineSet
1020.09 1529 m 257
 464.09 0 l 257
 524.09 0 l 257
 1080.09 1529 l 257
 1020.09 1529 l 257
498.09 60 m 257
 476.09 0 l 257
 803 0 l 257
 823 61 l 257
 498.09 60 l 257
528.09 1023 m 257
 507.09 965 l 257
 1181.09 965 l 257
 1202.09 1023 l 257
 528.09 1023 l 257
259 45 m 257
 238 -13 l 257
 875 224 l 257
 896 282 l 257
 259 45 l 257
744 16 m 257
 804 2 l 257
 880 239 l 257
 820 253 l 257
 744 16 l 257
EndSplineSet
EndChar

StartChar: uni0442
Encoding: 715 1090 715
GlifName: te-cy
Width: 1024
VWidth: 0
Flags: W
AnchorPoint: "top" 1067.01 1634 basechar 0
AnchorPoint: "base" 491.009 -70 basechar 0
LayerCount: 2
Fore
SplineSet
482 1026 m 257
 461 967 l 257
 1245 967 l 257
 1266 1026 l 257
 482 1026 l 257
831 985 m 257
 428 12 l 257
 486 12 l 257
 889 985 l 257
 831 985 l 257
EndSplineSet
EndChar

StartChar: theta
Encoding: 717 952 717
GlifName: theta
Width: 1024
VWidth: 0
GlyphClass: 2
Flags: W
LayerCount: 2
Fore
SplineSet
163 838 m 257
 141 778 l 257
 885 771 l 257
 906 831 l 257
 163 838 l 257
376 1397 m 257
 746 1480 l 257
 1096 1403 l 257
 656 194 l 257
 238 101 l 257
 -61 194 l 257
 376 1397 l 257
327 1425 m 257
 -133 163 l 257
 220 7 l 257
 704 163 l 257
 1166 1431 l 257
 755 1559 l 257
 327 1425 l 257
EndSplineSet
EndChar

StartChar: uni01AD
Encoding: 718 429 718
GlifName: thook
Width: 1024
VWidth: 0
GlyphClass: 2
Flags: W
AnchorPoint: "top" 1088.09 1642 basechar 0
AnchorPoint: "base" 629.09 -121 basechar 0
LayerCount: 2
Fore
SplineSet
1020.09 1529 m 257
 464.09 0 l 257
 524.09 0 l 257
 1080.09 1529 l 257
 1020.09 1529 l 257
498.09 60 m 257
 476.09 0 l 257
 868.09 0 l 257
 890.09 60 l 257
 498.09 60 l 257
528.09 1023 m 257
 507.09 965 l 257
 1181.09 965 l 257
 1202.09 1023 l 257
 528.09 1023 l 257
1371.17 1307.06 m 257
 1024.36 1617.69 l 257
 1008.09 1560.98 l 257
 1352.99 1250.9 l 257
 1371.17 1307.06 l 257
1024.36 1617.69 m 257
 942.768 1333.16 l 257
 980.322 1246.45 l 257
 1061.91 1530.98 l 257
 1024.36 1617.69 l 257
EndSplineSet
EndChar

StartChar: thorn
Encoding: 719 254 719
GlifName: thorn
Width: 1024
VWidth: 0
GlyphClass: 2
Flags: W
AnchorPoint: "base" 265 -491 basechar 0
LayerCount: 2
Fore
SplineSet
471 1630 m 257
 -53 -406 l 257
 5 -406 l 257
 529 1630 l 257
 471 1630 l 257
389 1012 m 257
 367 950 l 257
 1055 950 l 257
 1077 1012 l 257
 389 1012 l 257
83 63 m 257
 62 3 l 257
 764 3 l 257
 785 63 l 257
 83 63 l 257
1010 991 m 257
 713 28 l 257
 773 28 l 257
 1070 991 l 257
 1010 991 l 257
EndSplineSet
EndChar

StartChar: three
Encoding: 720 51 720
GlifName: three
Width: 1024
VWidth: 0
GlyphClass: 2
Flags: W
LayerCount: 2
Fore
SplineSet
370 736 m 257
 1172 736 l 257
 923 52 l 257
 79 52 l 257
 66 -8 l 257
 961 -8 l 257
 1528 1550 l 257
 654 1550 l 257
 633 1493 l 257
 1445 1493 l 257
 1192 796 l 257
 392 796 l 257
 370 736 l 257
EndSplineSet
Substitution2: "supsSuperscriptinLatinlookup16 subtable" uni00B3
EndChar

StartChar: tilde
Encoding: 723 732 723
GlifName: tilde
Width: 1024
VWidth: 0
GlyphClass: 2
Flags: W
LayerCount: 2
Fore
SplineSet
373 279 m 257
 355 229 l 257
 679 158 l 257
 697 208 l 257
 373 279 l 257
112 223 m 257
 105 165 l 257
 355 229 l 257
 373 279 l 257
 112 223 l 257
697 208 m 257
 679 158 l 257
 916 309 l 257
 919 356 l 257
 697 208 l 257
EndSplineSet
EndChar

StartChar: tildecomb
Encoding: 725 771 725
GlifName: tildecomb
Width: 0
VWidth: 0
GlyphClass: 4
Flags: W
AnchorPoint: "top" 5 784 mark 0
LayerCount: 2
Fore
SplineSet
-165 916 m 257
 -183 866 l 257
 141 795 l 257
 160 845 l 257
 -165 916 l 257
-425 860 m 257
 -432 802 l 257
 -183 866 l 257
 -165 916 l 257
 -425 860 l 257
160 845 m 257
 141 795 l 257
 378 946 l 257
 381 993 l 257
 160 845 l 257
EndSplineSet
EndChar

StartChar: tonos
Encoding: 727 900 727
GlifName: tonos
Width: 1024
VWidth: 0
GlyphClass: 2
Flags: W
AnchorPoint: "top" 264 733 mark 0
LayerCount: 2
Fore
SplineSet
490 1085 m 257
 360 831 l 257
 399 785 l 257
 530 1040 l 257
 490 1085 l 257
EndSplineSet
EndChar

StartChar: uni0288
Encoding: 729 648 729
GlifName: tretroflexhook
Width: 1024
VWidth: 0
GlyphClass: 2
Flags: W
AnchorPoint: "top" 1088.09 1642 basechar 0
AnchorPoint: "base" 650 -526 basechar 0
LayerCount: 2
Fore
SplineSet
1020.09 1529 m 257
 464 -423 l 257
 524 -423 l 257
 1080.09 1529 l 257
 1020.09 1529 l 257
498 -363 m 257
 476 -423 l 257
 868 -423 l 257
 890 -363 l 257
 498 -363 l 257
528.09 1023 m 257
 507.09 965 l 257
 1181.09 965 l 257
 1202.09 1023 l 257
 528.09 1023 l 257
EndSplineSet
EndChar

StartChar: uni0446
Encoding: 730 1094 730
GlifName: tse-cy
Width: 1024
VWidth: 0
Flags: W
LayerCount: 2
Fore
SplineSet
425 1024 m 257
 36 3 l 257
 96 3 l 257
 485 1024 l 257
 425 1024 l 257
1138 1029 m 257
 746 0 l 257
 806 0 l 257
 1198 1029 l 257
 1138 1029 l 257
117 60 m 257
 86 0 l 257
 848 0 l 257
 879 60 l 257
 117 60 l 257
874 67 m 257
 656 -401 l 257
 716 -401 l 257
 934 67 l 257
 874 67 l 257
EndSplineSet
EndChar

StartChar: uni045B
Encoding: 731 1115 731
GlifName: tshe-cy
Width: 1024
VWidth: 0
Flags: W
LayerCount: 2
Fore
SplineSet
616 1365 m 257
 573 1305 l 257
 1361 1305 l 257
 1404 1365 l 257
 616 1365 l 257
869 1544 m 257
 307 -1 l 257
 367 -1 l 257
 929 1544 l 257
 869 1544 l 257
682 994 m 257
 658 934 l 257
 1271 934 l 257
 1295 994 l 257
 682 994 l 257
1233 989 m 257
 873 0 l 257
 933 0 l 257
 1293 989 l 257
 1233 989 l 257
EndSplineSet
EndChar

StartChar: two
Encoding: 733 50 733
GlifName: two
Width: 1024
VWidth: 0
GlyphClass: 2
Flags: W
LayerCount: 2
Fore
SplineSet
655 1484 m 257
 1389 1484 l 257
 1179 908 l 257
 452 908 l 257
 122 0 l 257
 895 0 l 257
 916 59 l 257
 203 59 l 257
 491 849 l 257
 1218 849 l 257
 1471 1544 l 257
 677 1544 l 257
 655 1484 l 257
EndSplineSet
Substitution2: "supsSuperscriptinLatinlookup16 subtable" uni00B2
EndChar

StartChar: u
Encoding: 735 117 735
GlifName: u
Width: 1024
VWidth: 0
GlyphClass: 2
Flags: W
AnchorPoint: "top" 819.173 1128 basechar 0
AnchorPoint: "base" 485.173 -74 basechar 0
LayerCount: 2
Fore
SplineSet
514.173 1034 m 257
 138.173 0 l 257
 198.173 0 l 257
 574.173 1034 l 257
 514.173 1034 l 257
1088.17 1033 m 257
 712.173 0 l 257
 770.173 0 l 257
 1146.17 1033 l 257
 1088.17 1033 l 257
206.173 61 m 257
 184.173 0 l 257
 886.173 0 l 257
 908.173 61 l 257
 206.173 61 l 257
EndSplineSet
EndChar

StartChar: underscore
Encoding: 747 95 747
GlifName: underscore
Width: 1024
VWidth: 0
GlyphClass: 2
Flags: W
LayerCount: 2
Fore
SplineSet
-0.279297 0 m 257
 -14.2793 -40 l 257
 1009.72 -40 l 257
 1023.72 0 l 257
 -0.279297 0 l 257
EndSplineSet
EndChar

StartChar: uni018F
Encoding: 765 399 765
GlifName: uni018F_
Width: 1024
VWidth: 0
GlyphClass: 2
Flags: W
AnchorPoint: "top" 1161 1630 basechar 0
AnchorPoint: "base" 647 -117 basechar 0
LayerCount: 2
Fore
SplineSet
804 0 m 257
 833 60 l 257
 294 60 l 257
 265 0 l 257
 804 0 l 257
854 0 m 257
 1416 1543 l 257
 1340 1543 l 257
 778 0 l 257
 854 0 l 257
1318 1483 m 257
 1347 1543 l 257
 732 1543 l 257
 703 1483 l 257
 1318 1483 l 257
1076 808 m 257
 1100 868 l 257
 446 868 l 257
 422 808 l 257
 1076 808 l 257
355 30 m 257
 500 869 l 257
 423 869 l 257
 278 30 l 257
 355 30 l 257
EndSplineSet
EndChar

StartChar: florin
Encoding: 766 402 766
GlifName: uni0192
Width: 1024
VWidth: 0
GlyphClass: 2
Flags: W
LayerCount: 2
Fore
SplineSet
695 1023 m 257
 175 -406 l 257
 236 -406 l 257
 756 1023 l 257
 695 1023 l 257
722 1023 m 257
 701 966 l 257
 1146 966 l 257
 1167 1023 l 257
 722 1023 l 257
270 559 m 257
 249 500 l 257
 880 500 l 257
 901 559 l 257
 270 559 l 257
-121 -345 m 257
 -143 -406 l 257
 229 -406 l 257
 251 -345 l 257
 -121 -345 l 257
EndSplineSet
EndChar

StartChar: uni0237
Encoding: 847 567 847
GlifName: uni0237
Width: 1024
VWidth: 0
GlyphClass: 2
Flags: W
AnchorPoint: "top" 720 1182 basechar 0
LayerCount: 2
Fore
SplineSet
1028 1023 m 257
 506 -411 l 257
 564 -411 l 257
 1086 1023 l 257
 1028 1023 l 257
-41 -348 m 257
 -62 -406 l 257
 528 -406 l 257
 549 -348 l 257
 -41 -348 l 257
84 -6 m 257
 -52 -378 l 257
 8 -378 l 257
 144 -6 l 257
 84 -6 l 257
EndSplineSet
EndChar

StartChar: uni0259
Encoding: 848 601 848
GlifName: uni0259
Width: 1024
VWidth: 0
GlyphClass: 2
Flags: W
AnchorPoint: "top" 888.16 1116 basechar 0
AnchorPoint: "base" 525.16 -74 basechar 0
LayerCount: 2
Fore
SplineSet
804 0 m 257
 829 67 l 257
 289 134 l 257
 264 67 l 257
 804 0 l 257
813 0 m 257
 1185 1023 l 257
 1125 1023 l 257
 753 0 l 257
 813 0 l 257
1085 963 m 257
 1124 1023 l 257
 542 1023 l 257
 503 963 l 257
 1085 963 l 257
964 517 m 257
 994 577 l 257
 404 577 l 257
 374 517 l 257
 964 517 l 257
337 97 m 257
 441 578 l 257
 381 578 l 257
 277 97 l 257
 337 97 l 257
EndSplineSet
EndChar

StartChar: uni02C9
Encoding: 852 713 852
GlifName: uni02C_9
Width: 1024
VWidth: 0
GlyphClass: 2
Flags: W
LayerCount: 2
Fore
SplineSet
247 1630 m 257
 217 1550 l 257
 777 1550 l 257
 807 1630 l 257
 247 1630 l 257
EndSplineSet
EndChar

StartChar: uni02CA
Encoding: 853 714 853
GlifName: uni02C_A_
Width: 1024
VWidth: 0
GlyphClass: 2
Flags: W
LayerCount: 2
Fore
SplineSet
565 949 m 257
 419 764 l 257
 459 730 l 257
 605 915 l 257
 565 949 l 257
EndSplineSet
EndChar

StartChar: uni02CB
Encoding: 854 715 854
GlifName: uni02C_B_
Width: 1024
VWidth: 0
GlyphClass: 2
Flags: W
LayerCount: 2
Fore
SplineSet
447 877 m 257
 497 673 l 257
 577 727 l 257
 527 932 l 257
 447 877 l 257
EndSplineSet
EndChar

StartChar: uni0302
Encoding: 855 770 855
GlifName: uni0302
Width: 0
VWidth: 0
GlyphClass: 4
Flags: W
VStem: 618 47
AnchorPoint: "top" -8 769 mark 0
LayerCount: 2
Fore
SplineSet
101 1101 m 257
 65 1101 l 257
 -180 791 l 257
 -159 774 l 257
 101 1101 l 257
68 1103 m 257
 109 769 l 257
 156 787 l 257
 105 1103 l 257
 68 1103 l 257
EndSplineSet
PickledDataWithLists: "(dp0
Vcom.fontlab.hintData
p1
(dp2
Vvhints
p3
(lp4
(dp5
Vposition
p6
I618
sVwidth
p7
I47
sass."
EndChar

StartChar: uni0304
Encoding: 856 772 856
GlifName: uni0304
Width: 0
VWidth: 0
GlyphClass: 4
Flags: W
HStem: 1550 52
AnchorPoint: "top" -1 779 mark 0
LayerCount: 2
Fore
SplineSet
-279 894 m 257
 -298 842 l 257
 262 842 l 257
 281 894 l 257
 -279 894 l 257
EndSplineSet
PickledDataWithLists: "(dp0
Vcom.fontlab.hintData
p1
(dp2
Vhhints
p3
(lp4
(dp5
Vposition
p6
I1550
sVwidth
p7
I52
sass."
EndChar

StartChar: uni0305
Encoding: 857 773 857
GlifName: uni0305
Width: 0
VWidth: 0
GlyphClass: 4
Flags: W
HStem: 1542 60<195 949>
AnchorPoint: "top" 590 1480 mark 0
LayerCount: 2
Fore
SplineSet
195 1602 m 257
 195 1542 l 257
 949 1542 l 257
 949 1602 l 257
 195 1602 l 257
EndSplineSet
PickledDataWithLists: "(dp0
Vcom.fontlab.hintData
p1
(dp2
Vhhints
p3
(lp4
(dp5
Vposition
p6
I1542
sVwidth
p7
I60
sass."
EndChar

StartChar: uni0306
Encoding: 858 774 858
GlifName: uni0306
Width: 0
VWidth: 0
GlyphClass: 4
Flags: W
AnchorPoint: "top" -1 765 mark 0
LayerCount: 2
Fore
SplineSet
156 875 m 257
 130 805 l 257
 321 875 l 257
 355 970 l 257
 156 875 l 257
-168 875 m 257
 -194 805 l 257
 130 805 l 257
 156 875 l 257
 -168 875 l 257
-310 955 m 257
 -339 875 l 257
 -194 805 l 257
 -168 875 l 257
 -310 955 l 257
EndSplineSet
EndChar

StartChar: uni0307
Encoding: 859 775 859
GlifName: uni0307
Width: 0
VWidth: 0
GlyphClass: 4
Flags: W
HStem: 1637 101
AnchorPoint: "top" -3 783 mark 0
LayerCount: 2
Fore
SplineSet
-25 914 m 257
 -62 813 l 257
 50 813 l 257
 87 914 l 257
 -25 914 l 257
EndSplineSet
PickledDataWithLists: "(dp0
Vcom.fontlab.hintData
p1
(dp2
Vhhints
p3
(lp4
(dp5
Vposition
p6
I1637
sVwidth
p7
I101
sass."
EndChar

StartChar: uni0308
Encoding: 860 776 860
GlifName: uni0308
Width: 0
VWidth: 0
GlyphClass: 4
Flags: W
HStem: 1637 101<-157 -157 -157 -82 -82 -82 85 160 160 160>
AnchorPoint: "top" -2 1549 mark 0
LayerCount: 2
Fore
SplineSet
-157 1738 m 257
 -194 1637 l 257
 -82 1637 l 257
 -45 1738 l 257
 -157 1738 l 257
85 1738 m 257
 48 1637 l 257
 160 1637 l 257
 197 1738 l 257
 85 1738 l 257
EndSplineSet
PickledDataWithLists: "(dp0
Vcom.fontlab.hintData
p1
(dp2
Vhhints
p3
(lp4
(dp5
Vposition
p6
I1637
sVwidth
p7
I101
sass."
EndChar

StartChar: uni030A
Encoding: 861 778 861
GlifName: uni030A_
Width: 0
VWidth: 0
GlyphClass: 4
Flags: W
HStem: 1538 309
AnchorPoint: "top" -2 785 mark 0
LayerCount: 2
Fore
SplineSet
-11 1084 m 257
 279 1084 l 257
 187 831 l 257
 -103 831 l 257
 -11 1084 l 257
-34 1113 m 257
 -147 804 l 257
 213 804 l 257
 326 1113 l 257
 -34 1113 l 257
EndSplineSet
PickledDataWithLists: "(dp0
Vcom.fontlab.hintData
p1
(dp2
Vhhints
p3
(lp4
(dp5
Vposition
p6
I1538
sVwidth
p7
I309
sass."
EndChar

StartChar: uni030B
Encoding: 862 779 862
GlifName: uni030B_
Width: 0
VWidth: 0
GlyphClass: 4
Flags: W
AnchorPoint: "top" -2 775 mark 0
LayerCount: 2
Fore
SplineSet
-268 809 m 257
 -202 809 l 257
 -21 1057 l 257
 -87 1057 l 257
 -268 809 l 257
136 809 m 257
 196 809 l 257
 377 1057 l 257
 317 1057 l 257
 136 809 l 257
EndSplineSet
EndChar

StartChar: uni030C
Encoding: 863 780 863
GlifName: uni030C_
Width: 0
VWidth: 0
GlyphClass: 4
Flags: W
VStem: 412 33
AnchorPoint: "top" -12 726 mark 0
LayerCount: 2
Fore
SplineSet
0 791 m 257
 -22 1118 l 257
 -55 1101 l 257
 -36 791 l 257
 0 791 l 257
-33 790 m 257
 4 790 l 257
 284 1105 l 257
 250 1123 l 257
 -33 790 l 257
EndSplineSet
PickledDataWithLists: "(dp0
Vcom.fontlab.hintData
p1
(dp2
Vvhints
p3
(lp4
(dp5
Vposition
p6
I412
sVwidth
p7
I33
sass."
EndChar

StartChar: uni030F
Encoding: 864 783 864
GlifName: uni030F_
Width: 0
VWidth: 0
GlyphClass: 4
Flags: W
AnchorPoint: "top" 0 772 mark 0
LayerCount: 2
Fore
SplineSet
-32 1036 m 257
 88 800 l 257
 135 824 l 257
 16 1061 l 257
 -32 1036 l 257
-178 1033 m 257
 -58 797 l 257
 -39 846 l 257
 -158 1083 l 257
 -178 1033 l 257
EndSplineSet
EndChar

StartChar: uni0311
Encoding: 866 785 866
GlifName: uni0311
Width: 0
VWidth: 0
GlyphClass: 4
Flags: W
VStem: 229 660
AnchorPoint: "top" -10 776 mark 0
LayerCount: 2
Fore
SplineSet
-180 865 m 257
 -180 933 l 257
 -345 865 l 257
 -345 768 l 257
 -180 865 l 257
144 865 m 257
 144 933 l 257
 -180 933 l 257
 -180 865 l 257
 144 865 l 257
315 783 m 257
 315 865 l 257
 144 933 l 257
 144 865 l 257
 315 783 l 257
EndSplineSet
PickledDataWithLists: "(dp0
Vcom.fontlab.hintData
p1
(dp2
Vvhints
p3
(lp4
(dp5
Vposition
p6
I229
sVwidth
p7
I660
sass."
EndChar

StartChar: uni0312
Encoding: 867 786 867
GlifName: uni0312
Width: 0
VWidth: 0
GlyphClass: 4
Flags: W
VStem: 641 55
AnchorPoint: "top" 0 1485 mark 0
LayerCount: 2
Fore
SplineSet
-56 1561 m 257
 81 1561 l 257
 164 1790 l 257
 27 1790 l 257
 -56 1561 l 257
93 1784 m 257
 164 1790 l 257
 118 2004 l 257
 94 1979 l 257
 93 1784 l 257
EndSplineSet
PickledDataWithLists: "(dp0
Vcom.fontlab.hintData
p1
(dp2
Vvhints
p3
(lp4
(dp5
Vposition
p6
I641
sVwidth
p7
I55
sass."
EndChar

StartChar: uni031B
Encoding: 868 795 868
GlifName: uni031B_
Width: 0
VWidth: 0
GlyphClass: 4
Flags: W
AnchorPoint: "top" 10 774 mark 0
LayerCount: 2
Fore
SplineSet
58 1087 m 257
 0 930 l 257
 136 930 l 257
 194 1087 l 257
 58 1087 l 257
131 1057 m 257
 3 823 l 257
 36 774 l 257
 141 948 l 257
 131 1057 l 257
EndSplineSet
EndChar

StartChar: uni0324
Encoding: 869 804 869
GlifName: uni0324
Width: 0
VWidth: 0
GlyphClass: 4
Flags: W
HStem: -388 134
AnchorPoint: "base" -89 -234 mark 0
LayerCount: 2
Fore
SplineSet
-10 -255 m 257
 -55 -378 l 257
 77 -378 l 257
 122 -255 l 257
 -10 -255 l 257
-308 -255 m 257
 -353 -378 l 257
 -221 -378 l 257
 -176 -255 l 257
 -308 -255 l 257
EndSplineSet
PickledDataWithLists: "(dp0
Vcom.fontlab.hintData
p1
(dp2
Vhhints
p3
(lp4
(dp5
Vposition
p6
I-388
sVwidth
p7
I134
sass."
EndChar

StartChar: uni0326
Encoding: 870 806 870
GlifName: uni0326
Width: 0
VWidth: 0
GlyphClass: 4
Flags: W
AnchorPoint: "base" -23 -5 mark 0
LayerCount: 2
Fore
SplineSet
-34 0 m 257
 -82 -132 l 257
 30 -132 l 257
 78 0 l 257
 -34 0 l 257
-82 -132 m 257
 -168 -246 l 257
 -113 -273 l 257
 30 -132 l 257
 -82 -132 l 257
EndSplineSet
EndChar

StartChar: uni0327
Encoding: 871 807 871
GlifName: uni0327
Width: 0
VWidth: 0
GlyphClass: 4
Flags: W
HStem: -406 586<-160 -160 -160 -102 -160 78 -160 78>
AnchorPoint: "base" -127 184 mark 0
LayerCount: 2
Fore
SplineSet
-160 180 m 257
 -248 -60 l 257
 -190 -60 l 257
 -102 180 l 257
 -160 180 l 257
-346 -347 m 257
 -368 -406 l 257
 78 -406 l 257
 100 -347 l 257
 -346 -347 l 257
167 0 m 257
 32 -372 l 257
 91 -372 l 257
 226 0 l 257
 167 0 l 257
-220 0 m 257
 -242 -60 l 257
 204 -60 l 257
 226 0 l 257
 -220 0 l 257
EndSplineSet
PickledDataWithLists: "(dp0
Vcom.fontlab.hintData
p1
(dp2
Vhhints
p3
(lp4
(dp5
Vposition
p6
I-406
sVwidth
p7
I586
sass."
EndChar

StartChar: uni0328
Encoding: 872 808 872
GlifName: uni0328
Width: 0
VWidth: 0
GlyphClass: 4
Flags: W
HStem: -411 411<-271 -271 -271 120 -421 -271 -361 -271 120 120>
AnchorPoint: "base" -242 0 mark 0
LayerCount: 2
Fore
SplineSet
-399 -351 m 257
 -421 -411 l 257
 120 -411 l 257
 142 -351 l 257
 -399 -351 l 257
-271 0 m 257
 -421 -411 l 257
 -361 -411 l 257
 -211 0 l 257
 -271 0 l 257
-271 0 m 257
 -292 -59 l 257
 250 -59 l 257
 271 0 l 257
 -271 0 l 257
EndSplineSet
PickledDataWithLists: "(dp0
Vcom.fontlab.hintData
p1
(dp2
Vhhints
p3
(lp4
(dp5
Vposition
p6
I-411
sVwidth
p7
I411
sass."
EndChar

StartChar: uni0329
Encoding: 873 809 873
GlifName: uni0329
Width: 0
VWidth: 0
GlyphClass: 4
Flags: W
AnchorPoint: "base" 4 -39 mark 0
LayerCount: 2
Fore
SplineSet
32 -76 m 257
 -92 -419 l 257
 -30 -419 l 257
 94 -76 l 257
 32 -76 l 257
EndSplineSet
EndChar

StartChar: uni032E
Encoding: 874 814 874
GlifName: uni032E_
Width: 0
VWidth: 0
GlyphClass: 4
Flags: W
AnchorPoint: "base" -9 -4 mark 0
LayerCount: 2
Fore
SplineSet
134 -173 m 257
 109 -241 l 257
 299 -173 l 257
 334 -76 l 257
 134 -173 l 257
-190 -173 m 257
 -215 -241 l 257
 109 -241 l 257
 134 -173 l 257
 -190 -173 l 257
-331 -91 m 257
 -361 -173 l 257
 -215 -241 l 257
 -190 -173 l 257
 -331 -91 l 257
EndSplineSet
EndChar

StartChar: uni0331
Encoding: 875 817 875
GlifName: uni0331
Width: 0
VWidth: 0
GlyphClass: 4
Flags: W
HStem: -248 44<-354 -354 -354 190 190 190>
AnchorPoint: "base" -78 -163 mark 0
LayerCount: 2
Fore
SplineSet
-354 -204 m 257
 -370 -248 l 257
 190 -248 l 257
 206 -204 l 257
 -354 -204 l 257
EndSplineSet
PickledDataWithLists: "(dp0
Vcom.fontlab.hintData
p1
(dp2
Vhhints
p3
(lp4
(dp5
Vposition
p6
I-248
sVwidth
p7
I44
sass."
EndChar

StartChar: uni0335
Encoding: 877 821 877
GlifName: uni0335
Width: 0
VWidth: 0
GlyphClass: 4
Flags: W
HStem: 935 78<-206 -206 -206 325 325 325>
AnchorPoint: "base" -55 -163 mark 0
LayerCount: 2
Fore
SplineSet
-206 1013 m 257
 -235 935 l 257
 325 935 l 257
 354 1013 l 257
 -206 1013 l 257
EndSplineSet
PickledDataWithLists: "(dp0
Vcom.fontlab.hintData
p1
(dp2
Vhhints
p3
(lp4
(dp5
Vposition
p6
I935
sVwidth
p7
I78
sass."
EndChar

StartChar: uni0345
Encoding: 878 837 878
GlifName: uni0345
Width: 0
VWidth: 0
GlyphClass: 4
Flags: W
LayerCount: 2
Fore
SplineSet
200 -107 m 257
 116 -338 l 257
 176 -338 l 257
 260 -107 l 257
 200 -107 l 257
115 -338 m 257
 91 -391 l 257
 267 -389 l 257
 302 -336 l 257
 115 -338 l 257
EndSplineSet
EndChar

StartChar: uni0394
Encoding: 879 916 879
GlifName: uni0394
Width: 1024
VWidth: 0
GlyphClass: 2
Flags: W
LayerCount: 2
Fore
SplineSet
125 57 m 257
 125 0 l 257
 899 0 l 257
 899 57 l 257
 125 57 l 257
917 0 m 257
 578 1548 l 257
 506 1548 l 257
 865 0 l 257
 917 0 l 257
155 0 m 257
 511 1548 l 257
 440 1548 l 257
 106 0 l 257
 155 0 l 257
EndSplineSet
EndChar

StartChar: uni03A9
Encoding: 880 937 880
GlifName: uni03A_9
Width: 1024
VWidth: 0
GlyphClass: 2
Flags: W
LayerCount: 2
Fore
SplineSet
760.731 557 m 257
 579.475 59 l 257
 639.475 59 l 257
 820.731 557 l 257
 760.731 557 l 257
611.731 557 m 257
 430.475 59 l 257
 490.475 59 l 257
 671.731 557 l 257
 611.731 557 l 257
583.114 69 m 257
 561.275 9 l 257
 918.275 9 l 257
 940.114 69 l 257
 583.114 69 l 257
137.114 69 m 257
 115.275 9 l 257
 472.275 9 l 257
 494.114 69 l 257
 137.114 69 l 257
782.569 617 m 257
 760.004 555 l 257
 1117 555 l 257
 1139.57 617 l 257
 782.569 617 l 257
669.422 1537 m 257
 316.007 566 l 257
 376.007 566 l 257
 729.422 1537 l 257
 669.422 1537 l 257
1409.42 1537 m 257
 1056.01 566 l 257
 1116.01 566 l 257
 1469.42 1537 l 257
 1409.42 1537 l 257
719.422 1537 m 257
 697.584 1477 l 257
 1409.58 1477 l 257
 1431.42 1537 l 257
 719.422 1537 l 257
334.386 611 m 257
 314.004 555 l 257
 671.004 555 l 257
 691.386 611 l 257
 334.386 611 l 257
EndSplineSet
EndChar

StartChar: uni0900
Encoding: 917 2304 917
GlifName: uni0900
Width: 0
VWidth: 0
GlyphClass: 4
Flags: W
HStem: 1639 482<264 439 324 439>
AnchorPoint: "abvm_deva" 285 1609 mark 0
LayerCount: 2
Fore
SplineSet
439 2121 m 257
 264 1639 l 257
 324 1639 l 257
 499 2121 l 257
 439 2121 l 257
454 2122 m 257
 432 2061 l 257
 1045 2061 l 257
 1067 2122 l 257
 454 2122 l 257
652 1919 m 257
 607 1796 l 257
 724 1796 l 257
 769 1919 l 257
 652 1919 l 257
1045 2122 m 257
 868 1636 l 257
 928 1636 l 257
 1105 2122 l 257
 1045 2122 l 257
EndSplineSet
PickledDataWithLists: "(dp0
Vcom.fontlab.hintData
p1
(dp2
Vhhints
p3
(lp4
(dp5
Vposition
p6
I1639
sVwidth
p7
I482
sass."
EndChar

StartChar: uni0901
Encoding: 918 2305 918
GlifName: uni0901
Width: 0
VWidth: 0
GlyphClass: 4
Flags: W
HStem: 1639 485
AnchorPoint: "abvm_deva" 0 1618 mark 0
LayerCount: 2
Fore
SplineSet
158 2130 m 257
 -18 1645 l 257
 42 1645 l 257
 218 2130 l 257
 158 2130 l 257
38 1705 m 257
 17 1645 l 257
 651 1645 l 257
 672 1705 l 257
 38 1705 l 257
401 1968 m 257
 356 1845 l 257
 473 1845 l 257
 518 1968 l 257
 401 1968 l 257
798 2136 m 257
 620 1645 l 257
 680 1645 l 257
 858 2136 l 257
 798 2136 l 257
EndSplineSet
PickledDataWithLists: "(dp0
Vcom.fontlab.hintData
p1
(dp2
Vhhints
p3
(lp4
(dp5
Vposition
p6
I1639
sVwidth
p7
I485
sass."
EndChar

StartChar: uni0902
Encoding: 919 2306 919
GlifName: uni0902
Width: 0
VWidth: 0
GlyphClass: 4
Flags: W
HStem: 1580 120
AnchorPoint: "abvm_deva" -8 1497 mark 0
LayerCount: 2
Fore
SplineSet
42 1650 m 257
 -2 1530 l 257
 118 1530 l 257
 162 1650 l 257
 42 1650 l 257
EndSplineSet
PickledDataWithLists: "(dp0
Vcom.fontlab.hintData
p1
(dp2
Vhhints
p3
(lp4
(dp5
Vposition
p6
I1580
sVwidth
p7
I120
sass."
EndChar

StartChar: uni0903
Encoding: 920 2307 920
GlifName: uni0903
Width: 1024
VWidth: 0
GlyphClass: 2
Flags: W
LayerCount: 2
Fore
SplineSet
331 410 m 257
 287 290 l 257
 407 290 l 257
 451 410 l 257
 331 410 l 257
617 1302 m 257
 573 1182 l 257
 693 1182 l 257
 737 1302 l 257
 617 1302 l 257
EndSplineSet
EndChar

StartChar: uni0904
Encoding: 921 2308 921
GlifName: uni0904
Width: 1024
VWidth: 0
GlyphClass: 2
Flags: W
AnchorPoint: "abvm_deva" 1354 1972 basechar 0
LayerCount: 2
Fore
SplineSet
1010 2062 m 257
 923 1823 l 257
 984 1823 l 257
 1071 2062 l 257
 1010 2062 l 257
937 1866 m 257
 916 1809 l 257
 1599 1809 l 257
 1620 1866 l 257
 937 1866 l 257
1559 1863 m 257
 1443 1545 l 257
 1503 1545 l 257
 1619 1863 l 257
 1559 1863 l 257
1293 1550 m 257
 1271 1488 l 257
 1568 1488 l 257
 1590 1550 l 257
 1293 1550 l 257
1461 1518 m 257
 908 0 l 257
 969 0 l 257
 1522 1518 l 257
 1461 1518 l 257
607 1550 m 257
 584 1487 l 257
 1107 1487 l 257
 1130 1550 l 257
 607 1550 l 257
1097 1550 m 257
 545 34 l 257
 604 34 l 257
 1156 1550 l 257
 1097 1550 l 257
452 894 m 257
 431 835 l 257
 1239 835 l 257
 1260 894 l 257
 452 894 l 257
42 65 m 257
 18 0 l 257
 592 0 l 257
 616 65 l 257
 42 65 l 257
EndSplineSet
EndChar

StartChar: uni0905
Encoding: 922 2309 922
GlifName: uni0905
Width: 1024
VWidth: 0
GlyphClass: 2
Flags: W
AnchorPoint: "abvm_deva" 1504 1557 basechar 0
LayerCount: 2
Fore
SplineSet
1292 1550 m 257
 1270 1488 l 257
 1567 1488 l 257
 1589 1550 l 257
 1292 1550 l 257
1461 1518 m 257
 908 0 l 257
 969 0 l 257
 1522 1518 l 257
 1461 1518 l 257
607 1550 m 257
 584 1487 l 257
 1107 1487 l 257
 1130 1550 l 257
 607 1550 l 257
1097 1550 m 257
 545 34 l 257
 604 34 l 257
 1156 1550 l 257
 1097 1550 l 257
452 894 m 257
 431 835 l 257
 1239 835 l 257
 1260 894 l 257
 452 894 l 257
42 65 m 257
 18 0 l 257
 592 0 l 257
 616 65 l 257
 42 65 l 257
EndSplineSet
EndChar

StartChar: uni0906
Encoding: 923 2310 923
GlifName: uni0906
Width: 1024
VWidth: 0
GlyphClass: 2
Flags: W
AnchorPoint: "abvm_deva" 1410 1556 basechar 0
LayerCount: 2
Fore
SplineSet
1089 1550 m 257
 1067 1488 l 257
 1568 1488 l 257
 1590 1550 l 257
 1089 1550 l 257
1261 1518 m 257
 708 0 l 257
 769 0 l 257
 1322 1518 l 257
 1261 1518 l 257
605 1550 m 257
 582 1487 l 257
 905 1487 l 257
 928 1550 l 257
 605 1550 l 257
895 1550 m 257
 343 34 l 257
 402 34 l 257
 954 1550 l 257
 895 1550 l 257
450 894 m 257
 429 835 l 257
 1037 835 l 257
 1058 894 l 257
 450 894 l 257
40 65 m 257
 16 0 l 257
 390 0 l 257
 414 65 l 257
 40 65 l 257
1444 1518 m 257
 891 0 l 257
 952 0 l 257
 1505 1518 l 257
 1444 1518 l 257
EndSplineSet
EndChar

StartChar: uni0907
Encoding: 924 2311 924
GlifName: uni0907
Width: 1024
VWidth: 0
GlyphClass: 2
Flags: W
AnchorPoint: "abvm_deva" 1426 1560 basechar 0
LayerCount: 2
Fore
SplineSet
558 1550 m 257
 536 1488 l 257
 1570 1488 l 257
 1592 1550 l 257
 558 1550 l 257
1243 1518 m 257
 1117 1173 l 257
 1176 1173 l 257
 1302 1518 l 257
 1243 1518 l 257
607 1205 m 257
 584 1144 l 257
 1164 1144 l 257
 1187 1205 l 257
 607 1205 l 257
598 1181 m 257
 476 845 l 257
 534 845 l 257
 656 1181 l 257
 598 1181 l 257
489 881 m 257
 466 819 l 257
 1112 819 l 257
 1135 881 l 257
 489 881 l 257
1101 881 m 257
 884 285 l 257
 944 285 l 257
 1161 881 l 257
 1101 881 l 257
254 298 m 257
 232 237 l 257
 927 237 l 257
 949 298 l 257
 254 298 l 257
370 298 m 257
 173 -244 l 257
 233 -244 l 257
 430 298 l 257
 370 298 l 257
EndSplineSet
EndChar

StartChar: uni0908
Encoding: 925 2312 925
GlifName: uni0908
Width: 1024
VWidth: 0
GlyphClass: 2
Flags: W
AnchorPoint: "abvm_deva" 1426 1555 basechar 0
LayerCount: 2
Fore
SplineSet
558 1550 m 257
 536 1488 l 257
 1573 1488 l 257
 1595 1550 l 257
 558 1550 l 257
1249 1529 m 257
 1123 1183 l 257
 1183 1183 l 257
 1309 1529 l 257
 1249 1529 l 257
609 1207 m 257
 587 1146 l 257
 1169 1146 l 257
 1191 1207 l 257
 609 1207 l 257
600 1181 m 257
 479 849 l 257
 539 849 l 257
 660 1181 l 257
 600 1181 l 257
491 881 m 257
 469 821 l 257
 1121 821 l 257
 1143 881 l 257
 491 881 l 257
1105 881 m 257
 888 285 l 257
 948 285 l 257
 1165 881 l 257
 1105 881 l 257
256 298 m 257
 234 237 l 257
 932 237 l 257
 954 298 l 257
 256 298 l 257
372 298 m 257
 175 -244 l 257
 235 -244 l 257
 432 298 l 257
 372 298 l 257
993 1860 m 257
 1111 1550 l 257
 1215 1550 l 257
 1088 1908 l 257
 993 1860 l 257
EndSplineSet
EndChar

StartChar: uni0909
Encoding: 926 2313 926
GlifName: uni0909
Width: 1024
VWidth: 0
GlyphClass: 2
Flags: W
AnchorPoint: "abvm_deva" 1225 1561 basechar 0
LayerCount: 2
Fore
SplineSet
564 1550 m 257
 542 1488 l 257
 1567 1488 l 257
 1589 1550 l 257
 564 1550 l 257
1180 1530 m 257
 987 1001 l 257
 1046 1001 l 257
 1239 1530 l 257
 1180 1530 l 257
618 1044 m 257
 597 985 l 257
 1239 985 l 257
 1260 1044 l 257
 618 1044 l 257
1183 994 m 257
 821 0 l 257
 880 0 l 257
 1242 994 l 257
 1183 994 l 257
155 61 m 257
 133 0 l 257
 870 0 l 257
 892 61 l 257
 155 61 l 257
259 346 m 257
 140 19 l 257
 199 19 l 257
 318 346 l 257
 259 346 l 257
EndSplineSet
EndChar

StartChar: uni090A
Encoding: 927 2314 927
GlifName: uni090A_
Width: 1024
VWidth: 0
GlyphClass: 2
Flags: W
AnchorPoint: "abvm_deva" 1198 1559 basechar 0
LayerCount: 2
Fore
SplineSet
564 1550 m 257
 542 1488 l 257
 1567 1488 l 257
 1589 1550 l 257
 564 1550 l 257
891 1530 m 257
 698 1001 l 257
 759 1001 l 257
 952 1530 l 257
 891 1530 l 257
534 1044 m 257
 512 983 l 257
 1317 983 l 257
 1339 1044 l 257
 534 1044 l 257
991 994 m 257
 641 33 l 257
 702 33 l 257
 1052 994 l 257
 991 994 l 257
71 61 m 257
 49 0 l 257
 690 0 l 257
 712 61 l 257
 71 61 l 257
175 346 m 257
 56 19 l 257
 117 19 l 257
 236 346 l 257
 175 346 l 257
1271 1023 m 257
 971 197 l 257
 1031 197 l 257
 1331 1023 l 257
 1271 1023 l 257
EndSplineSet
EndChar

StartChar: uni090B
Encoding: 928 2315 928
GlifName: uni090B_
Width: 1024
VWidth: 0
GlyphClass: 2
Flags: W
AnchorPoint: "abvm_deva" 1301 1555 basechar 0
LayerCount: 2
Fore
SplineSet
564 1550 m 257
 542 1488 l 257
 1559 1488 l 257
 1581 1550 l 257
 564 1550 l 257
1066 1533 m 257
 508 0 l 257
 556 0 l 257
 1118 1545 l 257
 1066 1533 l 257
398 1043 m 257
 376 983 l 257
 679 983 l 257
 701 1043 l 257
 398 1043 l 257
700 471 m 257
 236 422 l 257
 304 376 l 257
 716 417 l 257
 700 471 l 257
701 1043 m 257
 679 983 l 257
 883 902 l 257
 904 958 l 257
 701 1043 l 257
881 897 m 257
 860 837 l 257
 1201 837 l 257
 1222 897 l 257
 881 897 l 257
1180 897 m 257
 950 265 l 257
 1011 265 l 257
 1241 897 l 257
 1180 897 l 257
972 324 m 257
 950 264 l 257
 1120 264 l 257
 1142 324 l 257
 972 324 l 257
EndSplineSet
EndChar

StartChar: uni090C
Encoding: 929 2316 929
GlifName: uni090C_
Width: 1024
VWidth: 0
GlyphClass: 2
Flags: W
AnchorPoint: "abvm_deva" 1299 1562 basechar 0
LayerCount: 2
Fore
SplineSet
557 1550 m 257
 535 1488 l 257
 1574 1488 l 257
 1596 1550 l 257
 557 1550 l 257
1270 1550 m 257
 982 759 l 257
 1042 759 l 257
 1330 1550 l 257
 1270 1550 l 257
1252 791 m 257
 336 791 l 257
 314 731 l 257
 1230 731 l 257
 1252 791 l 257
333 777 m 257
 142 252 l 257
 202 252 l 257
 393 777 l 257
 333 777 l 257
760 791 m 257
 630 433 l 257
 690 433 l 257
 820 791 l 257
 760 791 l 257
1182 792 m 257
 921 73 l 257
 981 73 l 257
 1242 792 l 257
 1182 792 l 257
986 132 m 257
 964 71 l 257
 1056 71 l 257
 1078 132 l 257
 986 132 l 257
EndSplineSet
EndChar

StartChar: uni090D
Encoding: 930 2317 930
GlifName: uni090D_
Width: 1024
VWidth: 0
GlyphClass: 2
Flags: W
AnchorPoint: "abvm_deva" 1569 1552 basechar 0
LayerCount: 2
Fore
SplineSet
559 1550 m 257
 537 1488 l 257
 1572 1488 l 257
 1594 1550 l 257
 559 1550 l 257
1430 1545 m 257
 1152 779 l 257
 1212 779 l 257
 1490 1545 l 257
 1430 1545 l 257
939 839 m 257
 918 779 l 257
 1212 779 l 257
 1233 839 l 257
 939 839 l 257
703 1542 m 257
 265 338 l 257
 325 338 l 257
 763 1542 l 257
 703 1542 l 257
272 358 m 257
 250 297 l 257
 850 297 l 257
 872 358 l 257
 272 358 l 257
818 358 m 257
 652 -98 l 257
 712 -98 l 257
 878 358 l 257
 818 358 l 257
372 -38 m 257
 350 -98 l 257
 710 -98 l 257
 732 -38 l 257
 372 -38 l 257
929 2124 m 257
 753 1639 l 257
 813 1639 l 257
 989 2124 l 257
 929 2124 l 257
821 1702 m 257
 799 1641 l 257
 1393 1641 l 257
 1415 1702 l 257
 821 1702 l 257
1536 2132 m 257
 1357 1641 l 257
 1417 1641 l 257
 1596 2132 l 257
 1536 2132 l 257
EndSplineSet
EndChar

StartChar: uni090E
Encoding: 931 2318 931
GlifName: uni090E_
Width: 1024
VWidth: 0
GlyphClass: 2
Flags: W
AnchorPoint: "abvm_deva" 1562 1561 basechar 0
LayerCount: 2
Fore
SplineSet
559 1550 m 257
 537 1488 l 257
 1572 1488 l 257
 1594 1550 l 257
 559 1550 l 257
1430 1545 m 257
 1152 779 l 257
 1212 779 l 257
 1490 1545 l 257
 1430 1545 l 257
939 839 m 257
 918 779 l 257
 1212 779 l 257
 1233 839 l 257
 939 839 l 257
703 1542 m 257
 265 338 l 257
 325 338 l 257
 763 1542 l 257
 703 1542 l 257
272 358 m 257
 250 297 l 257
 850 297 l 257
 872 358 l 257
 272 358 l 257
818 358 m 257
 652 -98 l 257
 712 -98 l 257
 878 358 l 257
 818 358 l 257
372 -38 m 257
 350 -98 l 257
 710 -98 l 257
 732 -38 l 257
 372 -38 l 257
1021 2062 m 257
 934 1823 l 257
 994 1823 l 257
 1081 2062 l 257
 1021 2062 l 257
947 1866 m 257
 926 1809 l 257
 1610 1809 l 257
 1631 1866 l 257
 947 1866 l 257
1570 1858 m 257
 1455 1540 l 257
 1515 1540 l 257
 1630 1858 l 257
 1570 1858 l 257
EndSplineSet
EndChar

StartChar: uni090F
Encoding: 932 2319 932
GlifName: uni090F_
Width: 1024
VWidth: 0
GlyphClass: 2
Flags: W
AnchorPoint: "abvm_deva" 1463 1556 basechar 0
LayerCount: 2
Fore
SplineSet
559 1550 m 257
 537 1488 l 257
 1572 1488 l 257
 1594 1550 l 257
 559 1550 l 257
1430 1545 m 257
 1152 779 l 257
 1212 779 l 257
 1490 1545 l 257
 1430 1545 l 257
939 839 m 257
 918 779 l 257
 1212 779 l 257
 1233 839 l 257
 939 839 l 257
703 1542 m 257
 265 338 l 257
 325 338 l 257
 763 1542 l 257
 703 1542 l 257
272 358 m 257
 250 297 l 257
 850 297 l 257
 872 358 l 257
 272 358 l 257
818 358 m 257
 652 -98 l 257
 712 -98 l 257
 878 358 l 257
 818 358 l 257
372 -38 m 257
 350 -98 l 257
 710 -98 l 257
 732 -38 l 257
 372 -38 l 257
EndSplineSet
EndChar

StartChar: uni0910
Encoding: 933 2320 933
GlifName: uni0910
Width: 1024
VWidth: 0
GlyphClass: 2
Flags: W
AnchorPoint: "abvm_deva" 1592 1557 basechar 0
LayerCount: 2
Fore
SplineSet
559 1549 m 257
 537 1489 l 257
 1572 1489 l 257
 1594 1549 l 257
 559 1549 l 257
1428 1545 m 257
 1150 779 l 257
 1212 779 l 257
 1490 1545 l 257
 1428 1545 l 257
940 840 m 257
 918 779 l 257
 1212 779 l 257
 1234 840 l 257
 940 840 l 257
703 1542 m 257
 265 338 l 257
 325 338 l 257
 763 1542 l 257
 703 1542 l 257
273 359 m 257
 250 297 l 257
 850 297 l 257
 873 359 l 257
 273 359 l 257
832 358 m 257
 666 -98 l 257
 724 -98 l 257
 890 358 l 257
 832 358 l 257
373 -37 m 257
 350 -98 l 257
 710 -98 l 257
 733 -37 l 257
 373 -37 l 257
1270 1962 m 257
 1418 1550 l 257
 1490 1550 l 257
 1337 1998 l 257
 1270 1962 l 257
EndSplineSet
EndChar

StartChar: uni0911
Encoding: 934 2321 934
GlifName: uni0911
Width: 1024
VWidth: 0
GlyphClass: 2
Flags: W
AnchorPoint: "abvm_deva" 1691 1557 basechar 0
LayerCount: 2
Fore
SplineSet
1099 1548 m 257
 1078 1488 l 257
 1566 1488 l 257
 1587 1548 l 257
 1099 1548 l 257
1092 1506 m 257
 544 0 l 257
 606 0 l 257
 1154 1506 l 257
 1092 1506 l 257
590 1550 m 257
 568 1488 l 257
 928 1488 l 257
 950 1550 l 257
 590 1550 l 257
916 1550 m 257
 363 30 l 257
 423 30 l 257
 976 1550 l 257
 916 1550 l 257
435 894 m 257
 414 834 l 257
 886 834 l 257
 907 894 l 257
 435 894 l 257
22 61 m 257
 0 0 l 257
 412 0 l 257
 434 61 l 257
 22 61 l 257
1359 1504 m 257
 812 0 l 257
 872 0 l 257
 1419 1504 l 257
 1359 1504 l 257
1285 2085 m 257
 1123 1639 l 257
 1185 1639 l 257
 1347 2085 l 257
 1285 2085 l 257
1151 1701 m 257
 1129 1641 l 257
 1621 1641 l 257
 1643 1701 l 257
 1151 1701 l 257
1710 2083 m 257
 1549 1641 l 257
 1621 1641 l 257
 1782 2083 l 257
 1710 2083 l 257
EndSplineSet
EndChar

StartChar: uni0912
Encoding: 935 2322 935
GlifName: uni0912
Width: 1024
VWidth: 0
GlyphClass: 2
Flags: W
AnchorPoint: "abvm_deva" 1581 1560 basechar 0
LayerCount: 2
Fore
SplineSet
1072 1553 m 257
 1051 1494 l 257
 1552 1494 l 257
 1573 1553 l 257
 1072 1553 l 257
1261 1518 m 257
 708 0 l 257
 769 0 l 257
 1322 1518 l 257
 1261 1518 l 257
605 1550 m 257
 582 1487 l 257
 905 1487 l 257
 928 1550 l 257
 605 1550 l 257
895 1550 m 257
 343 34 l 257
 402 34 l 257
 954 1550 l 257
 895 1550 l 257
450 894 m 257
 429 835 l 257
 1037 835 l 257
 1058 894 l 257
 450 894 l 257
40 65 m 257
 16 0 l 257
 390 0 l 257
 414 65 l 257
 40 65 l 257
1444 1518 m 257
 891 0 l 257
 952 0 l 257
 1505 1518 l 257
 1444 1518 l 257
1008 2062 m 257
 921 1823 l 257
 982 1823 l 257
 1069 2062 l 257
 1008 2062 l 257
935 1866 m 257
 914 1809 l 257
 1597 1809 l 257
 1618 1866 l 257
 935 1866 l 257
1557 1863 m 257
 1441 1545 l 257
 1501 1545 l 257
 1617 1863 l 257
 1557 1863 l 257
EndSplineSet
EndChar

